<svg xmlns="http://www.w3.org/2000/svg" width="808" height="1328" viewBox="0 0 808 1328"><defs><style>
  .t { font-family: -apple-system,BlinkMacSystemFont,Segoe UI,Helvetica,Arial,sans-serif; font-variant-numeric: tabular-lining; }
  .t-h { font-size: 14px; fill: #c9d1d9; letter-spacing: 2px; font-weight: 600; }
  .t-sub { font-size: 11px; fill: #6e7681; }
  .t-label { font-size: 12px; fill: #8b949e; }
  .t-value { font-size: 11px; fill: #6e7681; }
  .t-subhdr { font-size: 11px; fill: #8b949e; letter-spacing: 1px; font-weight: 600; }
  .t-stat-label { font-size: 10px; fill: #8b949e; font-weight: 600; }
  .t-stat-value { font-size: 22px; font-weight: 700; }
  .t-card-title { font-size: 12px; fill: #58a6ff; font-weight: 700; }
  .t-card-detail { font-size: 11px; fill: #8b949e; }
  .t-pill { font-size: 11px; font-weight: 600; }
  .t-bullet { font-size: 12px; fill: #c9d1d9; }
  .bg-fill { fill: #0d1117; }
  .card-fill { fill: #161b22; }
  .border-stroke { stroke: #30363d; }

  @media (prefers-color-scheme: light) {
    .bg-fill { fill: #ffffff; }
    .card-fill { fill: #f6f8fa; }
    .border-stroke { stroke: #d0d7de; }
    .t-h { fill: #1f2328; }
    .t-sub { fill: #656d76; }
    .t-label { fill: #656d76; }
    .t-value { fill: #656d76; }
    .t-subhdr { fill: #656d76; }
    .t-stat-label { fill: #656d76; }
    .t-card-title { fill: #0969da; }
    .t-card-detail { fill: #656d76; }
    .t-bullet { fill: #1f2328; }
  }

  @keyframes fadeIn {
    from { opacity: 0; transform: translateY(8px); }
    to { opacity: 1; transform: translateY(0); }
  }
  @keyframes scaleIn {
    from { transform: scale(0); opacity: 0; }
    to { transform: scale(1); opacity: 1; }
  }
  @keyframes drawPath {
    from { stroke-dashoffset: var(--path-length); }
    to { stroke-dashoffset: 0; }
  }
  @keyframes radarReveal {
    from { transform: scale(0); opacity: 0; }
    to { transform: scale(1); opacity: 0.6; }
  }
  .fade-1 { animation: fadeIn 0.6s ease-out 0.1s both; }
  .fade-2 { animation: fadeIn 0.6s ease-out 0.25s both; }
  .fade-3 { animation: fadeIn 0.6s ease-out 0.4s both; }
  .fade-4 { animation: fadeIn 0.6s ease-out 0.55s both; }
  .fade-5 { animation: fadeIn 0.6s ease-out 0.7s both; }
  .fade-6 { animation: fadeIn 0.6s ease-out 0.85s both; }
</style></defs><rect width="808" height="1328" rx="12" class="bg-fill" fill="#0d1117"/><text x="24" y="40" class="t t-h">LANGUAGE VELOCITY</text><text x="24" y="56" class="t t-sub">How language usage has evolved over the past year</text><path d="M 24,206 C 55.66666666666667,206 55.66666666666667,206 87.33333333333334,206 C 119.00000000000001,206 119.00000000000001,205.44444444444446 150.66666666666669,205.44444444444446 C 182.33333333333334,205.44444444444446 182.33333333333334,204.88888888888889 214,204.88888888888889 C 245.66666666666669,204.88888888888889 245.66666666666669,205.62962962962962 277.33333333333337,205.62962962962962 C 309,205.62962962962962 309,206 340.6666666666667,206 C 372.33333333333337,206 372.33333333333337,198.59259259259258 404,198.59259259259258 C 435.6666666666667,198.59259259259258 435.6666666666667,204.7037037037037 467.33333333333337,204.7037037037037 C 499.00000000000006,204.7037037037037 499.00000000000006,200.25925925925927 530.6666666666667,200.25925925925927 C 562.3333333333334,200.25925925925927 562.3333333333334,204.88888888888889 594,204.88888888888889 C 625.6666666666667,204.88888888888889 625.6666666666667,170.25925925925927 657.3333333333334,170.25925925925927 C 689,170.25925925925927 689,117.48148148148148 720.6666666666667,117.48148148148148 C 752.3333333333334,117.48148148148148 752.3333333333334,66 784,66 L 784,66.74074074074076 C 752.3333333333334,66.74074074074076 752.3333333333334,118.03703703703704 720.6666666666667,118.03703703703704 C 689,118.03703703703704 689,170.44444444444446 657.3333333333334,170.44444444444446 C 625.6666666666667,170.44444444444446 625.6666666666667,204.88888888888889 594,204.88888888888889 C 562.3333333333334,204.88888888888889 562.3333333333334,200.25925925925927 530.6666666666667,200.25925925925927 C 499.00000000000006,200.25925925925927 499.00000000000006,204.7037037037037 467.33333333333337,204.7037037037037 C 435.6666666666667,204.7037037037037 435.6666666666667,198.59259259259258 404,198.59259259259258 C 372.33333333333337,198.59259259259258 372.33333333333337,206 340.6666666666667,206 C 309,206 309,205.62962962962962 277.33333333333337,205.62962962962962 C 245.66666666666669,205.62962962962962 245.66666666666669,204.88888888888889 214,204.88888888888889 C 182.33333333333334,204.88888888888889 182.33333333333334,205.44444444444446 150.66666666666669,205.44444444444446 C 119.00000000000001,205.44444444444446 119.00000000000001,206 87.33333333333334,206 C 55.66666666666667,206 55.66666666666667,206 24,206 Z" fill="#3D6117" fill-opacity="0.75" class="fade-1"/><path d="M 24,206 C 55.66666666666667,206 55.66666666666667,206 87.33333333333334,206 C 119.00000000000001,206 119.00000000000001,205.44444444444446 150.66666666666669,205.44444444444446 C 182.33333333333334,205.44444444444446 182.33333333333334,204.88888888888889 214,204.88888888888889 C 245.66666666666669,204.88888888888889 245.66666666666669,205.62962962962962 277.33333333333337,205.62962962962962 C 309,205.62962962962962 309,206 340.6666666666667,206 C 372.33333333333337,206 372.33333333333337,198.59259259259258 404,198.59259259259258 C 435.6666666666667,198.59259259259258 435.6666666666667,204.7037037037037 467.33333333333337,204.7037037037037 C 499.00000000000006,204.7037037037037 499.00000000000006,200.25925925925927 530.6666666666667,200.25925925925927 C 562.3333333333334,200.25925925925927 562.3333333333334,204.88888888888889 594,204.88888888888889 C 625.6666666666667,204.88888888888889 625.6666666666667,170.44444444444446 657.3333333333334,170.44444444444446 C 689,170.44444444444446 689,118.03703703703704 720.6666666666667,118.03703703703704 C 752.3333333333334,118.03703703703704 752.3333333333334,66.74074074074076 784,66.74074074074076 L 784,67.66666666666666 C 752.3333333333334,67.66666666666666 752.3333333333334,118.5925925925926 720.6666666666667,118.5925925925926 C 689,118.5925925925926 689,170.62962962962962 657.3333333333334,170.62962962962962 C 625.6666666666667,170.62962962962962 625.6666666666667,204.88888888888889 594,204.88888888888889 C 562.3333333333334,204.88888888888889 562.3333333333334,200.25925925925927 530.6666666666667,200.25925925925927 C 499.00000000000006,200.25925925925927 499.00000000000006,204.7037037037037 467.33333333333337,204.7037037037037 C 435.6666666666667,204.7037037037037 435.6666666666667,198.59259259259258 404,198.59259259259258 C 372.33333333333337,198.59259259259258 372.33333333333337,206 340.6666666666667,206 C 309,206 309,205.62962962962962 277.33333333333337,205.62962962962962 C 245.66666666666669,205.62962962962962 245.66666666666669,204.88888888888889 214,204.88888888888889 C 182.33333333333334,204.88888888888889 182.33333333333334,205.44444444444446 150.66666666666669,205.44444444444446 C 119.00000000000001,205.44444444444446 119.00000000000001,206 87.33333333333334,206 C 55.66666666666667,206 55.66666666666667,206 24,206 Z" fill="#DA5B0B" fill-opacity="0.75" class="fade-2"/><path d="M 24,206 C 55.66666666666667,206 55.66666666666667,206 87.33333333333334,206 C 119.00000000000001,206 119.00000000000001,205.44444444444446 150.66666666666669,205.44444444444446 C 182.33333333333334,205.44444444444446 182.33333333333334,204.88888888888889 214,204.88888888888889 C 245.66666666666669,204.88888888888889 245.66666666666669,205.62962962962962 277.33333333333337,205.62962962962962 C 309,205.62962962962962 309,206 340.6666666666667,206 C 372.33333333333337,206 372.33333333333337,198.59259259259258 404,198.59259259259258 C 435.6666666666667,198.59259259259258 435.6666666666667,204.7037037037037 467.33333333333337,204.7037037037037 C 499.00000000000006,204.7037037037037 499.00000000000006,200.25925925925927 530.6666666666667,200.25925925925927 C 562.3333333333334,200.25925925925927 562.3333333333334,204.88888888888889 594,204.88888888888889 C 625.6666666666667,204.88888888888889 625.6666666666667,170.62962962962962 657.3333333333334,170.62962962962962 C 689,170.62962962962962 689,118.5925925925926 720.6666666666667,118.5925925925926 C 752.3333333333334,118.5925925925926 752.3333333333334,67.66666666666666 784,67.66666666666666 L 784,72.48148148148147 C 752.3333333333334,72.48148148148147 752.3333333333334,121.74074074074073 720.6666666666667,121.74074074074073 C 689,121.74074074074073 689,171.92592592592592 657.3333333333334,171.92592592592592 C 625.6666666666667,171.92592592592592 625.6666666666667,204.88888888888889 594,204.88888888888889 C 562.3333333333334,204.88888888888889 562.3333333333334,200.44444444444446 530.6666666666667,200.44444444444446 C 499.00000000000006,200.44444444444446 499.00000000000006,204.7037037037037 467.33333333333337,204.7037037037037 C 435.6666666666667,204.7037037037037 435.6666666666667,198.77777777777777 404,198.77777777777777 C 372.33333333333337,198.77777777777777 372.33333333333337,206 340.6666666666667,206 C 309,206 309,205.62962962962962 277.33333333333337,205.62962962962962 C 245.66666666666669,205.62962962962962 245.66666666666669,204.88888888888889 214,204.88888888888889 C 182.33333333333334,204.88888888888889 182.33333333333334,205.44444444444446 150.66666666666669,205.44444444444446 C 119.00000000000001,205.44444444444446 119.00000000000001,206 87.33333333333334,206 C 55.66666666666667,206 55.66666666666667,206 24,206 Z" fill="#b07219" fill-opacity="0.75" class="fade-3"/><path d="M 24,206 C 55.66666666666667,206 55.66666666666667,206 87.33333333333334,206 C 119.00000000000001,206 119.00000000000001,205.44444444444446 150.66666666666669,205.44444444444446 C 182.33333333333334,205.44444444444446 182.33333333333334,204.88888888888889 214,204.88888888888889 C 245.66666666666669,204.88888888888889 245.66666666666669,205.62962962962962 277.33333333333337,205.62962962962962 C 309,205.62962962962962 309,206 340.6666666666667,206 C 372.33333333333337,206 372.33333333333337,198.77777777777777 404,198.77777777777777 C 435.6666666666667,198.77777777777777 435.6666666666667,204.7037037037037 467.33333333333337,204.7037037037037 C 499.00000000000006,204.7037037037037 499.00000000000006,200.44444444444446 530.6666666666667,200.44444444444446 C 562.3333333333334,200.44444444444446 562.3333333333334,204.88888888888889 594,204.88888888888889 C 625.6666666666667,204.88888888888889 625.6666666666667,171.92592592592592 657.3333333333334,171.92592592592592 C 689,171.92592592592592 689,121.74074074074073 720.6666666666667,121.74074074074073 C 752.3333333333334,121.74074074074073 752.3333333333334,72.48148148148147 784,72.48148148148147 L 784,85.44444444444444 C 752.3333333333334,85.44444444444444 752.3333333333334,129.8888888888889 720.6666666666667,129.8888888888889 C 689,129.8888888888889 689,175.25925925925927 657.3333333333334,175.25925925925927 C 625.6666666666667,175.25925925925927 625.6666666666667,205.07407407407408 594,205.07407407407408 C 562.3333333333334,205.07407407407408 562.3333333333334,201 530.6666666666667,201 C 499.00000000000006,201 499.00000000000006,204.88888888888889 467.33333333333337,204.88888888888889 C 435.6666666666667,204.88888888888889 435.6666666666667,199.51851851851853 404,199.51851851851853 C 372.33333333333337,199.51851851851853 372.33333333333337,206 340.6666666666667,206 C 309,206 309,205.62962962962962 277.33333333333337,205.62962962962962 C 245.66666666666669,205.62962962962962 245.66666666666669,205.07407407407408 214,205.07407407407408 C 182.33333333333334,205.07407407407408 182.33333333333334,205.44444444444446 150.66666666666669,205.44444444444446 C 119.00000000000001,205.44444444444446 119.00000000000001,206 87.33333333333334,206 C 55.66666666666667,206 55.66666666666667,206 24,206 Z" fill="#3572A5" fill-opacity="0.75" class="fade-4"/><path d="M 24,206 C 55.66666666666667,206 55.66666666666667,206 87.33333333333334,206 C 119.00000000000001,206 119.00000000000001,205.44444444444446 150.66666666666669,205.44444444444446 C 182.33333333333334,205.44444444444446 182.33333333333334,205.07407407407408 214,205.07407407407408 C 245.66666666666669,205.07407407407408 245.66666666666669,205.62962962962962 277.33333333333337,205.62962962962962 C 309,205.62962962962962 309,206 340.6666666666667,206 C 372.33333333333337,206 372.33333333333337,199.51851851851853 404,199.51851851851853 C 435.6666666666667,199.51851851851853 435.6666666666667,204.88888888888889 467.33333333333337,204.88888888888889 C 499.00000000000006,204.88888888888889 499.00000000000006,201 530.6666666666667,201 C 562.3333333333334,201 562.3333333333334,205.07407407407408 594,205.07407407407408 C 625.6666666666667,205.07407407407408 625.6666666666667,175.25925925925927 657.3333333333334,175.25925925925927 C 689,175.25925925925927 689,129.8888888888889 720.6666666666667,129.8888888888889 C 752.3333333333334,129.8888888888889 752.3333333333334,85.44444444444444 784,85.44444444444444 L 784,103.96296296296296 C 752.3333333333334,103.96296296296296 752.3333333333334,141.55555555555554 720.6666666666667,141.55555555555554 C 689,141.55555555555554 689,180.07407407407408 657.3333333333334,180.07407407407408 C 625.6666666666667,180.07407407407408 625.6666666666667,205.25925925925927 594,205.25925925925927 C 562.3333333333334,205.25925925925927 562.3333333333334,201.74074074074073 530.6666666666667,201.74074074074073 C 499.00000000000006,201.74074074074073 499.00000000000006,205.07407407407408 467.33333333333337,205.07407407407408 C 435.6666666666667,205.07407407407408 435.6666666666667,200.44444444444446 404,200.44444444444446 C 372.33333333333337,200.44444444444446 372.33333333333337,206 340.6666666666667,206 C 309,206 309,205.62962962962962 277.33333333333337,205.62962962962962 C 245.66666666666669,205.62962962962962 245.66666666666669,205.25925925925927 214,205.25925925925927 C 182.33333333333334,205.25925925925927 182.33333333333334,205.44444444444446 150.66666666666669,205.44444444444446 C 119.00000000000001,205.44444444444446 119.00000000000001,206 87.33333333333334,206 C 55.66666666666667,206 55.66666666666667,206 24,206 Z" fill="#89e051" fill-opacity="0.75" class="fade-5"/><path d="M 24,206 C 55.66666666666667,206 55.66666666666667,206 87.33333333333334,206 C 119.00000000000001,206 119.00000000000001,205.44444444444446 150.66666666666669,205.44444444444446 C 182.33333333333334,205.44444444444446 182.33333333333334,205.25925925925927 214,205.25925925925927 C 245.66666666666669,205.25925925925927 245.66666666666669,205.62962962962962 277.33333333333337,205.62962962962962 C 309,205.62962962962962 309,206 340.6666666666667,206 C 372.33333333333337,206 372.33333333333337,200.44444444444446 404,200.44444444444446 C 435.6666666666667,200.44444444444446 435.6666666666667,205.07407407407408 467.33333333333337,205.07407407407408 C 499.00000000000006,205.07407407407408 499.00000000000006,201.74074074074073 530.6666666666667,201.74074074074073 C 562.3333333333334,201.74074074074073 562.3333333333334,205.25925925925927 594,205.25925925925927 C 625.6666666666667,205.25925925925927 625.6666666666667,180.07407407407408 657.3333333333334,180.07407407407408 C 689,180.07407407407408 689,141.55555555555554 720.6666666666667,141.55555555555554 C 752.3333333333334,141.55555555555554 752.3333333333334,103.96296296296296 784,103.96296296296296 L 784,127.11111111111111 C 752.3333333333334,127.11111111111111 752.3333333333334,156.1851851851852 720.6666666666667,156.1851851851852 C 689,156.1851851851852 689,186 657.3333333333334,186 C 625.6666666666667,186 625.6666666666667,205.44444444444446 594,205.44444444444446 C 562.3333333333334,205.44444444444446 562.3333333333334,202.66666666666666 530.6666666666667,202.66666666666666 C 499.00000000000006,202.66666666666666 499.00000000000006,205.25925925925927 467.33333333333337,205.25925925925927 C 435.6666666666667,205.25925925925927 435.6666666666667,201.74074074074073 404,201.74074074074073 C 372.33333333333337,201.74074074074073 372.33333333333337,206 340.6666666666667,206 C 309,206 309,205.62962962962962 277.33333333333337,205.62962962962962 C 245.66666666666669,205.62962962962962 245.66666666666669,205.44444444444446 214,205.44444444444446 C 182.33333333333334,205.44444444444446 182.33333333333334,205.62962962962962 150.66666666666669,205.62962962962962 C 119.00000000000001,205.62962962962962 119.00000000000001,206 87.33333333333334,206 C 55.66666666666667,206 55.66666666666667,206 24,206 Z" fill="#00ADD8" fill-opacity="0.75" class="fade-6"/><path d="M 24,206 C 55.66666666666667,206 55.66666666666667,206 87.33333333333334,206 C 119.00000000000001,206 119.00000000000001,205.62962962962962 150.66666666666669,205.62962962962962 C 182.33333333333334,205.62962962962962 182.33333333333334,205.44444444444446 214,205.44444444444446 C 245.66666666666669,205.44444444444446 245.66666666666669,205.62962962962962 277.33333333333337,205.62962962962962 C 309,205.62962962962962 309,206 340.6666666666667,206 C 372.33333333333337,206 372.33333333333337,201.74074074074073 404,201.74074074074073 C 435.6666666666667,201.74074074074073 435.6666666666667,205.25925925925927 467.33333333333337,205.25925925925927 C 499.00000000000006,205.25925925925927 499.00000000000006,202.66666666666666 530.6666666666667,202.66666666666666 C 562.3333333333334,202.66666666666666 562.3333333333334,205.44444444444446 594,205.44444444444446 C 625.6666666666667,205.44444444444446 625.6666666666667,186 657.3333333333334,186 C 689,186 689,156.1851851851852 720.6666666666667,156.1851851851852 C 752.3333333333334,156.1851851851852 752.3333333333334,127.11111111111111 784,127.11111111111111 L 784,157.85185185185185 C 752.3333333333334,157.85185185185185 752.3333333333334,175.62962962962962 720.6666666666667,175.62962962962962 C 689,175.62962962962962 689,193.77777777777777 657.3333333333334,193.77777777777777 C 625.6666666666667,193.77777777777777 625.6666666666667,205.62962962962962 594,205.62962962962962 C 562.3333333333334,205.62962962962962 562.3333333333334,203.96296296296296 530.6666666666667,203.96296296296296 C 499.00000000000006,203.96296296296296 499.00000000000006,205.62962962962962 467.33333333333337,205.62962962962962 C 435.6666666666667,205.62962962962962 435.6666666666667,203.40740740740742 404,203.40740740740742 C 372.33333333333337,203.40740740740742 372.33333333333337,206 340.6666666666667,206 C 309,206 309,205.8148148148148 277.33333333333337,205.8148148148148 C 245.66666666666669,205.8148148148148 245.66666666666669,205.62962962962962 214,205.62962962962962 C 182.33333333333334,205.62962962962962 182.33333333333334,205.8148148148148 150.66666666666669,205.8148148148148 C 119.00000000000001,205.8148148148148 119.00000000000001,206 87.33333333333334,206 C 55.66666666666667,206 55.66666666666667,206 24,206 Z" fill="#3178c6" fill-opacity="0.75" class="fade-6"/><path d="M 24,206 C 55.66666666666667,206 55.66666666666667,206 87.33333333333334,206 C 119.00000000000001,206 119.00000000000001,205.8148148148148 150.66666666666669,205.8148148148148 C 182.33333333333334,205.8148148148148 182.33333333333334,205.62962962962962 214,205.62962962962962 C 245.66666666666669,205.62962962962962 245.66666666666669,205.8148148148148 277.33333333333337,205.8148148148148 C 309,205.8148148148148 309,206 340.6666666666667,206 C 372.33333333333337,206 372.33333333333337,203.40740740740742 404,203.40740740740742 C 435.6666666666667,203.40740740740742 435.6666666666667,205.62962962962962 467.33333333333337,205.62962962962962 C 499.00000000000006,205.62962962962962 499.00000000000006,203.96296296296296 530.6666666666667,203.96296296296296 C 562.3333333333334,203.96296296296296 562.3333333333334,205.62962962962962 594,205.62962962962962 C 625.6666666666667,205.62962962962962 625.6666666666667,193.77777777777777 657.3333333333334,193.77777777777777 C 689,193.77777777777777 689,175.62962962962962 720.6666666666667,175.62962962962962 C 752.3333333333334,175.62962962962962 752.3333333333334,157.85185185185185 784,157.85185185185185 L 784,206 C 752.3333333333334,206 752.3333333333334,206 720.6666666666667,206 C 689,206 689,206 657.3333333333334,206 C 625.6666666666667,206 625.6666666666667,206 594,206 C 562.3333333333334,206 562.3333333333334,206 530.6666666666667,206 C 499.00000000000006,206 499.00000000000006,206 467.33333333333337,206 C 435.6666666666667,206 435.6666666666667,206 404,206 C 372.33333333333337,206 372.33333333333337,206 340.6666666666667,206 C 309,206 309,206 277.33333333333337,206 C 245.66666666666669,206 245.66666666666669,206 214,206 C 182.33333333333334,206 182.33333333333334,206 150.66666666666669,206 C 119.00000000000001,206 119.00000000000001,206 87.33333333333334,206 C 55.66666666666667,206 55.66666666666667,206 24,206 Z" fill="#dea584" fill-opacity="0.75" class="fade-6"/><rect x="24" y="212" width="8" height="8" rx="2" fill="#dea584" opacity="0.85"/><text x="36" y="220" class="t t-value">Rust</text><rect x="80" y="212" width="8" height="8" rx="2" fill="#3178c6" opacity="0.85"/><text x="92" y="220" class="t t-value">TypeScript</text><rect x="178" y="212" width="8" height="8" rx="2" fill="#00ADD8" opacity="0.85"/><text x="190" y="220" class="t t-value">Go</text><rect x="220" y="212" width="8" height="8" rx="2" fill="#89e051" opacity="0.85"/><text x="232" y="220" class="t t-value">Shell</text><rect x="283" y="212" width="8" height="8" rx="2" fill="#3572A5" opacity="0.85"/><text x="295" y="220" class="t t-value">Python</text><rect x="353" y="212" width="8" height="8" rx="2" fill="#b07219" opacity="0.85"/><text x="365" y="220" class="t t-value">Java</text><rect x="409" y="212" width="8" height="8" rx="2" fill="#DA5B0B" opacity="0.85"/><text x="421" y="220" class="t t-value">Jupyter Notebook</text><rect x="549" y="212" width="8" height="8" rx="2" fill="#3D6117" opacity="0.85"/><text x="561" y="220" class="t t-value">TeX</text><text x="24" y="220" class="t t-value" text-anchor="start" opacity="0">Feb</text><text x="150.66666666666669" y="220" class="t t-value" text-anchor="start" opacity="0">Apr</text><text x="277.33333333333337" y="220" class="t t-value" text-anchor="start" opacity="0">Jun</text><text x="404" y="220" class="t t-value" text-anchor="start" opacity="0">Aug</text><text x="530.6666666666667" y="220" class="t t-value" text-anchor="start" opacity="0">Oct</text><text x="657.3333333333334" y="220" class="t t-value" text-anchor="start" opacity="0">Dec</text><text x="784" y="220" class="t t-value" text-anchor="start" opacity="0">Feb</text><text x="24" y="282" class="t t-h">CONTRIBUTION RHYTHM</text><text x="24" y="298" class="t t-sub">Activity patterns and statistics over the past year</text><circle cx="144" cy="428" r="22.5" fill="none" stroke="#30363d" stroke-width="1" stroke-opacity="0.4"/><circle cx="144" cy="428" r="45" fill="none" stroke="#30363d" stroke-width="1" stroke-opacity="0.4"/><circle cx="144" cy="428" r="67.5" fill="none" stroke="#30363d" stroke-width="1" stroke-opacity="0.4"/><circle cx="144" cy="428" r="90" fill="none" stroke="#30363d" stroke-width="1" stroke-opacity="0.4"/><line x1="144" y1="428" x2="144" y2="338" stroke="#30363d" stroke-width="1" stroke-opacity="0.3"/><line x1="144" y1="428" x2="214.36483342212267" y2="371.885917832714" stroke="#30363d" stroke-width="1" stroke-opacity="0.3"/><line x1="144" y1="428" x2="231.74351209636413" y2="448.0268840560683" stroke="#30363d" stroke-width="1" stroke-opacity="0.3"/><line x1="144" y1="428" x2="183.04953652058023" y2="509.08719811121773" stroke="#30363d" stroke-width="1" stroke-opacity="0.3"/><line x1="144" y1="428" x2="104.95046347941977" y2="509.08719811121773" stroke="#30363d" stroke-width="1" stroke-opacity="0.3"/><line x1="144" y1="428" x2="56.25648790363587" y2="448.0268840560683" stroke="#30363d" stroke-width="1" stroke-opacity="0.3"/><line x1="144" y1="428" x2="73.63516657787731" y2="371.885917832714" stroke="#30363d" stroke-width="1" stroke-opacity="0.3"/><polygon points="144,385.8190255220418 177.1416732823455,401.5703974942945 187.97354666546323,438.03667507218273 155.14406726689413,451.14089412454706 132.3123196956964,452.2697182281835 56.25648790363587,448.0268840560683 83.10421608711889,379.4372328343441" fill="#58a6ff" fill-opacity="0.2" stroke="#58a6ff" stroke-width="2" stroke-opacity="0.8" class="fade-2" style="transform-origin: 144px 428px"/><circle cx="144" cy="385.8190255220418" r="3" fill="#58a6ff" class="fade-1"/><circle cx="177.1416732823455" cy="401.5703974942945" r="3" fill="#58a6ff" class="fade-2"/><circle cx="187.97354666546323" cy="438.03667507218273" r="3" fill="#58a6ff" class="fade-3"/><circle cx="155.14406726689413" cy="451.14089412454706" r="3" fill="#58a6ff" class="fade-4"/><circle cx="132.3123196956964" cy="452.2697182281835" r="3" fill="#58a6ff" class="fade-5"/><circle cx="56.25648790363587" cy="448.0268840560683" r="3" fill="#58a6ff" class="fade-6"/><circle cx="83.10421608711889" cy="379.4372328343441" r="3" fill="#58a6ff" class="fade-6"/><text x="144" y="326" class="t t-value" text-anchor="middle">Sun</text><text x="226.87413714161116" y="365.91008100297427" class="t t-value" text-anchor="middle">Mon</text><text x="247.34235869127332" y="455.5872189993693" class="t t-value" text-anchor="middle">Tue</text><text x="189.99167634646116" y="527.5026999976565" class="t t-value" text-anchor="middle">Wed</text><text x="98.00832365353884" y="527.5026999976565" class="t t-value" text-anchor="middle">Thu</text><text x="40.657641308726696" y="455.5872189993693" class="t t-value" text-anchor="middle">Fri</text><text x="61.12586285838883" y="365.91008100297427" class="t t-value" text-anchor="middle">Sat</text><text x="324" y="338" class="t t-stat-label">COMMITS</text><text x="324" y="360" fill="#58a6ff" class="t t-stat-value">1,555</text><text x="324" y="380" class="t t-stat-label">PRS</text><text x="324" y="402" fill="#3fb950" class="t t-stat-value">4</text><text x="324" y="422" class="t t-stat-label">REVIEWS</text><text x="324" y="444" fill="#d29922" class="t t-stat-value">5</text><text x="324" y="464" class="t t-stat-label">REPOS</text><text x="324" y="486" fill="#bc8cff" class="t t-stat-value">24</text><text x="324" y="506" class="t t-stat-label">STREAK</text><text x="324" y="528" fill="#39d2c0" class="t t-stat-value">15d</text><text x="24" y="614" class="t t-h">PROJECT CONSTELLATION</text><text x="24" y="630" class="t t-sub">Projects mapped by language ecosystem and complexity</text><line x1="103.2" y1="670" x2="487.2" y2="733.8187240187976" stroke="#30363d" stroke-width="1" stroke-opacity="0.15" stroke-dasharray="4 4"/><line x1="103.2" y1="670" x2="116" y2="739.2175971615399" stroke="#30363d" stroke-width="1" stroke-opacity="0.15" stroke-dasharray="4 4"/><line x1="103.2" y1="670" x2="679.2" y2="748.6935696393033" stroke="#30363d" stroke-width="1" stroke-opacity="0.15" stroke-dasharray="4 4"/><line x1="103.2" y1="670" x2="128.8" y2="809.718720618188" stroke="#30363d" stroke-width="1" stroke-opacity="0.15" stroke-dasharray="4 4"/><line x1="103.2" y1="670" x2="564" y2="815.6862571777378" stroke="#30363d" stroke-width="1" stroke-opacity="0.15" stroke-dasharray="4 4"/><line x1="103.2" y1="670" x2="692" y2="820.401894544018" stroke="#30363d" stroke-width="1" stroke-opacity="0.15" stroke-dasharray="4 4"/><line x1="103.2" y1="670" x2="492.32" y2="828.6566933347326" stroke="#30363d" stroke-width="1" stroke-opacity="0.15" stroke-dasharray="4 4"/><line x1="103.2" y1="670" x2="497.44" y2="844.1155785446964" stroke="#30363d" stroke-width="1" stroke-opacity="0.15" stroke-dasharray="4 4"/><line x1="103.2" y1="670" x2="431.73333333333335" y2="862.3717059989071" stroke="#30363d" stroke-width="1" stroke-opacity="0.15" stroke-dasharray="4 4"/><line x1="103.2" y1="670" x2="502.56" y2="864.3865028601479" stroke="#30363d" stroke-width="1" stroke-opacity="0.15" stroke-dasharray="4 4"/><line x1="103.2" y1="670" x2="507.68" y2="874.2369313426357" stroke="#30363d" stroke-width="1" stroke-opacity="0.15" stroke-dasharray="4 4"/><line x1="103.2" y1="670" x2="512.8" y2="907.8261938559699" stroke="#30363d" stroke-width="1" stroke-opacity="0.15" stroke-dasharray="4 4"/><line x1="103.2" y1="670" x2="628" y2="919.4622744803896" stroke="#30363d" stroke-width="1" stroke-opacity="0.15" stroke-dasharray="4 4"/><line x1="295.2" y1="712.3839054863545" x2="423.2" y2="759.2481989664966" stroke="#30363d" stroke-width="1" stroke-opacity="0.15" stroke-dasharray="4 4"/><line x1="295.2" y1="712.3839054863545" x2="692" y2="820.401894544018" stroke="#30363d" stroke-width="1" stroke-opacity="0.15" stroke-dasharray="4 4"/><line x1="295.2" y1="712.3839054863545" x2="320.8" y2="833.1236114275885" stroke="#30363d" stroke-width="1" stroke-opacity="0.15" stroke-dasharray="4 4"/><line x1="295.2" y1="712.3839054863545" x2="431.73333333333335" y2="862.3717059989071" stroke="#30363d" stroke-width="1" stroke-opacity="0.15" stroke-dasharray="4 4"/><line x1="487.2" y1="733.8187240187976" x2="116" y2="739.2175971615399" stroke="#30363d" stroke-width="1" stroke-opacity="0.15" stroke-dasharray="4 4"/><line x1="487.2" y1="733.8187240187976" x2="128.8" y2="809.718720618188" stroke="#30363d" stroke-width="1" stroke-opacity="0.15" stroke-dasharray="4 4"/><line x1="487.2" y1="733.8187240187976" x2="564" y2="815.6862571777378" stroke="#30363d" stroke-width="1" stroke-opacity="0.15" stroke-dasharray="4 4"/><line x1="487.2" y1="733.8187240187976" x2="692" y2="820.401894544018" stroke="#30363d" stroke-width="1" stroke-opacity="0.15" stroke-dasharray="4 4"/><line x1="487.2" y1="733.8187240187976" x2="492.32" y2="828.6566933347326" stroke="#30363d" stroke-width="1" stroke-opacity="0.15" stroke-dasharray="4 4"/><line x1="487.2" y1="733.8187240187976" x2="497.44" y2="844.1155785446964" stroke="#30363d" stroke-width="1" stroke-opacity="0.15" stroke-dasharray="4 4"/><line x1="487.2" y1="733.8187240187976" x2="502.56" y2="864.3865028601479" stroke="#30363d" stroke-width="1" stroke-opacity="0.15" stroke-dasharray="4 4"/><line x1="487.2" y1="733.8187240187976" x2="507.68" y2="874.2369313426357" stroke="#30363d" stroke-width="1" stroke-opacity="0.15" stroke-dasharray="4 4"/><line x1="487.2" y1="733.8187240187976" x2="512.8" y2="907.8261938559699" stroke="#30363d" stroke-width="1" stroke-opacity="0.15" stroke-dasharray="4 4"/><line x1="116" y1="739.2175971615399" x2="128.8" y2="809.718720618188" stroke="#30363d" stroke-width="1" stroke-opacity="0.15" stroke-dasharray="4 4"/><line x1="116" y1="739.2175971615399" x2="564" y2="815.6862571777378" stroke="#30363d" stroke-width="1" stroke-opacity="0.15" stroke-dasharray="4 4"/><line x1="116" y1="739.2175971615399" x2="692" y2="820.401894544018" stroke="#30363d" stroke-width="1" stroke-opacity="0.15" stroke-dasharray="4 4"/><line x1="116" y1="739.2175971615399" x2="492.32" y2="828.6566933347326" stroke="#30363d" stroke-width="1" stroke-opacity="0.15" stroke-dasharray="4 4"/><line x1="116" y1="739.2175971615399" x2="497.44" y2="844.1155785446964" stroke="#30363d" stroke-width="1" stroke-opacity="0.15" stroke-dasharray="4 4"/><line x1="116" y1="739.2175971615399" x2="502.56" y2="864.3865028601479" stroke="#30363d" stroke-width="1" stroke-opacity="0.15" stroke-dasharray="4 4"/><line x1="116" y1="739.2175971615399" x2="507.68" y2="874.2369313426357" stroke="#30363d" stroke-width="1" stroke-opacity="0.15" stroke-dasharray="4 4"/><line x1="116" y1="739.2175971615399" x2="512.8" y2="907.8261938559699" stroke="#30363d" stroke-width="1" stroke-opacity="0.15" stroke-dasharray="4 4"/><line x1="679.2" y1="748.6935696393033" x2="692" y2="820.401894544018" stroke="#30363d" stroke-width="1" stroke-opacity="0.15" stroke-dasharray="4 4"/><line x1="679.2" y1="748.6935696393033" x2="492.32" y2="828.6566933347326" stroke="#30363d" stroke-width="1" stroke-opacity="0.15" stroke-dasharray="4 4"/><line x1="679.2" y1="748.6935696393033" x2="244" y2="907.1331708024502" stroke="#30363d" stroke-width="1" stroke-opacity="0.15" stroke-dasharray="4 4"/><line x1="423.2" y1="759.2481989664966" x2="692" y2="820.401894544018" stroke="#30363d" stroke-width="1" stroke-opacity="0.15" stroke-dasharray="4 4"/><line x1="423.2" y1="759.2481989664966" x2="320.8" y2="833.1236114275885" stroke="#30363d" stroke-width="1" stroke-opacity="0.15" stroke-dasharray="4 4"/><line x1="423.2" y1="759.2481989664966" x2="431.73333333333335" y2="862.3717059989071" stroke="#30363d" stroke-width="1" stroke-opacity="0.15" stroke-dasharray="4 4"/><line x1="128.8" y1="809.718720618188" x2="564" y2="815.6862571777378" stroke="#30363d" stroke-width="1" stroke-opacity="0.15" stroke-dasharray="4 4"/><line x1="128.8" y1="809.718720618188" x2="692" y2="820.401894544018" stroke="#30363d" stroke-width="1" stroke-opacity="0.15" stroke-dasharray="4 4"/><line x1="128.8" y1="809.718720618188" x2="492.32" y2="828.6566933347326" stroke="#30363d" stroke-width="1" stroke-opacity="0.15" stroke-dasharray="4 4"/><line x1="128.8" y1="809.718720618188" x2="497.44" y2="844.1155785446964" stroke="#30363d" stroke-width="1" stroke-opacity="0.15" stroke-dasharray="4 4"/><line x1="128.8" y1="809.718720618188" x2="502.56" y2="864.3865028601479" stroke="#30363d" stroke-width="1" stroke-opacity="0.15" stroke-dasharray="4 4"/><line x1="128.8" y1="809.718720618188" x2="507.68" y2="874.2369313426357" stroke="#30363d" stroke-width="1" stroke-opacity="0.15" stroke-dasharray="4 4"/><line x1="128.8" y1="809.718720618188" x2="512.8" y2="907.8261938559699" stroke="#30363d" stroke-width="1" stroke-opacity="0.15" stroke-dasharray="4 4"/><line x1="564" y1="815.6862571777378" x2="692" y2="820.401894544018" stroke="#30363d" stroke-width="1" stroke-opacity="0.15" stroke-dasharray="4 4"/><line x1="564" y1="815.6862571777378" x2="492.32" y2="828.6566933347326" stroke="#30363d" stroke-width="1" stroke-opacity="0.15" stroke-dasharray="4 4"/><line x1="564" y1="815.6862571777378" x2="497.44" y2="844.1155785446964" stroke="#30363d" stroke-width="1" stroke-opacity="0.15" stroke-dasharray="4 4"/><line x1="564" y1="815.6862571777378" x2="502.56" y2="864.3865028601479" stroke="#30363d" stroke-width="1" stroke-opacity="0.15" stroke-dasharray="4 4"/><line x1="564" y1="815.6862571777378" x2="507.68" y2="874.2369313426357" stroke="#30363d" stroke-width="1" stroke-opacity="0.15" stroke-dasharray="4 4"/><line x1="564" y1="815.6862571777378" x2="192.8" y2="883.5228813702405" stroke="#30363d" stroke-width="1" stroke-opacity="0.15" stroke-dasharray="4 4"/><line x1="564" y1="815.6862571777378" x2="512.8" y2="907.8261938559699" stroke="#30363d" stroke-width="1" stroke-opacity="0.15" stroke-dasharray="4 4"/><line x1="692" y1="820.401894544018" x2="492.32" y2="828.6566933347326" stroke="#30363d" stroke-width="1" stroke-opacity="0.15" stroke-dasharray="4 4"/><line x1="692" y1="820.401894544018" x2="320.8" y2="833.1236114275885" stroke="#30363d" stroke-width="1" stroke-opacity="0.15" stroke-dasharray="4 4"/><line x1="692" y1="820.401894544018" x2="497.44" y2="844.1155785446964" stroke="#30363d" stroke-width="1" stroke-opacity="0.15" stroke-dasharray="4 4"/><line x1="692" y1="820.401894544018" x2="431.73333333333335" y2="862.3717059989071" stroke="#30363d" stroke-width="1" stroke-opacity="0.15" stroke-dasharray="4 4"/><line x1="692" y1="820.401894544018" x2="502.56" y2="864.3865028601479" stroke="#30363d" stroke-width="1" stroke-opacity="0.15" stroke-dasharray="4 4"/><line x1="692" y1="820.401894544018" x2="507.68" y2="874.2369313426357" stroke="#30363d" stroke-width="1" stroke-opacity="0.15" stroke-dasharray="4 4"/><line x1="692" y1="820.401894544018" x2="440.26666666666665" y2="886.4626404521064" stroke="#30363d" stroke-width="1" stroke-opacity="0.15" stroke-dasharray="4 4"/><line x1="692" y1="820.401894544018" x2="704.8" y2="889.078243589584" stroke="#30363d" stroke-width="1" stroke-opacity="0.15" stroke-dasharray="4 4"/><line x1="692" y1="820.401894544018" x2="244" y2="907.1331708024502" stroke="#30363d" stroke-width="1" stroke-opacity="0.15" stroke-dasharray="4 4"/><line x1="692" y1="820.401894544018" x2="512.8" y2="907.8261938559699" stroke="#30363d" stroke-width="1" stroke-opacity="0.15" stroke-dasharray="4 4"/><line x1="492.32" y1="828.6566933347326" x2="497.44" y2="844.1155785446964" stroke="#30363d" stroke-width="1" stroke-opacity="0.15" stroke-dasharray="4 4"/><line x1="492.32" y1="828.6566933347326" x2="502.56" y2="864.3865028601479" stroke="#30363d" stroke-width="1" stroke-opacity="0.15" stroke-dasharray="4 4"/><line x1="492.32" y1="828.6566933347326" x2="507.68" y2="874.2369313426357" stroke="#30363d" stroke-width="1" stroke-opacity="0.15" stroke-dasharray="4 4"/><line x1="492.32" y1="828.6566933347326" x2="512.8" y2="907.8261938559699" stroke="#30363d" stroke-width="1" stroke-opacity="0.15" stroke-dasharray="4 4"/><line x1="320.8" y1="833.1236114275885" x2="431.73333333333335" y2="862.3717059989071" stroke="#30363d" stroke-width="1" stroke-opacity="0.15" stroke-dasharray="4 4"/><line x1="497.44" y1="844.1155785446964" x2="502.56" y2="864.3865028601479" stroke="#30363d" stroke-width="1" stroke-opacity="0.15" stroke-dasharray="4 4"/><line x1="497.44" y1="844.1155785446964" x2="507.68" y2="874.2369313426357" stroke="#30363d" stroke-width="1" stroke-opacity="0.15" stroke-dasharray="4 4"/><line x1="497.44" y1="844.1155785446964" x2="512.8" y2="907.8261938559699" stroke="#30363d" stroke-width="1" stroke-opacity="0.15" stroke-dasharray="4 4"/><line x1="431.73333333333335" y1="862.3717059989071" x2="628" y2="919.4622744803896" stroke="#30363d" stroke-width="1" stroke-opacity="0.15" stroke-dasharray="4 4"/><line x1="502.56" y1="864.3865028601479" x2="507.68" y2="874.2369313426357" stroke="#30363d" stroke-width="1" stroke-opacity="0.15" stroke-dasharray="4 4"/><line x1="502.56" y1="864.3865028601479" x2="512.8" y2="907.8261938559699" stroke="#30363d" stroke-width="1" stroke-opacity="0.15" stroke-dasharray="4 4"/><line x1="507.68" y1="874.2369313426357" x2="512.8" y2="907.8261938559699" stroke="#30363d" stroke-width="1" stroke-opacity="0.15" stroke-dasharray="4 4"/><circle cx="103.2" cy="670" r="26" fill="#00ADD8" fill-opacity="0.08" class="fade-1"/><circle cx="103.2" cy="670" r="22" fill="#00ADD8" fill-opacity="0.7" stroke="#00ADD8" stroke-width="1.5" stroke-opacity="0.9" class="fade-1"/><text x="103.2" y="706" class="t t-value fade-1" text-anchor="middle">incipit</text><circle cx="295.2" cy="712.3839054863545" r="26" fill="#DA5B0B" fill-opacity="0.08" class="fade-2"/><circle cx="295.2" cy="712.3839054863545" r="22" fill="#DA5B0B" fill-opacity="0.7" stroke="#DA5B0B" stroke-width="1.5" stroke-opacity="0.9" class="fade-2"/><text x="295.2" y="748.3839054863545" class="t t-value fade-2" text-anchor="middle">lepus-classifier</text><circle cx="487.2" cy="733.8187240187976" r="26" fill="#dea584" fill-opacity="0.08" class="fade-3"/><circle cx="487.2" cy="733.8187240187976" r="22" fill="#dea584" fill-opacity="0.7" stroke="#dea584" stroke-width="1.5" stroke-opacity="0.9" class="fade-3"/><text x="487.2" y="769.8187240187976" class="t t-value fade-3" text-anchor="middle">linear-gp</text><circle cx="116" cy="739.2175971615399" r="26" fill="#00ADD8" fill-opacity="0.08" class="fade-4"/><circle cx="116" cy="739.2175971615399" r="22" fill="#00ADD8" fill-opacity="0.7" stroke="#00ADD8" stroke-width="1.5" stroke-opacity="0.9" class="fade-4"/><text x="116" y="775.2175971615399" class="t t-value fade-4" text-anchor="middle">zigbee-rest</text><circle cx="679.2" cy="748.6935696393033" r="26" fill="#3178c6" fill-opacity="0.08" class="fade-5"/><circle cx="679.2" cy="748.6935696393033" r="22" fill="#3178c6" fill-opacity="0.7" stroke="#3178c6" stroke-width="1.5" stroke-opacity="0.9" class="fade-5"/><text x="679.2" y="784.6935696393033" class="t t-value fade-5" text-anchor="middle">urmzd.com</text><circle cx="423.2" cy="759.2481989664966" r="26" fill="#3572A5" fill-opacity="0.08" class="fade-6"/><circle cx="423.2" cy="759.2481989664966" r="22" fill="#3572A5" fill-opacity="0.7" stroke="#3572A5" stroke-width="1.5" stroke-opacity="0.9" class="fade-6"/><text x="423.2" y="795.2481989664966" class="t t-value fade-6" text-anchor="middle">exp-agi-models</text><circle cx="128.8" cy="809.718720618188" r="24.33699101850862" fill="#00ADD8" fill-opacity="0.08" class="fade-6"/><circle cx="128.8" cy="809.718720618188" r="20.33699101850862" fill="#00ADD8" fill-opacity="0.7" stroke="#00ADD8" stroke-width="1.5" stroke-opacity="0.9" class="fade-6"/><text x="128.8" y="844.0557116366965" class="t t-value fade-6" text-anchor="middle">saige</text><circle cx="564" cy="815.6862571777378" r="21.675715564635794" fill="#89e051" fill-opacity="0.08" class="fade-6"/><circle cx="564" cy="815.6862571777378" r="17.675715564635794" fill="#89e051" fill-opacity="0.7" stroke="#89e051" stroke-width="1.5" stroke-opacity="0.9" class="fade-6"/><text x="564" y="847.3619727423736" class="t t-value fade-6" text-anchor="middle">dotfiles</text><circle cx="692" cy="820.401894544018" r="15.061182065019677" fill="#3178c6" fill-opacity="0.08" class="fade-6"/><circle cx="692" cy="820.401894544018" r="11.061182065019677" fill="#3178c6" fill-opacity="0.7" stroke="#3178c6" stroke-width="1.5" stroke-opacity="0.9" class="fade-6"/><text x="692" y="845.4630766090377" class="t t-value fade-6" text-anchor="middle">zoro</text><circle cx="492.32" cy="828.6566933347326" r="26" fill="#dea584" fill-opacity="0.08" class="fade-6"/><circle cx="492.32" cy="828.6566933347326" r="22" fill="#dea584" fill-opacity="0.7" stroke="#dea584" stroke-width="1.5" stroke-opacity="0.9" class="fade-6"/><text x="492.32" y="864.6566933347326" class="t t-value fade-6" text-anchor="middle">teasr</text><circle cx="320.8" cy="833.1236114275885" r="25.36863924926572" fill="#DA5B0B" fill-opacity="0.08" class="fade-6"/><circle cx="320.8" cy="833.1236114275885" r="21.36863924926572" fill="#DA5B0B" fill-opacity="0.7" stroke="#DA5B0B" stroke-width="1.5" stroke-opacity="0.9" class="fade-6"/><text x="320.8" y="868.4922506768542" class="t t-value fade-6" text-anchor="middle">md-classifier</text><circle cx="497.44" cy="844.1155785446964" r="20.751279260918498" fill="#dea584" fill-opacity="0.08" class="fade-6"/><circle cx="497.44" cy="844.1155785446964" r="16.751279260918498" fill="#dea584" fill-opacity="0.7" stroke="#dea584" stroke-width="1.5" stroke-opacity="0.9" class="fade-6"/><text x="497.44" y="874.8668578056149" class="t t-value fade-6" text-anchor="middle">oag</text><circle cx="431.73333333333335" cy="862.3717059989071" r="25.46688344753587" fill="#3572A5" fill-opacity="0.08" class="fade-6"/><circle cx="431.73333333333335" cy="862.3717059989071" r="21.46688344753587" fill="#3572A5" fill-opacity="0.7" stroke="#3572A5" stroke-width="1.5" stroke-opacity="0.9" class="fade-6"/><text x="431.73333333333335" y="897.838589446443" class="t t-value fade-6" text-anchor="middle">languide</text><circle cx="502.56" cy="864.3865028601479" r="18.06118206501968" fill="#dea584" fill-opacity="0.08" class="fade-6"/><circle cx="502.56" cy="864.3865028601479" r="14.061182065019677" fill="#dea584" fill-opacity="0.7" stroke="#dea584" stroke-width="1.5" stroke-opacity="0.9" class="fade-6"/><text x="502.56" y="892.4476849251676" class="t t-value fade-6" text-anchor="middle">sr</text><circle cx="167.2" cy="869.3117686484829" r="24.861890796612347" fill="#b07219" fill-opacity="0.08" class="fade-6"/><circle cx="167.2" cy="869.3117686484829" r="20.861890796612347" fill="#b07219" fill-opacity="0.7" stroke="#b07219" stroke-width="1.5" stroke-opacity="0.9" class="fade-6"/><text x="167.2" y="904.1736594450953" class="t t-value fade-6" text-anchor="middle">flappy-bird</text><circle cx="507.68" cy="874.2369313426357" r="12.0746024947576" fill="#dea584" fill-opacity="0.08" class="fade-6"/><circle cx="507.68" cy="874.2369313426357" r="8.0746024947576" fill="#dea584" fill-opacity="0.7" stroke="#dea584" stroke-width="1.5" stroke-opacity="0.9" class="fade-6"/><text x="507.68" y="896.3115338373933" class="t t-value fade-6" text-anchor="middle">embed-src</text><circle cx="192.8" cy="883.5228813702405" r="14.637905107315877" fill="#b07219" fill-opacity="0.08" class="fade-6"/><circle cx="192.8" cy="883.5228813702405" r="10.637905107315877" fill="#b07219" fill-opacity="0.7" stroke="#b07219" stroke-width="1.5" stroke-opacity="0.9" class="fade-6"/><text x="192.8" y="908.1607864775564" class="t t-value fade-6" text-anchor="middle">barter-trader</text><circle cx="440.26666666666665" cy="886.4626404521064" r="14.425254648846348" fill="#3572A5" fill-opacity="0.08" class="fade-6"/><circle cx="440.26666666666665" cy="886.4626404521064" r="10.425254648846348" fill="#3572A5" fill-opacity="0.7" stroke="#3572A5" stroke-width="1.5" stroke-opacity="0.9" class="fade-6"/><text x="440.26666666666665" y="910.8878951009527" class="t t-value fade-6" text-anchor="middle">chess-cli</text><circle cx="704.8" cy="889.078243589584" r="25.862860132336202" fill="#3178c6" fill-opacity="0.08" class="fade-6"/><circle cx="704.8" cy="889.078243589584" r="21.862860132336202" fill="#3178c6" fill-opacity="0.7" stroke="#3178c6" stroke-width="1.5" stroke-opacity="0.9" class="fade-6"/><text x="704.8" y="924.9411037219202" class="t t-value fade-6" text-anchor="middle">github-insights</text><circle cx="244" cy="907.1331708024502" r="12.127871907170075" fill="#f1e05a" fill-opacity="0.08" class="fade-6"/><circle cx="244" cy="907.1331708024502" r="8.127871907170075" fill="#f1e05a" fill-opacity="0.7" stroke="#f1e05a" stroke-width="1.5" stroke-opacity="0.9" class="fade-6"/><text x="244" y="929.2610427096203" class="t t-value fade-6" text-anchor="middle">cypress-name-too-…</text><circle cx="512.8" cy="907.8261938559699" r="10" fill="#dea584" fill-opacity="0.08" class="fade-6"/><circle cx="512.8" cy="907.8261938559699" r="6" fill="#dea584" fill-opacity="0.7" stroke="#dea584" stroke-width="1.5" stroke-opacity="0.9" class="fade-6"/><text x="512.8" y="927.8261938559699" class="t t-value fade-6" text-anchor="middle">gitit</text><circle cx="448.8" cy="916.2570428578609" r="10" fill="#3572A5" fill-opacity="0.08" class="fade-6"/><circle cx="448.8" cy="916.2570428578609" r="6" fill="#3572A5" fill-opacity="0.7" stroke="#3572A5" stroke-width="1.5" stroke-opacity="0.9" class="fade-6"/><text x="448.8" y="936.2570428578609" class="t t-value fade-6" text-anchor="middle">lightning-kfold</text><circle cx="628" cy="919.4622744803896" r="17.114676587835888" fill="#3D6117" fill-opacity="0.08" class="fade-6"/><circle cx="628" cy="919.4622744803896" r="13.11467658783589" fill="#3D6117" fill-opacity="0.7" stroke="#3D6117" stroke-width="1.5" stroke-opacity="0.9" class="fade-6"/><text x="628" y="946.5769510682255" class="t t-value fade-6" text-anchor="middle">rlgp-thesis</text><circle cx="372" cy="950" r="12.38480698841061" fill="#8b949e" fill-opacity="0.08" class="fade-6"/><circle cx="372" cy="950" r="8.38480698841061" fill="#8b949e" fill-opacity="0.7" stroke="#8b949e" stroke-width="1.5" stroke-opacity="0.9" class="fade-6"/><text x="372" y="972.3848069884106" class="t t-value fade-6" text-anchor="middle">urmzd</text><text x="24" y="1076" class="t t-h">OPEN SOURCE IMPACT</text><text x="24" y="1092" class="t t-sub">External repositories contributed to</text><text x="24" y="1131" class="t t-card-title fade-1">getzep/graphiti</text><rect x="304" y="1121" width="400" height="12" rx="3" fill="#58a6ff" fill-opacity="0.7" class="fade-1"/><text x="720" y="1131" class="t t-value fade-1">★ 24,208</text><text x="24" y="1145" class="t t-value fade-1">Python</text><text x="24" y="1187" class="t t-card-title fade-2">googleapis/python-aiplatform</text><rect x="304" y="1177" width="268.38749683135404" height="12" rx="3" fill="#3fb950" fill-opacity="0.7" class="fade-2"/><text x="720" y="1187" class="t t-value fade-2">★ 873</text><text x="24" y="1201" class="t t-value fade-2">Python</text><text x="24" y="1243" class="t t-card-title fade-3">MathisWellmann/gym-rs</text><rect x="304" y="1233" width="192.26469860950434" height="12" rx="3" fill="#d29922" fill-opacity="0.7" class="fade-3"/><text x="720" y="1243" class="t t-value fade-3">★ 127</text><text x="24" y="1257" class="t t-value fade-3">Rust</text></svg>