<svg xmlns="http://www.w3.org/2000/svg" width="808" height="1286" viewBox="0 0 808 1286"><defs><style>
  .t { font-family: -apple-system,BlinkMacSystemFont,Segoe UI,Helvetica,Arial,sans-serif; font-variant-numeric: tabular-lining; }
  .t-h { font-size: 14px; fill: #c9d1d9; letter-spacing: 2px; font-weight: 600; }
  .t-sub { font-size: 11px; fill: #6e7681; }
  .t-label { font-size: 12px; fill: #8b949e; }
  .t-value { font-size: 11px; fill: #6e7681; }
  .t-subhdr { font-size: 11px; fill: #8b949e; letter-spacing: 1px; font-weight: 600; }
  .t-stat-label { font-size: 10px; fill: #8b949e; font-weight: 600; }
  .t-stat-value { font-size: 22px; font-weight: 700; }
  .t-card-title { font-size: 12px; fill: #58a6ff; font-weight: 700; }
  .t-card-detail { font-size: 11px; fill: #8b949e; }
  .t-pill { font-size: 11px; font-weight: 600; }
  .t-bullet { font-size: 12px; fill: #c9d1d9; }
  .bg-fill { fill: #0d1117; }
  .card-fill { fill: #161b22; }
  .border-stroke { stroke: #30363d; }

  @media (prefers-color-scheme: light) {
    .bg-fill { fill: #ffffff; }
    .card-fill { fill: #f6f8fa; }
    .border-stroke { stroke: #d0d7de; }
    .t-h { fill: #1f2328; }
    .t-sub { fill: #656d76; }
    .t-label { fill: #656d76; }
    .t-value { fill: #656d76; }
    .t-subhdr { fill: #656d76; }
    .t-stat-label { fill: #656d76; }
    .t-card-title { fill: #0969da; }
    .t-card-detail { fill: #656d76; }
    .t-bullet { fill: #1f2328; }
  }

  @keyframes fadeIn {
    from { opacity: 0; transform: translateY(8px); }
    to { opacity: 1; transform: translateY(0); }
  }
  @keyframes scaleIn {
    from { transform: scale(0); opacity: 0; }
    to { transform: scale(1); opacity: 1; }
  }
  @keyframes drawPath {
    from { stroke-dashoffset: var(--path-length); }
    to { stroke-dashoffset: 0; }
  }
  @keyframes radarReveal {
    from { transform: scale(0); opacity: 0; }
    to { transform: scale(1); opacity: 0.6; }
  }
  .fade-1 { animation: fadeIn 0.6s ease-out 0.1s both; }
  .fade-2 { animation: fadeIn 0.6s ease-out 0.25s both; }
  .fade-3 { animation: fadeIn 0.6s ease-out 0.4s both; }
  .fade-4 { animation: fadeIn 0.6s ease-out 0.55s both; }
  .fade-5 { animation: fadeIn 0.6s ease-out 0.7s both; }
  .fade-6 { animation: fadeIn 0.6s ease-out 0.85s both; }
</style></defs><rect width="808" height="1286" rx="12" class="bg-fill" fill="#0d1117"/><text x="24" y="40" class="t t-h">LANGUAGE VELOCITY</text><text x="24" y="56" class="t t-sub">How language usage has evolved over the past year</text><path d="M 24,206 C 55.66666666666667,206 55.66666666666667,206 87.33333333333334,206 C 119.00000000000001,206 119.00000000000001,205.3913043478261 150.66666666666669,205.3913043478261 C 182.33333333333334,205.3913043478261 182.33333333333334,204.7826086956522 214,204.7826086956522 C 245.66666666666669,204.7826086956522 245.66666666666669,205.59420289855072 277.33333333333337,205.59420289855072 C 309,205.59420289855072 309,206 340.6666666666667,206 C 372.33333333333337,206 372.33333333333337,198.08695652173913 404,198.08695652173913 C 435.6666666666667,198.08695652173913 435.6666666666667,204.57971014492753 467.33333333333337,204.57971014492753 C 499.00000000000006,204.57971014492753 499.00000000000006,199.91304347826087 530.6666666666667,199.91304347826087 C 562.3333333333334,199.91304347826087 562.3333333333334,204.7826086956522 594,204.7826086956522 C 625.6666666666667,204.7826086956522 625.6666666666667,167.04347826086956 657.3333333333334,167.04347826086956 C 689,167.04347826086956 689,109.21739130434783 720.6666666666667,109.21739130434783 C 752.3333333333334,109.21739130434783 752.3333333333334,66 784,66 L 784,67.01449275362319 C 752.3333333333334,67.01449275362319 752.3333333333334,110.02898550724638 720.6666666666667,110.02898550724638 C 689,110.02898550724638 689,167.2463768115942 657.3333333333334,167.2463768115942 C 625.6666666666667,167.2463768115942 625.6666666666667,204.7826086956522 594,204.7826086956522 C 562.3333333333334,204.7826086956522 562.3333333333334,199.91304347826087 530.6666666666667,199.91304347826087 C 499.00000000000006,199.91304347826087 499.00000000000006,204.57971014492753 467.33333333333337,204.57971014492753 C 435.6666666666667,204.57971014492753 435.6666666666667,198.08695652173913 404,198.08695652173913 C 372.33333333333337,198.08695652173913 372.33333333333337,206 340.6666666666667,206 C 309,206 309,205.59420289855072 277.33333333333337,205.59420289855072 C 245.66666666666669,205.59420289855072 245.66666666666669,204.7826086956522 214,204.7826086956522 C 182.33333333333334,204.7826086956522 182.33333333333334,205.3913043478261 150.66666666666669,205.3913043478261 C 119.00000000000001,205.3913043478261 119.00000000000001,206 87.33333333333334,206 C 55.66666666666667,206 55.66666666666667,206 24,206 Z" fill="#DA5B0B" fill-opacity="0.75" class="fade-1"/><path d="M 24,206 C 55.66666666666667,206 55.66666666666667,206 87.33333333333334,206 C 119.00000000000001,206 119.00000000000001,205.3913043478261 150.66666666666669,205.3913043478261 C 182.33333333333334,205.3913043478261 182.33333333333334,204.7826086956522 214,204.7826086956522 C 245.66666666666669,204.7826086956522 245.66666666666669,205.59420289855072 277.33333333333337,205.59420289855072 C 309,205.59420289855072 309,206 340.6666666666667,206 C 372.33333333333337,206 372.33333333333337,198.08695652173913 404,198.08695652173913 C 435.6666666666667,198.08695652173913 435.6666666666667,204.57971014492753 467.33333333333337,204.57971014492753 C 499.00000000000006,204.57971014492753 499.00000000000006,199.91304347826087 530.6666666666667,199.91304347826087 C 562.3333333333334,199.91304347826087 562.3333333333334,204.7826086956522 594,204.7826086956522 C 625.6666666666667,204.7826086956522 625.6666666666667,167.2463768115942 657.3333333333334,167.2463768115942 C 689,167.2463768115942 689,110.02898550724638 720.6666666666667,110.02898550724638 C 752.3333333333334,110.02898550724638 752.3333333333334,67.01449275362319 784,67.01449275362319 L 784,72.08695652173913 C 752.3333333333334,72.08695652173913 752.3333333333334,113.47826086956522 720.6666666666667,113.47826086956522 C 689,113.47826086956522 689,168.66666666666666 657.3333333333334,168.66666666666666 C 625.6666666666667,168.66666666666666 625.6666666666667,204.7826086956522 594,204.7826086956522 C 562.3333333333334,204.7826086956522 562.3333333333334,200.1159420289855 530.6666666666667,200.1159420289855 C 499.00000000000006,200.1159420289855 499.00000000000006,204.57971014492753 467.33333333333337,204.57971014492753 C 435.6666666666667,204.57971014492753 435.6666666666667,198.28985507246378 404,198.28985507246378 C 372.33333333333337,198.28985507246378 372.33333333333337,206 340.6666666666667,206 C 309,206 309,205.59420289855072 277.33333333333337,205.59420289855072 C 245.66666666666669,205.59420289855072 245.66666666666669,204.7826086956522 214,204.7826086956522 C 182.33333333333334,204.7826086956522 182.33333333333334,205.3913043478261 150.66666666666669,205.3913043478261 C 119.00000000000001,205.3913043478261 119.00000000000001,206 87.33333333333334,206 C 55.66666666666667,206 55.66666666666667,206 24,206 Z" fill="#b07219" fill-opacity="0.75" class="fade-2"/><path d="M 24,206 C 55.66666666666667,206 55.66666666666667,206 87.33333333333334,206 C 119.00000000000001,206 119.00000000000001,205.3913043478261 150.66666666666669,205.3913043478261 C 182.33333333333334,205.3913043478261 182.33333333333334,204.7826086956522 214,204.7826086956522 C 245.66666666666669,204.7826086956522 245.66666666666669,205.59420289855072 277.33333333333337,205.59420289855072 C 309,205.59420289855072 309,206 340.6666666666667,206 C 372.33333333333337,206 372.33333333333337,198.28985507246378 404,198.28985507246378 C 435.6666666666667,198.28985507246378 435.6666666666667,204.57971014492753 467.33333333333337,204.57971014492753 C 499.00000000000006,204.57971014492753 499.00000000000006,200.1159420289855 530.6666666666667,200.1159420289855 C 562.3333333333334,200.1159420289855 562.3333333333334,204.7826086956522 594,204.7826086956522 C 625.6666666666667,204.7826086956522 625.6666666666667,168.66666666666666 657.3333333333334,168.66666666666666 C 689,168.66666666666666 689,113.47826086956522 720.6666666666667,113.47826086956522 C 752.3333333333334,113.47826086956522 752.3333333333334,72.08695652173913 784,72.08695652173913 L 784,85.47826086956522 C 752.3333333333334,85.47826086956522 752.3333333333334,122.81159420289856 720.6666666666667,122.81159420289856 C 689,122.81159420289856 689,172.31884057971013 657.3333333333334,172.31884057971013 C 625.6666666666667,172.31884057971013 625.6666666666667,204.9855072463768 594,204.9855072463768 C 562.3333333333334,204.9855072463768 562.3333333333334,200.7246376811594 530.6666666666667,200.7246376811594 C 499.00000000000006,200.7246376811594 499.00000000000006,204.7826086956522 467.33333333333337,204.7826086956522 C 435.6666666666667,204.7826086956522 435.6666666666667,199.1014492753623 404,199.1014492753623 C 372.33333333333337,199.1014492753623 372.33333333333337,206 340.6666666666667,206 C 309,206 309,205.59420289855072 277.33333333333337,205.59420289855072 C 245.66666666666669,205.59420289855072 245.66666666666669,204.9855072463768 214,204.9855072463768 C 182.33333333333334,204.9855072463768 182.33333333333334,205.3913043478261 150.66666666666669,205.3913043478261 C 119.00000000000001,205.3913043478261 119.00000000000001,206 87.33333333333334,206 C 55.66666666666667,206 55.66666666666667,206 24,206 Z" fill="#3572A5" fill-opacity="0.75" class="fade-3"/><path d="M 24,206 C 55.66666666666667,206 55.66666666666667,206 87.33333333333334,206 C 119.00000000000001,206 119.00000000000001,205.3913043478261 150.66666666666669,205.3913043478261 C 182.33333333333334,205.3913043478261 182.33333333333334,204.9855072463768 214,204.9855072463768 C 245.66666666666669,204.9855072463768 245.66666666666669,205.59420289855072 277.33333333333337,205.59420289855072 C 309,205.59420289855072 309,206 340.6666666666667,206 C 372.33333333333337,206 372.33333333333337,199.1014492753623 404,199.1014492753623 C 435.6666666666667,199.1014492753623 435.6666666666667,204.7826086956522 467.33333333333337,204.7826086956522 C 499.00000000000006,204.7826086956522 499.00000000000006,200.7246376811594 530.6666666666667,200.7246376811594 C 562.3333333333334,200.7246376811594 562.3333333333334,204.9855072463768 594,204.9855072463768 C 625.6666666666667,204.9855072463768 625.6666666666667,172.31884057971013 657.3333333333334,172.31884057971013 C 689,172.31884057971013 689,122.81159420289856 720.6666666666667,122.81159420289856 C 752.3333333333334,122.81159420289856 752.3333333333334,85.47826086956522 784,85.47826086956522 L 784,104.55072463768116 C 752.3333333333334,104.55072463768116 752.3333333333334,136 720.6666666666667,136 C 689,136 689,177.59420289855072 657.3333333333334,177.59420289855072 C 625.6666666666667,177.59420289855072 625.6666666666667,205.18840579710144 594,205.18840579710144 C 562.3333333333334,205.18840579710144 562.3333333333334,201.53623188405797 530.6666666666667,201.53623188405797 C 499.00000000000006,201.53623188405797 499.00000000000006,204.9855072463768 467.33333333333337,204.9855072463768 C 435.6666666666667,204.9855072463768 435.6666666666667,200.1159420289855 404,200.1159420289855 C 372.33333333333337,200.1159420289855 372.33333333333337,206 340.6666666666667,206 C 309,206 309,205.59420289855072 277.33333333333337,205.59420289855072 C 245.66666666666669,205.59420289855072 245.66666666666669,205.18840579710144 214,205.18840579710144 C 182.33333333333334,205.18840579710144 182.33333333333334,205.3913043478261 150.66666666666669,205.3913043478261 C 119.00000000000001,205.3913043478261 119.00000000000001,206 87.33333333333334,206 C 55.66666666666667,206 55.66666666666667,206 24,206 Z" fill="#89e051" fill-opacity="0.75" class="fade-4"/><path d="M 24,206 C 55.66666666666667,206 55.66666666666667,206 87.33333333333334,206 C 119.00000000000001,206 119.00000000000001,205.3913043478261 150.66666666666669,205.3913043478261 C 182.33333333333334,205.3913043478261 182.33333333333334,205.18840579710144 214,205.18840579710144 C 245.66666666666669,205.18840579710144 245.66666666666669,205.59420289855072 277.33333333333337,205.59420289855072 C 309,205.59420289855072 309,206 340.6666666666667,206 C 372.33333333333337,206 372.33333333333337,200.1159420289855 404,200.1159420289855 C 435.6666666666667,200.1159420289855 435.6666666666667,204.9855072463768 467.33333333333337,204.9855072463768 C 499.00000000000006,204.9855072463768 499.00000000000006,201.53623188405797 530.6666666666667,201.53623188405797 C 562.3333333333334,201.53623188405797 562.3333333333334,205.18840579710144 594,205.18840579710144 C 625.6666666666667,205.18840579710144 625.6666666666667,177.59420289855072 657.3333333333334,177.59420289855072 C 689,177.59420289855072 689,136 720.6666666666667,136 C 752.3333333333334,136 752.3333333333334,104.55072463768116 784,104.55072463768116 L 784,128.08695652173913 C 752.3333333333334,128.08695652173913 752.3333333333334,152.231884057971 720.6666666666667,152.231884057971 C 689,152.231884057971 689,184.28985507246375 657.3333333333334,184.28985507246375 C 625.6666666666667,184.28985507246375 625.6666666666667,205.3913043478261 594,205.3913043478261 C 562.3333333333334,205.3913043478261 562.3333333333334,202.55072463768116 530.6666666666667,202.55072463768116 C 499.00000000000006,202.55072463768116 499.00000000000006,205.18840579710144 467.33333333333337,205.18840579710144 C 435.6666666666667,205.18840579710144 435.6666666666667,201.53623188405797 404,201.53623188405797 C 372.33333333333337,201.53623188405797 372.33333333333337,206 340.6666666666667,206 C 309,206 309,205.59420289855072 277.33333333333337,205.59420289855072 C 245.66666666666669,205.59420289855072 245.66666666666669,205.3913043478261 214,205.3913043478261 C 182.33333333333334,205.3913043478261 182.33333333333334,205.59420289855072 150.66666666666669,205.59420289855072 C 119.00000000000001,205.59420289855072 119.00000000000001,206 87.33333333333334,206 C 55.66666666666667,206 55.66666666666667,206 24,206 Z" fill="#00ADD8" fill-opacity="0.75" class="fade-5"/><path d="M 24,206 C 55.66666666666667,206 55.66666666666667,206 87.33333333333334,206 C 119.00000000000001,206 119.00000000000001,205.59420289855072 150.66666666666669,205.59420289855072 C 182.33333333333334,205.59420289855072 182.33333333333334,205.3913043478261 214,205.3913043478261 C 245.66666666666669,205.3913043478261 245.66666666666669,205.59420289855072 277.33333333333337,205.59420289855072 C 309,205.59420289855072 309,206 340.6666666666667,206 C 372.33333333333337,206 372.33333333333337,201.53623188405797 404,201.53623188405797 C 435.6666666666667,201.53623188405797 435.6666666666667,205.18840579710144 467.33333333333337,205.18840579710144 C 499.00000000000006,205.18840579710144 499.00000000000006,202.55072463768116 530.6666666666667,202.55072463768116 C 562.3333333333334,202.55072463768116 562.3333333333334,205.3913043478261 594,205.3913043478261 C 625.6666666666667,205.3913043478261 625.6666666666667,184.28985507246375 657.3333333333334,184.28985507246375 C 689,184.28985507246375 689,152.231884057971 720.6666666666667,152.231884057971 C 752.3333333333334,152.231884057971 752.3333333333334,128.08695652173913 784,128.08695652173913 L 784,156.4927536231884 C 752.3333333333334,156.4927536231884 752.3333333333334,171.91304347826087 720.6666666666667,171.91304347826087 C 689,171.91304347826087 689,192.20289855072463 657.3333333333334,192.20289855072463 C 625.6666666666667,192.20289855072463 625.6666666666667,205.59420289855072 594,205.59420289855072 C 562.3333333333334,205.59420289855072 562.3333333333334,203.768115942029 530.6666666666667,203.768115942029 C 499.00000000000006,203.768115942029 499.00000000000006,205.3913043478261 467.33333333333337,205.3913043478261 C 435.6666666666667,205.3913043478261 435.6666666666667,203.15942028985506 404,203.15942028985506 C 372.33333333333337,203.15942028985506 372.33333333333337,206 340.6666666666667,206 C 309,206 309,205.79710144927537 277.33333333333337,205.79710144927537 C 245.66666666666669,205.79710144927537 245.66666666666669,205.59420289855072 214,205.59420289855072 C 182.33333333333334,205.59420289855072 182.33333333333334,205.79710144927537 150.66666666666669,205.79710144927537 C 119.00000000000001,205.79710144927537 119.00000000000001,206 87.33333333333334,206 C 55.66666666666667,206 55.66666666666667,206 24,206 Z" fill="#3178c6" fill-opacity="0.75" class="fade-6"/><path d="M 24,206 C 55.66666666666667,206 55.66666666666667,206 87.33333333333334,206 C 119.00000000000001,206 119.00000000000001,205.79710144927537 150.66666666666669,205.79710144927537 C 182.33333333333334,205.79710144927537 182.33333333333334,205.59420289855072 214,205.59420289855072 C 245.66666666666669,205.59420289855072 245.66666666666669,205.79710144927537 277.33333333333337,205.79710144927537 C 309,205.79710144927537 309,206 340.6666666666667,206 C 372.33333333333337,206 372.33333333333337,203.15942028985506 404,203.15942028985506 C 435.6666666666667,203.15942028985506 435.6666666666667,205.3913043478261 467.33333333333337,205.3913043478261 C 499.00000000000006,205.3913043478261 499.00000000000006,203.768115942029 530.6666666666667,203.768115942029 C 562.3333333333334,203.768115942029 562.3333333333334,205.59420289855072 594,205.59420289855072 C 625.6666666666667,205.59420289855072 625.6666666666667,192.20289855072463 657.3333333333334,192.20289855072463 C 689,192.20289855072463 689,171.91304347826087 720.6666666666667,171.91304347826087 C 752.3333333333334,171.91304347826087 752.3333333333334,156.4927536231884 784,156.4927536231884 L 784,206 C 752.3333333333334,206 752.3333333333334,206 720.6666666666667,206 C 689,206 689,206 657.3333333333334,206 C 625.6666666666667,206 625.6666666666667,206 594,206 C 562.3333333333334,206 562.3333333333334,206 530.6666666666667,206 C 499.00000000000006,206 499.00000000000006,206 467.33333333333337,206 C 435.6666666666667,206 435.6666666666667,206 404,206 C 372.33333333333337,206 372.33333333333337,206 340.6666666666667,206 C 309,206 309,206 277.33333333333337,206 C 245.66666666666669,206 245.66666666666669,206 214,206 C 182.33333333333334,206 182.33333333333334,206 150.66666666666669,206 C 119.00000000000001,206 119.00000000000001,206 87.33333333333334,206 C 55.66666666666667,206 55.66666666666667,206 24,206 Z" fill="#dea584" fill-opacity="0.75" class="fade-6"/><rect x="24" y="212" width="8" height="8" rx="2" fill="#dea584" opacity="0.85"/><text x="36" y="220" class="t t-value">Rust</text><rect x="80" y="212" width="8" height="8" rx="2" fill="#3178c6" opacity="0.85"/><text x="92" y="220" class="t t-value">TypeScript</text><rect x="178" y="212" width="8" height="8" rx="2" fill="#00ADD8" opacity="0.85"/><text x="190" y="220" class="t t-value">Go</text><rect x="220" y="212" width="8" height="8" rx="2" fill="#89e051" opacity="0.85"/><text x="232" y="220" class="t t-value">Shell</text><rect x="283" y="212" width="8" height="8" rx="2" fill="#3572A5" opacity="0.85"/><text x="295" y="220" class="t t-value">Python</text><rect x="353" y="212" width="8" height="8" rx="2" fill="#b07219" opacity="0.85"/><text x="365" y="220" class="t t-value">Java</text><rect x="409" y="212" width="8" height="8" rx="2" fill="#DA5B0B" opacity="0.85"/><text x="421" y="220" class="t t-value">Jupyter Notebook</text><text x="24" y="220" class="t t-value" text-anchor="start" opacity="0">Feb</text><text x="150.66666666666669" y="220" class="t t-value" text-anchor="start" opacity="0">Apr</text><text x="277.33333333333337" y="220" class="t t-value" text-anchor="start" opacity="0">Jun</text><text x="404" y="220" class="t t-value" text-anchor="start" opacity="0">Aug</text><text x="530.6666666666667" y="220" class="t t-value" text-anchor="start" opacity="0">Oct</text><text x="657.3333333333334" y="220" class="t t-value" text-anchor="start" opacity="0">Dec</text><text x="784" y="220" class="t t-value" text-anchor="start" opacity="0">Feb</text><text x="24" y="282" class="t t-h">CONTRIBUTION RHYTHM</text><text x="24" y="298" class="t t-sub">Activity patterns and statistics over the past year</text><circle cx="144" cy="428" r="22.5" fill="none" stroke="#30363d" stroke-width="1" stroke-opacity="0.4"/><circle cx="144" cy="428" r="45" fill="none" stroke="#30363d" stroke-width="1" stroke-opacity="0.4"/><circle cx="144" cy="428" r="67.5" fill="none" stroke="#30363d" stroke-width="1" stroke-opacity="0.4"/><circle cx="144" cy="428" r="90" fill="none" stroke="#30363d" stroke-width="1" stroke-opacity="0.4"/><line x1="144" y1="428" x2="144" y2="338" stroke="#30363d" stroke-width="1" stroke-opacity="0.3"/><line x1="144" y1="428" x2="214.36483342212267" y2="371.885917832714" stroke="#30363d" stroke-width="1" stroke-opacity="0.3"/><line x1="144" y1="428" x2="231.74351209636413" y2="448.0268840560683" stroke="#30363d" stroke-width="1" stroke-opacity="0.3"/><line x1="144" y1="428" x2="183.04953652058023" y2="509.08719811121773" stroke="#30363d" stroke-width="1" stroke-opacity="0.3"/><line x1="144" y1="428" x2="104.95046347941977" y2="509.08719811121773" stroke="#30363d" stroke-width="1" stroke-opacity="0.3"/><line x1="144" y1="428" x2="56.25648790363587" y2="448.0268840560683" stroke="#30363d" stroke-width="1" stroke-opacity="0.3"/><line x1="144" y1="428" x2="73.63516657787731" y2="371.885917832714" stroke="#30363d" stroke-width="1" stroke-opacity="0.3"/><polygon points="144,385.8190255220418 177.1416732823455,401.5703974942945 172.7049540732885,434.55171844989707 155.14406726689413,451.14089412454706 132.3123196956964,452.2697182281835 56.25648790363587,448.0268840560683 83.10421608711889,379.4372328343441" fill="#58a6ff" fill-opacity="0.2" stroke="#58a6ff" stroke-width="2" stroke-opacity="0.8" class="fade-2" style="transform-origin: 144px 428px"/><circle cx="144" cy="385.8190255220418" r="3" fill="#58a6ff" class="fade-1"/><circle cx="177.1416732823455" cy="401.5703974942945" r="3" fill="#58a6ff" class="fade-2"/><circle cx="172.7049540732885" cy="434.55171844989707" r="3" fill="#58a6ff" class="fade-3"/><circle cx="155.14406726689413" cy="451.14089412454706" r="3" fill="#58a6ff" class="fade-4"/><circle cx="132.3123196956964" cy="452.2697182281835" r="3" fill="#58a6ff" class="fade-5"/><circle cx="56.25648790363587" cy="448.0268840560683" r="3" fill="#58a6ff" class="fade-6"/><circle cx="83.10421608711889" cy="379.4372328343441" r="3" fill="#58a6ff" class="fade-6"/><text x="144" y="326" class="t t-value" text-anchor="middle">Sun</text><text x="226.87413714161116" y="365.91008100297427" class="t t-value" text-anchor="middle">Mon</text><text x="247.34235869127332" y="455.5872189993693" class="t t-value" text-anchor="middle">Tue</text><text x="189.99167634646116" y="527.5026999976565" class="t t-value" text-anchor="middle">Wed</text><text x="98.00832365353884" y="527.5026999976565" class="t t-value" text-anchor="middle">Thu</text><text x="40.657641308726696" y="455.5872189993693" class="t t-value" text-anchor="middle">Fri</text><text x="61.12586285838883" y="365.91008100297427" class="t t-value" text-anchor="middle">Sat</text><text x="324" y="338" class="t t-stat-label">COMMITS</text><text x="324" y="360" fill="#58a6ff" class="t t-stat-value">1,489</text><text x="324" y="380" class="t t-stat-label">PRS</text><text x="324" y="402" fill="#3fb950" class="t t-stat-value">4</text><text x="324" y="422" class="t t-stat-label">REVIEWS</text><text x="324" y="444" fill="#d29922" class="t t-stat-value">5</text><text x="324" y="464" class="t t-stat-label">REPOS</text><text x="324" y="486" fill="#bc8cff" class="t t-stat-value">23</text><text x="324" y="506" class="t t-stat-label">STREAK</text><text x="324" y="528" fill="#39d2c0" class="t t-stat-value">15d</text><text x="24" y="614" class="t t-h">PROJECT CONSTELLATION</text><text x="24" y="630" class="t t-sub">Projects mapped by language ecosystem and complexity</text><line x1="86.66666666666666" y1="670" x2="540.0000000000001" y2="719.376693248407" stroke="#30363d" stroke-width="1" stroke-opacity="0.15" stroke-dasharray="4 4"/><line x1="86.66666666666666" y1="670" x2="101.77777777777777" y2="739.2093085129827" stroke="#30363d" stroke-width="1" stroke-opacity="0.15" stroke-dasharray="4 4"/><line x1="86.66666666666666" y1="670" x2="691.1111111111112" y2="753.1379626541365" stroke="#30363d" stroke-width="1" stroke-opacity="0.15" stroke-dasharray="4 4"/><line x1="86.66666666666666" y1="670" x2="116.88888888888889" y2="809.7019896217427" stroke="#30363d" stroke-width="1" stroke-opacity="0.15" stroke-dasharray="4 4"/><line x1="86.66666666666666" y1="670" x2="630.6666666666667" y2="815.6688115824719" stroke="#30363d" stroke-width="1" stroke-opacity="0.15" stroke-dasharray="4 4"/><line x1="86.66666666666666" y1="670" x2="706.2222222222223" y2="820.3838842619896" stroke="#30363d" stroke-width="1" stroke-opacity="0.15" stroke-dasharray="4 4"/><line x1="86.66666666666666" y1="670" x2="546.0444444444445" y2="828.6376945594757" stroke="#30363d" stroke-width="1" stroke-opacity="0.15" stroke-dasharray="4 4"/><line x1="86.66666666666666" y1="670" x2="552.088888888889" y2="844.09472860338" stroke="#30363d" stroke-width="1" stroke-opacity="0.15" stroke-dasharray="4 4"/><line x1="86.66666666666666" y1="670" x2="474.51851851851853" y2="862.3486699281858" stroke="#30363d" stroke-width="1" stroke-opacity="0.15" stroke-dasharray="4 4"/><line x1="86.66666666666666" y1="670" x2="558.1333333333334" y2="872.9467411734007" stroke="#30363d" stroke-width="1" stroke-opacity="0.15" stroke-dasharray="4 4"/><line x1="86.66666666666666" y1="670" x2="564.1777777777779" y2="874.2208567778874" stroke="#30363d" stroke-width="1" stroke-opacity="0.15" stroke-dasharray="4 4"/><line x1="86.66666666666666" y1="670" x2="570.2222222222223" y2="907.7977147145464" stroke="#30363d" stroke-width="1" stroke-opacity="0.15" stroke-dasharray="4 4"/><line x1="313.33333333333337" y1="712.3788301108508" x2="464.44444444444446" y2="759.2375116992996" stroke="#30363d" stroke-width="1" stroke-opacity="0.15" stroke-dasharray="4 4"/><line x1="313.33333333333337" y1="712.3788301108508" x2="706.2222222222223" y2="820.3838842619896" stroke="#30363d" stroke-width="1" stroke-opacity="0.15" stroke-dasharray="4 4"/><line x1="313.33333333333337" y1="712.3788301108508" x2="343.55555555555554" y2="833.1040777491318" stroke="#30363d" stroke-width="1" stroke-opacity="0.15" stroke-dasharray="4 4"/><line x1="313.33333333333337" y1="712.3788301108508" x2="474.51851851851853" y2="862.3486699281858" stroke="#30363d" stroke-width="1" stroke-opacity="0.15" stroke-dasharray="4 4"/><line x1="540.0000000000001" y1="719.376693248407" x2="101.77777777777777" y2="739.2093085129827" stroke="#30363d" stroke-width="1" stroke-opacity="0.15" stroke-dasharray="4 4"/><line x1="540.0000000000001" y1="719.376693248407" x2="116.88888888888889" y2="809.7019896217427" stroke="#30363d" stroke-width="1" stroke-opacity="0.15" stroke-dasharray="4 4"/><line x1="540.0000000000001" y1="719.376693248407" x2="630.6666666666667" y2="815.6688115824719" stroke="#30363d" stroke-width="1" stroke-opacity="0.15" stroke-dasharray="4 4"/><line x1="540.0000000000001" y1="719.376693248407" x2="706.2222222222223" y2="820.3838842619896" stroke="#30363d" stroke-width="1" stroke-opacity="0.15" stroke-dasharray="4 4"/><line x1="540.0000000000001" y1="719.376693248407" x2="546.0444444444445" y2="828.6376945594757" stroke="#30363d" stroke-width="1" stroke-opacity="0.15" stroke-dasharray="4 4"/><line x1="540.0000000000001" y1="719.376693248407" x2="552.088888888889" y2="844.09472860338" stroke="#30363d" stroke-width="1" stroke-opacity="0.15" stroke-dasharray="4 4"/><line x1="540.0000000000001" y1="719.376693248407" x2="474.51851851851853" y2="862.3486699281858" stroke="#30363d" stroke-width="1" stroke-opacity="0.15" stroke-dasharray="4 4"/><line x1="540.0000000000001" y1="719.376693248407" x2="558.1333333333334" y2="872.9467411734007" stroke="#30363d" stroke-width="1" stroke-opacity="0.15" stroke-dasharray="4 4"/><line x1="540.0000000000001" y1="719.376693248407" x2="564.1777777777779" y2="874.2208567778874" stroke="#30363d" stroke-width="1" stroke-opacity="0.15" stroke-dasharray="4 4"/><line x1="540.0000000000001" y1="719.376693248407" x2="570.2222222222223" y2="907.7977147145464" stroke="#30363d" stroke-width="1" stroke-opacity="0.15" stroke-dasharray="4 4"/><line x1="101.77777777777777" y1="739.2093085129827" x2="116.88888888888889" y2="809.7019896217427" stroke="#30363d" stroke-width="1" stroke-opacity="0.15" stroke-dasharray="4 4"/><line x1="101.77777777777777" y1="739.2093085129827" x2="630.6666666666667" y2="815.6688115824719" stroke="#30363d" stroke-width="1" stroke-opacity="0.15" stroke-dasharray="4 4"/><line x1="101.77777777777777" y1="739.2093085129827" x2="706.2222222222223" y2="820.3838842619896" stroke="#30363d" stroke-width="1" stroke-opacity="0.15" stroke-dasharray="4 4"/><line x1="101.77777777777777" y1="739.2093085129827" x2="546.0444444444445" y2="828.6376945594757" stroke="#30363d" stroke-width="1" stroke-opacity="0.15" stroke-dasharray="4 4"/><line x1="101.77777777777777" y1="739.2093085129827" x2="552.088888888889" y2="844.09472860338" stroke="#30363d" stroke-width="1" stroke-opacity="0.15" stroke-dasharray="4 4"/><line x1="101.77777777777777" y1="739.2093085129827" x2="558.1333333333334" y2="872.9467411734007" stroke="#30363d" stroke-width="1" stroke-opacity="0.15" stroke-dasharray="4 4"/><line x1="101.77777777777777" y1="739.2093085129827" x2="564.1777777777779" y2="874.2208567778874" stroke="#30363d" stroke-width="1" stroke-opacity="0.15" stroke-dasharray="4 4"/><line x1="101.77777777777777" y1="739.2093085129827" x2="570.2222222222223" y2="907.7977147145464" stroke="#30363d" stroke-width="1" stroke-opacity="0.15" stroke-dasharray="4 4"/><line x1="691.1111111111112" y1="753.1379626541365" x2="706.2222222222223" y2="820.3838842619896" stroke="#30363d" stroke-width="1" stroke-opacity="0.15" stroke-dasharray="4 4"/><line x1="691.1111111111112" y1="753.1379626541365" x2="546.0444444444445" y2="828.6376945594757" stroke="#30363d" stroke-width="1" stroke-opacity="0.15" stroke-dasharray="4 4"/><line x1="691.1111111111112" y1="753.1379626541365" x2="252.88888888888889" y2="907.1047746489483" stroke="#30363d" stroke-width="1" stroke-opacity="0.15" stroke-dasharray="4 4"/><line x1="464.44444444444446" y1="759.2375116992996" x2="706.2222222222223" y2="820.3838842619896" stroke="#30363d" stroke-width="1" stroke-opacity="0.15" stroke-dasharray="4 4"/><line x1="464.44444444444446" y1="759.2375116992996" x2="343.55555555555554" y2="833.1040777491318" stroke="#30363d" stroke-width="1" stroke-opacity="0.15" stroke-dasharray="4 4"/><line x1="464.44444444444446" y1="759.2375116992996" x2="474.51851851851853" y2="862.3486699281858" stroke="#30363d" stroke-width="1" stroke-opacity="0.15" stroke-dasharray="4 4"/><line x1="116.88888888888889" y1="809.7019896217427" x2="630.6666666666667" y2="815.6688115824719" stroke="#30363d" stroke-width="1" stroke-opacity="0.15" stroke-dasharray="4 4"/><line x1="116.88888888888889" y1="809.7019896217427" x2="706.2222222222223" y2="820.3838842619896" stroke="#30363d" stroke-width="1" stroke-opacity="0.15" stroke-dasharray="4 4"/><line x1="116.88888888888889" y1="809.7019896217427" x2="546.0444444444445" y2="828.6376945594757" stroke="#30363d" stroke-width="1" stroke-opacity="0.15" stroke-dasharray="4 4"/><line x1="116.88888888888889" y1="809.7019896217427" x2="552.088888888889" y2="844.09472860338" stroke="#30363d" stroke-width="1" stroke-opacity="0.15" stroke-dasharray="4 4"/><line x1="116.88888888888889" y1="809.7019896217427" x2="558.1333333333334" y2="872.9467411734007" stroke="#30363d" stroke-width="1" stroke-opacity="0.15" stroke-dasharray="4 4"/><line x1="116.88888888888889" y1="809.7019896217427" x2="564.1777777777779" y2="874.2208567778874" stroke="#30363d" stroke-width="1" stroke-opacity="0.15" stroke-dasharray="4 4"/><line x1="116.88888888888889" y1="809.7019896217427" x2="570.2222222222223" y2="907.7977147145464" stroke="#30363d" stroke-width="1" stroke-opacity="0.15" stroke-dasharray="4 4"/><line x1="630.6666666666667" y1="815.6688115824719" x2="706.2222222222223" y2="820.3838842619896" stroke="#30363d" stroke-width="1" stroke-opacity="0.15" stroke-dasharray="4 4"/><line x1="630.6666666666667" y1="815.6688115824719" x2="546.0444444444445" y2="828.6376945594757" stroke="#30363d" stroke-width="1" stroke-opacity="0.15" stroke-dasharray="4 4"/><line x1="630.6666666666667" y1="815.6688115824719" x2="552.088888888889" y2="844.09472860338" stroke="#30363d" stroke-width="1" stroke-opacity="0.15" stroke-dasharray="4 4"/><line x1="630.6666666666667" y1="815.6688115824719" x2="558.1333333333334" y2="872.9467411734007" stroke="#30363d" stroke-width="1" stroke-opacity="0.15" stroke-dasharray="4 4"/><line x1="630.6666666666667" y1="815.6688115824719" x2="564.1777777777779" y2="874.2208567778874" stroke="#30363d" stroke-width="1" stroke-opacity="0.15" stroke-dasharray="4 4"/><line x1="630.6666666666667" y1="815.6688115824719" x2="192.44444444444446" y2="883.4973124947642" stroke="#30363d" stroke-width="1" stroke-opacity="0.15" stroke-dasharray="4 4"/><line x1="630.6666666666667" y1="815.6688115824719" x2="570.2222222222223" y2="907.7977147145464" stroke="#30363d" stroke-width="1" stroke-opacity="0.15" stroke-dasharray="4 4"/><line x1="706.2222222222223" y1="820.3838842619896" x2="546.0444444444445" y2="828.6376945594757" stroke="#30363d" stroke-width="1" stroke-opacity="0.15" stroke-dasharray="4 4"/><line x1="706.2222222222223" y1="820.3838842619896" x2="343.55555555555554" y2="833.1040777491318" stroke="#30363d" stroke-width="1" stroke-opacity="0.15" stroke-dasharray="4 4"/><line x1="706.2222222222223" y1="820.3838842619896" x2="552.088888888889" y2="844.09472860338" stroke="#30363d" stroke-width="1" stroke-opacity="0.15" stroke-dasharray="4 4"/><line x1="706.2222222222223" y1="820.3838842619896" x2="474.51851851851853" y2="862.3486699281858" stroke="#30363d" stroke-width="1" stroke-opacity="0.15" stroke-dasharray="4 4"/><line x1="706.2222222222223" y1="820.3838842619896" x2="558.1333333333334" y2="872.9467411734007" stroke="#30363d" stroke-width="1" stroke-opacity="0.15" stroke-dasharray="4 4"/><line x1="706.2222222222223" y1="820.3838842619896" x2="564.1777777777779" y2="874.2208567778874" stroke="#30363d" stroke-width="1" stroke-opacity="0.15" stroke-dasharray="4 4"/><line x1="706.2222222222223" y1="820.3838842619896" x2="484.59259259259255" y2="886.4367195472203" stroke="#30363d" stroke-width="1" stroke-opacity="0.15" stroke-dasharray="4 4"/><line x1="706.2222222222223" y1="820.3838842619896" x2="721.3333333333334" y2="891.5555348705088" stroke="#30363d" stroke-width="1" stroke-opacity="0.15" stroke-dasharray="4 4"/><line x1="706.2222222222223" y1="820.3838842619896" x2="252.88888888888889" y2="907.1047746489483" stroke="#30363d" stroke-width="1" stroke-opacity="0.15" stroke-dasharray="4 4"/><line x1="706.2222222222223" y1="820.3838842619896" x2="570.2222222222223" y2="907.7977147145464" stroke="#30363d" stroke-width="1" stroke-opacity="0.15" stroke-dasharray="4 4"/><line x1="546.0444444444445" y1="828.6376945594757" x2="552.088888888889" y2="844.09472860338" stroke="#30363d" stroke-width="1" stroke-opacity="0.15" stroke-dasharray="4 4"/><line x1="546.0444444444445" y1="828.6376945594757" x2="558.1333333333334" y2="872.9467411734007" stroke="#30363d" stroke-width="1" stroke-opacity="0.15" stroke-dasharray="4 4"/><line x1="546.0444444444445" y1="828.6376945594757" x2="564.1777777777779" y2="874.2208567778874" stroke="#30363d" stroke-width="1" stroke-opacity="0.15" stroke-dasharray="4 4"/><line x1="546.0444444444445" y1="828.6376945594757" x2="570.2222222222223" y2="907.7977147145464" stroke="#30363d" stroke-width="1" stroke-opacity="0.15" stroke-dasharray="4 4"/><line x1="343.55555555555554" y1="833.1040777491318" x2="474.51851851851853" y2="862.3486699281858" stroke="#30363d" stroke-width="1" stroke-opacity="0.15" stroke-dasharray="4 4"/><line x1="552.088888888889" y1="844.09472860338" x2="558.1333333333334" y2="872.9467411734007" stroke="#30363d" stroke-width="1" stroke-opacity="0.15" stroke-dasharray="4 4"/><line x1="552.088888888889" y1="844.09472860338" x2="564.1777777777779" y2="874.2208567778874" stroke="#30363d" stroke-width="1" stroke-opacity="0.15" stroke-dasharray="4 4"/><line x1="552.088888888889" y1="844.09472860338" x2="570.2222222222223" y2="907.7977147145464" stroke="#30363d" stroke-width="1" stroke-opacity="0.15" stroke-dasharray="4 4"/><line x1="558.1333333333334" y1="872.9467411734007" x2="564.1777777777779" y2="874.2208567778874" stroke="#30363d" stroke-width="1" stroke-opacity="0.15" stroke-dasharray="4 4"/><line x1="558.1333333333334" y1="872.9467411734007" x2="570.2222222222223" y2="907.7977147145464" stroke="#30363d" stroke-width="1" stroke-opacity="0.15" stroke-dasharray="4 4"/><line x1="564.1777777777779" y1="874.2208567778874" x2="570.2222222222223" y2="907.7977147145464" stroke="#30363d" stroke-width="1" stroke-opacity="0.15" stroke-dasharray="4 4"/><circle cx="86.66666666666666" cy="670" r="26" fill="#00ADD8" fill-opacity="0.08" class="fade-1"/><circle cx="86.66666666666666" cy="670" r="22" fill="#00ADD8" fill-opacity="0.7" stroke="#00ADD8" stroke-width="1.5" stroke-opacity="0.9" class="fade-1"/><text x="86.66666666666666" y="706" class="t t-value fade-1" text-anchor="middle">incipit</text><circle cx="313.33333333333337" cy="712.3788301108508" r="26" fill="#DA5B0B" fill-opacity="0.08" class="fade-2"/><circle cx="313.33333333333337" cy="712.3788301108508" r="22" fill="#DA5B0B" fill-opacity="0.7" stroke="#DA5B0B" stroke-width="1.5" stroke-opacity="0.9" class="fade-2"/><text x="313.33333333333337" y="748.3788301108508" class="t t-value fade-2" text-anchor="middle">lepus-classifier</text><circle cx="540.0000000000001" cy="719.376693248407" r="26" fill="#dea584" fill-opacity="0.08" class="fade-3"/><circle cx="540.0000000000001" cy="719.376693248407" r="22" fill="#dea584" fill-opacity="0.7" stroke="#dea584" stroke-width="1.5" stroke-opacity="0.9" class="fade-3"/><text x="540.0000000000001" y="755.376693248407" class="t t-value fade-3" text-anchor="middle">linear-gp</text><circle cx="101.77777777777777" cy="739.2093085129827" r="26" fill="#00ADD8" fill-opacity="0.08" class="fade-4"/><circle cx="101.77777777777777" cy="739.2093085129827" r="22" fill="#00ADD8" fill-opacity="0.7" stroke="#00ADD8" stroke-width="1.5" stroke-opacity="0.9" class="fade-4"/><text x="101.77777777777777" y="775.2093085129827" class="t t-value fade-4" text-anchor="middle">zigbee-rest</text><circle cx="691.1111111111112" cy="753.1379626541365" r="26" fill="#3178c6" fill-opacity="0.08" class="fade-5"/><circle cx="691.1111111111112" cy="753.1379626541365" r="22" fill="#3178c6" fill-opacity="0.7" stroke="#3178c6" stroke-width="1.5" stroke-opacity="0.9" class="fade-5"/><text x="691.1111111111112" y="789.1379626541365" class="t t-value fade-5" text-anchor="middle">urmzd.com</text><circle cx="464.44444444444446" cy="759.2375116992996" r="26" fill="#3572A5" fill-opacity="0.08" class="fade-6"/><circle cx="464.44444444444446" cy="759.2375116992996" r="22" fill="#3572A5" fill-opacity="0.7" stroke="#3572A5" stroke-width="1.5" stroke-opacity="0.9" class="fade-6"/><text x="464.44444444444446" y="795.2375116992996" class="t t-value fade-6" text-anchor="middle">exp-agi-models</text><circle cx="116.88888888888889" cy="809.7019896217427" r="24.33699101850862" fill="#00ADD8" fill-opacity="0.08" class="fade-6"/><circle cx="116.88888888888889" cy="809.7019896217427" r="20.33699101850862" fill="#00ADD8" fill-opacity="0.7" stroke="#00ADD8" stroke-width="1.5" stroke-opacity="0.9" class="fade-6"/><text x="116.88888888888889" y="844.0389806402512" class="t t-value fade-6" text-anchor="middle">saige</text><circle cx="630.6666666666667" cy="815.6688115824719" r="21.675715564635794" fill="#89e051" fill-opacity="0.08" class="fade-6"/><circle cx="630.6666666666667" cy="815.6688115824719" r="17.675715564635794" fill="#89e051" fill-opacity="0.7" stroke="#89e051" stroke-width="1.5" stroke-opacity="0.9" class="fade-6"/><text x="630.6666666666667" y="847.3445271471077" class="t t-value fade-6" text-anchor="middle">dotfiles</text><circle cx="706.2222222222223" cy="820.3838842619896" r="15.061182065019677" fill="#3178c6" fill-opacity="0.08" class="fade-6"/><circle cx="706.2222222222223" cy="820.3838842619896" r="11.061182065019677" fill="#3178c6" fill-opacity="0.7" stroke="#3178c6" stroke-width="1.5" stroke-opacity="0.9" class="fade-6"/><text x="706.2222222222223" y="845.4450663270093" class="t t-value fade-6" text-anchor="middle">zoro</text><circle cx="546.0444444444445" cy="828.6376945594757" r="26" fill="#dea584" fill-opacity="0.08" class="fade-6"/><circle cx="546.0444444444445" cy="828.6376945594757" r="22" fill="#dea584" fill-opacity="0.7" stroke="#dea584" stroke-width="1.5" stroke-opacity="0.9" class="fade-6"/><text x="546.0444444444445" y="864.6376945594757" class="t t-value fade-6" text-anchor="middle">teasr</text><circle cx="343.55555555555554" cy="833.1040777491318" r="25.36863924926572" fill="#DA5B0B" fill-opacity="0.08" class="fade-6"/><circle cx="343.55555555555554" cy="833.1040777491318" r="21.36863924926572" fill="#DA5B0B" fill-opacity="0.7" stroke="#DA5B0B" stroke-width="1.5" stroke-opacity="0.9" class="fade-6"/><text x="343.55555555555554" y="868.4727169983975" class="t t-value fade-6" text-anchor="middle">md-classifier</text><circle cx="552.088888888889" cy="844.09472860338" r="20.751279260918498" fill="#dea584" fill-opacity="0.08" class="fade-6"/><circle cx="552.088888888889" cy="844.09472860338" r="16.751279260918498" fill="#dea584" fill-opacity="0.7" stroke="#dea584" stroke-width="1.5" stroke-opacity="0.9" class="fade-6"/><text x="552.088888888889" y="874.8460078642985" class="t t-value fade-6" text-anchor="middle">oag</text><circle cx="474.51851851851853" cy="862.3486699281858" r="25.46688344753587" fill="#3572A5" fill-opacity="0.08" class="fade-6"/><circle cx="474.51851851851853" cy="862.3486699281858" r="21.46688344753587" fill="#3572A5" fill-opacity="0.7" stroke="#3572A5" stroke-width="1.5" stroke-opacity="0.9" class="fade-6"/><text x="474.51851851851853" y="897.8155533757217" class="t t-value fade-6" text-anchor="middle">languide</text><circle cx="162.22222222222223" cy="869.2879015211715" r="24.861890796612347" fill="#b07219" fill-opacity="0.08" class="fade-6"/><circle cx="162.22222222222223" cy="869.2879015211715" r="20.861890796612347" fill="#b07219" fill-opacity="0.7" stroke="#b07219" stroke-width="1.5" stroke-opacity="0.9" class="fade-6"/><text x="162.22222222222223" y="904.1497923177839" class="t t-value fade-6" text-anchor="middle">flappy-bird</text><circle cx="558.1333333333334" cy="872.9467411734007" r="18.06118206501968" fill="#dea584" fill-opacity="0.08" class="fade-6"/><circle cx="558.1333333333334" cy="872.9467411734007" r="14.061182065019677" fill="#dea584" fill-opacity="0.7" stroke="#dea584" stroke-width="1.5" stroke-opacity="0.9" class="fade-6"/><text x="558.1333333333334" y="901.0079232384204" class="t t-value fade-6" text-anchor="middle">sr</text><circle cx="564.1777777777779" cy="874.2208567778874" r="12.034215715337913" fill="#dea584" fill-opacity="0.08" class="fade-6"/><circle cx="564.1777777777779" cy="874.2208567778874" r="8.034215715337913" fill="#dea584" fill-opacity="0.7" stroke="#dea584" stroke-width="1.5" stroke-opacity="0.9" class="fade-6"/><text x="564.1777777777779" y="896.2550724932254" class="t t-value fade-6" text-anchor="middle">embed-src</text><circle cx="192.44444444444446" cy="883.4973124947642" r="14.637905107315877" fill="#b07219" fill-opacity="0.08" class="fade-6"/><circle cx="192.44444444444446" cy="883.4973124947642" r="10.637905107315877" fill="#b07219" fill-opacity="0.7" stroke="#b07219" stroke-width="1.5" stroke-opacity="0.9" class="fade-6"/><text x="192.44444444444446" y="908.13521760208" class="t t-value fade-6" text-anchor="middle">barter-trader</text><circle cx="484.59259259259255" cy="886.4367195472203" r="14.425254648846348" fill="#3572A5" fill-opacity="0.08" class="fade-6"/><circle cx="484.59259259259255" cy="886.4367195472203" r="10.425254648846348" fill="#3572A5" fill-opacity="0.7" stroke="#3572A5" stroke-width="1.5" stroke-opacity="0.9" class="fade-6"/><text x="484.59259259259255" y="910.8619741960666" class="t t-value fade-6" text-anchor="middle">chess-cli</text><circle cx="721.3333333333334" cy="891.5555348705088" r="25.33559789160267" fill="#3178c6" fill-opacity="0.08" class="fade-6"/><circle cx="721.3333333333334" cy="891.5555348705088" r="21.33559789160267" fill="#3178c6" fill-opacity="0.7" stroke="#3178c6" stroke-width="1.5" stroke-opacity="0.9" class="fade-6"/><text x="721.3333333333334" y="926.8911327621115" class="t t-value fade-6" text-anchor="middle">github-insights</text><circle cx="252.88888888888889" cy="907.1047746489483" r="12.127871907170075" fill="#f1e05a" fill-opacity="0.08" class="fade-6"/><circle cx="252.88888888888889" cy="907.1047746489483" r="8.127871907170075" fill="#f1e05a" fill-opacity="0.7" stroke="#f1e05a" stroke-width="1.5" stroke-opacity="0.9" class="fade-6"/><text x="252.88888888888889" y="929.2326465561183" class="t t-value fade-6" text-anchor="middle">cypress-name-too-…</text><circle cx="570.2222222222223" cy="907.7977147145464" r="10" fill="#dea584" fill-opacity="0.08" class="fade-6"/><circle cx="570.2222222222223" cy="907.7977147145464" r="6" fill="#dea584" fill-opacity="0.7" stroke="#dea584" stroke-width="1.5" stroke-opacity="0.9" class="fade-6"/><text x="570.2222222222223" y="927.7977147145464" class="t t-value fade-6" text-anchor="middle">gitit</text><circle cx="494.66666666666663" cy="916.2275541415997" r="10" fill="#3572A5" fill-opacity="0.08" class="fade-6"/><circle cx="494.66666666666663" cy="916.2275541415997" r="6" fill="#3572A5" fill-opacity="0.7" stroke="#3572A5" stroke-width="1.5" stroke-opacity="0.9" class="fade-6"/><text x="494.66666666666663" y="936.2275541415997" class="t t-value fade-6" text-anchor="middle">lightning-kfold</text><circle cx="404" cy="950" r="12.23248328671123" fill="#8b949e" fill-opacity="0.08" class="fade-6"/><circle cx="404" cy="950" r="8.23248328671123" fill="#8b949e" fill-opacity="0.7" stroke="#8b949e" stroke-width="1.5" stroke-opacity="0.9" class="fade-6"/><text x="404" y="972.2324832867113" class="t t-value fade-6" text-anchor="middle">urmzd</text><text x="24" y="1076" class="t t-h">OPEN SOURCE IMPACT</text><text x="24" y="1092" class="t t-sub">External repositories contributed to</text><text x="24" y="1124" class="t t-card-title fade-1">getzep/graphiti</text><rect x="304" y="1114" width="400" height="12" rx="3" fill="#58a6ff" fill-opacity="0.7" class="fade-1"/><text x="720" y="1124" class="t t-value fade-1">★ 24,144</text><text x="784" y="1124" class="t t-value fade-1">Python</text><text x="24" y="1166" class="t t-card-title fade-2">googleapis/python-aiplatform</text><rect x="304" y="1156" width="268.4578964098692" height="12" rx="3" fill="#3fb950" fill-opacity="0.7" class="fade-2"/><text x="720" y="1166" class="t t-value fade-2">★ 873</text><text x="784" y="1166" class="t t-value fade-2">Python</text><text x="24" y="1208" class="t t-card-title fade-3">MathisWellmann/gym-rs</text><rect x="304" y="1198" width="192.31513074179537" height="12" rx="3" fill="#d29922" fill-opacity="0.7" class="fade-3"/><text x="720" y="1208" class="t t-value fade-3">★ 127</text><text x="784" y="1208" class="t t-value fade-3">Rust</text></svg>