<svg xmlns="http://www.w3.org/2000/svg" width="808" height="1328" viewBox="0 0 808 1328"><defs><style>
  .t { font-family: -apple-system,BlinkMacSystemFont,Segoe UI,Helvetica,Arial,sans-serif; font-variant-numeric: tabular-lining; }
  .t-h { font-size: 14px; fill: #c9d1d9; letter-spacing: 2px; font-weight: 600; }
  .t-sub { font-size: 11px; fill: #6e7681; }
  .t-label { font-size: 12px; fill: #8b949e; }
  .t-value { font-size: 11px; fill: #6e7681; }
  .t-subhdr { font-size: 11px; fill: #8b949e; letter-spacing: 1px; font-weight: 600; }
  .t-stat-label { font-size: 10px; fill: #8b949e; font-weight: 600; }
  .t-stat-value { font-size: 22px; font-weight: 700; }
  .t-card-title { font-size: 12px; fill: #58a6ff; font-weight: 700; }
  .t-card-detail { font-size: 11px; fill: #8b949e; }
  .t-pill { font-size: 11px; font-weight: 600; }
  .t-bullet { font-size: 12px; fill: #c9d1d9; }
  .bg-fill { fill: #0d1117; }
  .card-fill { fill: #161b22; }
  .border-stroke { stroke: #30363d; }

  @media (prefers-color-scheme: light) {
    .bg-fill { fill: #ffffff; }
    .card-fill { fill: #f6f8fa; }
    .border-stroke { stroke: #d0d7de; }
    .t-h { fill: #1f2328; }
    .t-sub { fill: #656d76; }
    .t-label { fill: #656d76; }
    .t-value { fill: #656d76; }
    .t-subhdr { fill: #656d76; }
    .t-stat-label { fill: #656d76; }
    .t-card-title { fill: #0969da; }
    .t-card-detail { fill: #656d76; }
    .t-bullet { fill: #1f2328; }
  }

  @keyframes fadeIn {
    from { opacity: 0; transform: translateY(8px); }
    to { opacity: 1; transform: translateY(0); }
  }
  @keyframes scaleIn {
    from { transform: scale(0); opacity: 0; }
    to { transform: scale(1); opacity: 1; }
  }
  @keyframes drawPath {
    from { stroke-dashoffset: var(--path-length); }
    to { stroke-dashoffset: 0; }
  }
  @keyframes radarReveal {
    from { transform: scale(0); opacity: 0; }
    to { transform: scale(1); opacity: 0.6; }
  }
  .fade-1 { animation: fadeIn 0.6s ease-out 0.1s both; }
  .fade-2 { animation: fadeIn 0.6s ease-out 0.25s both; }
  .fade-3 { animation: fadeIn 0.6s ease-out 0.4s both; }
  .fade-4 { animation: fadeIn 0.6s ease-out 0.55s both; }
  .fade-5 { animation: fadeIn 0.6s ease-out 0.7s both; }
  .fade-6 { animation: fadeIn 0.6s ease-out 0.85s both; }
</style></defs><rect width="808" height="1328" rx="12" class="bg-fill" fill="#0d1117"/><text x="24" y="40" class="t t-h">LANGUAGE VELOCITY</text><text x="24" y="56" class="t t-sub">How language usage has evolved over the past year</text><path key="Jupyter Notebook" d="M 24,206 C 55.66666666666667,206 55.66666666666667,206 87.33333333333334,206 C 119.00000000000001,206 119.00000000000001,205.48967193195625 150.66666666666669,205.48967193195625 C 182.33333333333334,205.48967193195625 182.33333333333334,205.1494532199271 214,205.1494532199271 C 245.66666666666669,205.1494532199271 245.66666666666669,205.65978128797084 277.33333333333337,205.65978128797084 C 309,205.65978128797084 309,206 340.6666666666667,206 C 372.33333333333337,206 372.33333333333337,199.19562575941677 404,199.19562575941677 C 435.6666666666667,199.19562575941677 435.6666666666667,204.80923450789794 467.33333333333337,204.80923450789794 C 499.00000000000006,204.80923450789794 499.00000000000006,200.726609963548 530.6666666666667,200.726609963548 C 562.3333333333334,200.726609963548 562.3333333333334,205.1494532199271 594,205.1494532199271 C 625.6666666666667,205.1494532199271 625.6666666666667,173.50911300121507 657.3333333333334,173.50911300121507 C 689,173.50911300121507 689,125.87849331713244 720.6666666666667,125.87849331713244 C 752.3333333333334,125.87849331713244 752.3333333333334,66 784,66 L 784,67.0206561360875 C 752.3333333333334,67.0206561360875 752.3333333333334,126.38882138517619 720.6666666666667,126.38882138517619 C 689,126.38882138517619 689,173.67922235722966 657.3333333333334,173.67922235722966 C 625.6666666666667,173.67922235722966 625.6666666666667,205.1494532199271 594,205.1494532199271 C 562.3333333333334,205.1494532199271 562.3333333333334,200.726609963548 530.6666666666667,200.726609963548 C 499.00000000000006,200.726609963548 499.00000000000006,204.80923450789794 467.33333333333337,204.80923450789794 C 435.6666666666667,204.80923450789794 435.6666666666667,199.19562575941677 404,199.19562575941677 C 372.33333333333337,199.19562575941677 372.33333333333337,206 340.6666666666667,206 C 309,206 309,205.65978128797084 277.33333333333337,205.65978128797084 C 245.66666666666669,205.65978128797084 245.66666666666669,205.1494532199271 214,205.1494532199271 C 182.33333333333334,205.1494532199271 182.33333333333334,205.48967193195625 150.66666666666669,205.48967193195625 C 119.00000000000001,205.48967193195625 119.00000000000001,206 87.33333333333334,206 C 55.66666666666667,206 55.66666666666667,206 24,206 Z" fill="#DA5B0B" fill-opacity="0.75" class="fade-1"/><path key="TeX" d="M 24,206 C 55.66666666666667,206 55.66666666666667,206 87.33333333333334,206 C 119.00000000000001,206 119.00000000000001,205.48967193195625 150.66666666666669,205.48967193195625 C 182.33333333333334,205.48967193195625 182.33333333333334,205.1494532199271 214,205.1494532199271 C 245.66666666666669,205.1494532199271 245.66666666666669,205.65978128797084 277.33333333333337,205.65978128797084 C 309,205.65978128797084 309,206 340.6666666666667,206 C 372.33333333333337,206 372.33333333333337,199.19562575941677 404,199.19562575941677 C 435.6666666666667,199.19562575941677 435.6666666666667,204.80923450789794 467.33333333333337,204.80923450789794 C 499.00000000000006,204.80923450789794 499.00000000000006,200.726609963548 530.6666666666667,200.726609963548 C 562.3333333333334,200.726609963548 562.3333333333334,205.1494532199271 594,205.1494532199271 C 625.6666666666667,205.1494532199271 625.6666666666667,173.67922235722966 657.3333333333334,173.67922235722966 C 689,173.67922235722966 689,126.38882138517619 720.6666666666667,126.38882138517619 C 752.3333333333334,126.38882138517619 752.3333333333334,67.0206561360875 784,67.0206561360875 L 784,68.04131227217496 C 752.3333333333334,68.04131227217496 752.3333333333334,127.06925880923451 720.6666666666667,127.06925880923451 C 689,127.06925880923451 689,173.84933171324423 657.3333333333334,173.84933171324423 C 625.6666666666667,173.84933171324423 625.6666666666667,205.1494532199271 594,205.1494532199271 C 562.3333333333334,205.1494532199271 562.3333333333334,200.726609963548 530.6666666666667,200.726609963548 C 499.00000000000006,200.726609963548 499.00000000000006,204.80923450789794 467.33333333333337,204.80923450789794 C 435.6666666666667,204.80923450789794 435.6666666666667,199.19562575941677 404,199.19562575941677 C 372.33333333333337,199.19562575941677 372.33333333333337,206 340.6666666666667,206 C 309,206 309,205.65978128797084 277.33333333333337,205.65978128797084 C 245.66666666666669,205.65978128797084 245.66666666666669,205.1494532199271 214,205.1494532199271 C 182.33333333333334,205.1494532199271 182.33333333333334,205.48967193195625 150.66666666666669,205.48967193195625 C 119.00000000000001,205.48967193195625 119.00000000000001,206 87.33333333333334,206 C 55.66666666666667,206 55.66666666666667,206 24,206 Z" fill="#3D6117" fill-opacity="0.75" class="fade-2"/><path key="Java" d="M 24,206 C 55.66666666666667,206 55.66666666666667,206 87.33333333333334,206 C 119.00000000000001,206 119.00000000000001,205.48967193195625 150.66666666666669,205.48967193195625 C 182.33333333333334,205.48967193195625 182.33333333333334,205.1494532199271 214,205.1494532199271 C 245.66666666666669,205.1494532199271 245.66666666666669,205.65978128797084 277.33333333333337,205.65978128797084 C 309,205.65978128797084 309,206 340.6666666666667,206 C 372.33333333333337,206 372.33333333333337,199.19562575941677 404,199.19562575941677 C 435.6666666666667,199.19562575941677 435.6666666666667,204.80923450789794 467.33333333333337,204.80923450789794 C 499.00000000000006,204.80923450789794 499.00000000000006,200.726609963548 530.6666666666667,200.726609963548 C 562.3333333333334,200.726609963548 562.3333333333334,205.1494532199271 594,205.1494532199271 C 625.6666666666667,205.1494532199271 625.6666666666667,173.84933171324423 657.3333333333334,173.84933171324423 C 689,173.84933171324423 689,127.06925880923451 720.6666666666667,127.06925880923451 C 752.3333333333334,127.06925880923451 752.3333333333334,68.04131227217496 784,68.04131227217496 L 784,72.80437424058323 C 752.3333333333334,72.80437424058323 752.3333333333334,129.7910085054678 720.6666666666667,129.7910085054678 C 689,129.7910085054678 689,174.86998784933172 657.3333333333334,174.86998784933172 C 625.6666666666667,174.86998784933172 625.6666666666667,205.1494532199271 594,205.1494532199271 C 562.3333333333334,205.1494532199271 562.3333333333334,200.89671931956258 530.6666666666667,200.89671931956258 C 499.00000000000006,200.89671931956258 499.00000000000006,204.80923450789794 467.33333333333337,204.80923450789794 C 435.6666666666667,204.80923450789794 435.6666666666667,199.36573511543133 404,199.36573511543133 C 372.33333333333337,199.36573511543133 372.33333333333337,206 340.6666666666667,206 C 309,206 309,205.65978128797084 277.33333333333337,205.65978128797084 C 245.66666666666669,205.65978128797084 245.66666666666669,205.1494532199271 214,205.1494532199271 C 182.33333333333334,205.1494532199271 182.33333333333334,205.48967193195625 150.66666666666669,205.48967193195625 C 119.00000000000001,205.48967193195625 119.00000000000001,206 87.33333333333334,206 C 55.66666666666667,206 55.66666666666667,206 24,206 Z" fill="#b07219" fill-opacity="0.75" class="fade-3"/><path key="Python" d="M 24,206 C 55.66666666666667,206 55.66666666666667,206 87.33333333333334,206 C 119.00000000000001,206 119.00000000000001,205.48967193195625 150.66666666666669,205.48967193195625 C 182.33333333333334,205.48967193195625 182.33333333333334,205.1494532199271 214,205.1494532199271 C 245.66666666666669,205.1494532199271 245.66666666666669,205.65978128797084 277.33333333333337,205.65978128797084 C 309,205.65978128797084 309,206 340.6666666666667,206 C 372.33333333333337,206 372.33333333333337,199.36573511543133 404,199.36573511543133 C 435.6666666666667,199.36573511543133 435.6666666666667,204.80923450789794 467.33333333333337,204.80923450789794 C 499.00000000000006,204.80923450789794 499.00000000000006,200.89671931956258 530.6666666666667,200.89671931956258 C 562.3333333333334,200.89671931956258 562.3333333333334,205.1494532199271 594,205.1494532199271 C 625.6666666666667,205.1494532199271 625.6666666666667,174.86998784933172 657.3333333333334,174.86998784933172 C 689,174.86998784933172 689,129.7910085054678 720.6666666666667,129.7910085054678 C 752.3333333333334,129.7910085054678 752.3333333333334,72.80437424058323 784,72.80437424058323 L 784,85.3924665856622 C 752.3333333333334,85.3924665856622 752.3333333333334,136.9356014580802 720.6666666666667,136.9356014580802 C 689,136.9356014580802 689,177.7618469015796 657.3333333333334,177.7618469015796 C 625.6666666666667,177.7618469015796 625.6666666666667,205.1494532199271 594,205.1494532199271 C 562.3333333333334,205.1494532199271 562.3333333333334,201.40704738760633 530.6666666666667,201.40704738760633 C 499.00000000000006,201.40704738760633 499.00000000000006,204.9793438639125 467.33333333333337,204.9793438639125 C 435.6666666666667,204.9793438639125 435.6666666666667,200.04617253948967 404,200.04617253948967 C 372.33333333333337,200.04617253948967 372.33333333333337,206 340.6666666666667,206 C 309,206 309,205.65978128797084 277.33333333333337,205.65978128797084 C 245.66666666666669,205.65978128797084 245.66666666666669,205.1494532199271 214,205.1494532199271 C 182.33333333333334,205.1494532199271 182.33333333333334,205.48967193195625 150.66666666666669,205.48967193195625 C 119.00000000000001,205.48967193195625 119.00000000000001,206 87.33333333333334,206 C 55.66666666666667,206 55.66666666666667,206 24,206 Z" fill="#3572A5" fill-opacity="0.75" class="fade-4"/><path key="Shell" d="M 24,206 C 55.66666666666667,206 55.66666666666667,206 87.33333333333334,206 C 119.00000000000001,206 119.00000000000001,205.48967193195625 150.66666666666669,205.48967193195625 C 182.33333333333334,205.48967193195625 182.33333333333334,205.1494532199271 214,205.1494532199271 C 245.66666666666669,205.1494532199271 245.66666666666669,205.65978128797084 277.33333333333337,205.65978128797084 C 309,205.65978128797084 309,206 340.6666666666667,206 C 372.33333333333337,206 372.33333333333337,200.04617253948967 404,200.04617253948967 C 435.6666666666667,200.04617253948967 435.6666666666667,204.9793438639125 467.33333333333337,204.9793438639125 C 499.00000000000006,204.9793438639125 499.00000000000006,201.40704738760633 530.6666666666667,201.40704738760633 C 562.3333333333334,201.40704738760633 562.3333333333334,205.1494532199271 594,205.1494532199271 C 625.6666666666667,205.1494532199271 625.6666666666667,177.7618469015796 657.3333333333334,177.7618469015796 C 689,177.7618469015796 689,136.9356014580802 720.6666666666667,136.9356014580802 C 752.3333333333334,136.9356014580802 752.3333333333334,85.3924665856622 784,85.3924665856622 L 784,104.1044957472661 C 752.3333333333334,104.1044957472661 752.3333333333334,147.65249088699878 720.6666666666667,147.65249088699878 C 689,147.65249088699878 689,182.1846901579587 657.3333333333334,182.1846901579587 C 625.6666666666667,182.1846901579587 625.6666666666667,205.3195625759417 594,205.3195625759417 C 562.3333333333334,205.3195625759417 562.3333333333334,202.08748481166464 530.6666666666667,202.08748481166464 C 499.00000000000006,202.08748481166464 499.00000000000006,205.1494532199271 467.33333333333337,205.1494532199271 C 435.6666666666667,205.1494532199271 435.6666666666667,200.89671931956258 404,200.89671931956258 C 372.33333333333337,200.89671931956258 372.33333333333337,206 340.6666666666667,206 C 309,206 309,205.65978128797084 277.33333333333337,205.65978128797084 C 245.66666666666669,205.65978128797084 245.66666666666669,205.3195625759417 214,205.3195625759417 C 182.33333333333334,205.3195625759417 182.33333333333334,205.48967193195625 150.66666666666669,205.48967193195625 C 119.00000000000001,205.48967193195625 119.00000000000001,206 87.33333333333334,206 C 55.66666666666667,206 55.66666666666667,206 24,206 Z" fill="#89e051" fill-opacity="0.75" class="fade-5"/><path key="Go" d="M 24,206 C 55.66666666666667,206 55.66666666666667,206 87.33333333333334,206 C 119.00000000000001,206 119.00000000000001,205.48967193195625 150.66666666666669,205.48967193195625 C 182.33333333333334,205.48967193195625 182.33333333333334,205.3195625759417 214,205.3195625759417 C 245.66666666666669,205.3195625759417 245.66666666666669,205.65978128797084 277.33333333333337,205.65978128797084 C 309,205.65978128797084 309,206 340.6666666666667,206 C 372.33333333333337,206 372.33333333333337,200.89671931956258 404,200.89671931956258 C 435.6666666666667,200.89671931956258 435.6666666666667,205.1494532199271 467.33333333333337,205.1494532199271 C 499.00000000000006,205.1494532199271 499.00000000000006,202.08748481166464 530.6666666666667,202.08748481166464 C 562.3333333333334,202.08748481166464 562.3333333333334,205.3195625759417 594,205.3195625759417 C 625.6666666666667,205.3195625759417 625.6666666666667,182.1846901579587 657.3333333333334,182.1846901579587 C 689,182.1846901579587 689,147.65249088699878 720.6666666666667,147.65249088699878 C 752.3333333333334,147.65249088699878 752.3333333333334,104.1044957472661 784,104.1044957472661 L 784,127.23936816524909 C 752.3333333333334,127.23936816524909 752.3333333333334,160.92102065613608 720.6666666666667,160.92102065613608 C 689,160.92102065613608 689,187.62818955042528 657.3333333333334,187.62818955042528 C 625.6666666666667,187.62818955042528 625.6666666666667,205.48967193195625 594,205.48967193195625 C 562.3333333333334,205.48967193195625 562.3333333333334,202.93803159173754 530.6666666666667,202.93803159173754 C 499.00000000000006,202.93803159173754 499.00000000000006,205.3195625759417 467.33333333333337,205.3195625759417 C 435.6666666666667,205.3195625759417 435.6666666666667,202.08748481166464 404,202.08748481166464 C 372.33333333333337,202.08748481166464 372.33333333333337,206 340.6666666666667,206 C 309,206 309,205.65978128797084 277.33333333333337,205.65978128797084 C 245.66666666666669,205.65978128797084 245.66666666666669,205.48967193195625 214,205.48967193195625 C 182.33333333333334,205.48967193195625 182.33333333333334,205.65978128797084 150.66666666666669,205.65978128797084 C 119.00000000000001,205.65978128797084 119.00000000000001,206 87.33333333333334,206 C 55.66666666666667,206 55.66666666666667,206 24,206 Z" fill="#00ADD8" fill-opacity="0.75" class="fade-6"/><path key="TypeScript" d="M 24,206 C 55.66666666666667,206 55.66666666666667,206 87.33333333333334,206 C 119.00000000000001,206 119.00000000000001,205.65978128797084 150.66666666666669,205.65978128797084 C 182.33333333333334,205.65978128797084 182.33333333333334,205.48967193195625 214,205.48967193195625 C 245.66666666666669,205.48967193195625 245.66666666666669,205.65978128797084 277.33333333333337,205.65978128797084 C 309,205.65978128797084 309,206 340.6666666666667,206 C 372.33333333333337,206 372.33333333333337,202.08748481166464 404,202.08748481166464 C 435.6666666666667,202.08748481166464 435.6666666666667,205.3195625759417 467.33333333333337,205.3195625759417 C 499.00000000000006,205.3195625759417 499.00000000000006,202.93803159173754 530.6666666666667,202.93803159173754 C 562.3333333333334,202.93803159173754 562.3333333333334,205.48967193195625 594,205.48967193195625 C 625.6666666666667,205.48967193195625 625.6666666666667,187.62818955042528 657.3333333333334,187.62818955042528 C 689,187.62818955042528 689,160.92102065613608 720.6666666666667,160.92102065613608 C 752.3333333333334,160.92102065613608 752.3333333333334,127.23936816524909 784,127.23936816524909 L 784,157.68894289185906 C 752.3333333333334,157.68894289185906 752.3333333333334,178.27217496962334 720.6666666666667,178.27217496962334 C 689,178.27217496962334 689,194.77278250303766 657.3333333333334,194.77278250303766 C 625.6666666666667,194.77278250303766 625.6666666666667,205.65978128797084 594,205.65978128797084 C 562.3333333333334,205.65978128797084 562.3333333333334,204.1287970838396 530.6666666666667,204.1287970838396 C 499.00000000000006,204.1287970838396 499.00000000000006,205.65978128797084 467.33333333333337,205.65978128797084 C 435.6666666666667,205.65978128797084 435.6666666666667,203.61846901579588 404,203.61846901579588 C 372.33333333333337,203.61846901579588 372.33333333333337,206 340.6666666666667,206 C 309,206 309,205.8298906439854 277.33333333333337,205.8298906439854 C 245.66666666666669,205.8298906439854 245.66666666666669,205.65978128797084 214,205.65978128797084 C 182.33333333333334,205.65978128797084 182.33333333333334,205.8298906439854 150.66666666666669,205.8298906439854 C 119.00000000000001,205.8298906439854 119.00000000000001,206 87.33333333333334,206 C 55.66666666666667,206 55.66666666666667,206 24,206 Z" fill="#3178c6" fill-opacity="0.75" class="fade-6"/><path key="Rust" d="M 24,206 C 55.66666666666667,206 55.66666666666667,206 87.33333333333334,206 C 119.00000000000001,206 119.00000000000001,205.8298906439854 150.66666666666669,205.8298906439854 C 182.33333333333334,205.8298906439854 182.33333333333334,205.65978128797084 214,205.65978128797084 C 245.66666666666669,205.65978128797084 245.66666666666669,205.8298906439854 277.33333333333337,205.8298906439854 C 309,205.8298906439854 309,206 340.6666666666667,206 C 372.33333333333337,206 372.33333333333337,203.61846901579588 404,203.61846901579588 C 435.6666666666667,203.61846901579588 435.6666666666667,205.65978128797084 467.33333333333337,205.65978128797084 C 499.00000000000006,205.65978128797084 499.00000000000006,204.1287970838396 530.6666666666667,204.1287970838396 C 562.3333333333334,204.1287970838396 562.3333333333334,205.65978128797084 594,205.65978128797084 C 625.6666666666667,205.65978128797084 625.6666666666667,194.77278250303766 657.3333333333334,194.77278250303766 C 689,194.77278250303766 689,178.27217496962334 720.6666666666667,178.27217496962334 C 752.3333333333334,178.27217496962334 752.3333333333334,157.68894289185906 784,157.68894289185906 L 784,206 C 752.3333333333334,206 752.3333333333334,206 720.6666666666667,206 C 689,206 689,206 657.3333333333334,206 C 625.6666666666667,206 625.6666666666667,206 594,206 C 562.3333333333334,206 562.3333333333334,206 530.6666666666667,206 C 499.00000000000006,206 499.00000000000006,206 467.33333333333337,206 C 435.6666666666667,206 435.6666666666667,206 404,206 C 372.33333333333337,206 372.33333333333337,206 340.6666666666667,206 C 309,206 309,206 277.33333333333337,206 C 245.66666666666669,206 245.66666666666669,206 214,206 C 182.33333333333334,206 182.33333333333334,206 150.66666666666669,206 C 119.00000000000001,206 119.00000000000001,206 87.33333333333334,206 C 55.66666666666667,206 55.66666666666667,206 24,206 Z" fill="#dea584" fill-opacity="0.75" class="fade-6"/><rect x="24" y="212" width="8" height="8" rx="2" fill="#dea584" opacity="0.85"/><text x="36" y="220" class="t t-value">Rust</text><rect x="80" y="212" width="8" height="8" rx="2" fill="#3178c6" opacity="0.85"/><text x="92" y="220" class="t t-value">TypeScript</text><rect x="178" y="212" width="8" height="8" rx="2" fill="#00ADD8" opacity="0.85"/><text x="190" y="220" class="t t-value">Go</text><rect x="220" y="212" width="8" height="8" rx="2" fill="#89e051" opacity="0.85"/><text x="232" y="220" class="t t-value">Shell</text><rect x="283" y="212" width="8" height="8" rx="2" fill="#3572A5" opacity="0.85"/><text x="295" y="220" class="t t-value">Python</text><rect x="353" y="212" width="8" height="8" rx="2" fill="#b07219" opacity="0.85"/><text x="365" y="220" class="t t-value">Java</text><rect x="409" y="212" width="8" height="8" rx="2" fill="#3D6117" opacity="0.85"/><text x="421" y="220" class="t t-value">TeX</text><rect x="458" y="212" width="8" height="8" rx="2" fill="#DA5B0B" opacity="0.85"/><text x="470" y="220" class="t t-value">Jupyter Notebook</text><text key="Feb" x="24" y="220" class="t t-value" text-anchor="start" opacity="0">Feb</text><text key="Apr" x="150.66666666666669" y="220" class="t t-value" text-anchor="start" opacity="0">Apr</text><text key="Jun" x="277.33333333333337" y="220" class="t t-value" text-anchor="start" opacity="0">Jun</text><text key="Aug" x="404" y="220" class="t t-value" text-anchor="start" opacity="0">Aug</text><text key="Oct" x="530.6666666666667" y="220" class="t t-value" text-anchor="start" opacity="0">Oct</text><text key="Dec" x="657.3333333333334" y="220" class="t t-value" text-anchor="start" opacity="0">Dec</text><text key="Feb" x="784" y="220" class="t t-value" text-anchor="start" opacity="0">Feb</text><text x="24" y="282" class="t t-h">CONTRIBUTION RHYTHM</text><text x="24" y="298" class="t t-sub">Activity patterns and statistics over the past year</text><circle key="0.25" cx="144" cy="428" r="22.5" fill="none" stroke="#30363d" stroke-width="1" stroke-opacity="0.4"/><circle key="0.5" cx="144" cy="428" r="45" fill="none" stroke="#30363d" stroke-width="1" stroke-opacity="0.4"/><circle key="0.75" cx="144" cy="428" r="67.5" fill="none" stroke="#30363d" stroke-width="1" stroke-opacity="0.4"/><circle key="1" cx="144" cy="428" r="90" fill="none" stroke="#30363d" stroke-width="1" stroke-opacity="0.4"/><line key="Sun" x1="144" y1="428" x2="144" y2="338" stroke="#30363d" stroke-width="1" stroke-opacity="0.3"/><line key="Mon" x1="144" y1="428" x2="214.36483342212267" y2="371.885917832714" stroke="#30363d" stroke-width="1" stroke-opacity="0.3"/><line key="Tue" x1="144" y1="428" x2="231.74351209636413" y2="448.0268840560683" stroke="#30363d" stroke-width="1" stroke-opacity="0.3"/><line key="Wed" x1="144" y1="428" x2="183.04953652058023" y2="509.08719811121773" stroke="#30363d" stroke-width="1" stroke-opacity="0.3"/><line key="Thu" x1="144" y1="428" x2="104.95046347941977" y2="509.08719811121773" stroke="#30363d" stroke-width="1" stroke-opacity="0.3"/><line key="Fri" x1="144" y1="428" x2="56.25648790363587" y2="448.0268840560683" stroke="#30363d" stroke-width="1" stroke-opacity="0.3"/><line key="Sat" x1="144" y1="428" x2="73.63516657787731" y2="371.885917832714" stroke="#30363d" stroke-width="1" stroke-opacity="0.3"/><polygon points="144,385.8190255220418 177.1416732823455,401.5703974942945 204.8707891341366,441.8933604008455 155.14406726689413,451.14089412454706 132.3123196956964,452.2697182281835 56.25648790363587,448.0268840560683 83.10421608711889,379.4372328343441" fill="#58a6ff" fill-opacity="0.2" stroke="#58a6ff" stroke-width="2" stroke-opacity="0.8" class="fade-2" style="transform-origin: 144px 428px"/><circle key="Sun" cx="144" cy="385.8190255220418" r="3" fill="#58a6ff" class="fade-1"/><circle key="Mon" cx="177.1416732823455" cy="401.5703974942945" r="3" fill="#58a6ff" class="fade-2"/><circle key="Tue" cx="204.8707891341366" cy="441.8933604008455" r="3" fill="#58a6ff" class="fade-3"/><circle key="Wed" cx="155.14406726689413" cy="451.14089412454706" r="3" fill="#58a6ff" class="fade-4"/><circle key="Thu" cx="132.3123196956964" cy="452.2697182281835" r="3" fill="#58a6ff" class="fade-5"/><circle key="Fri" cx="56.25648790363587" cy="448.0268840560683" r="3" fill="#58a6ff" class="fade-6"/><circle key="Sat" cx="83.10421608711889" cy="379.4372328343441" r="3" fill="#58a6ff" class="fade-6"/><text key="Sun" x="144" y="326" class="t t-value" text-anchor="middle">Sun</text><text key="Mon" x="226.87413714161116" y="365.91008100297427" class="t t-value" text-anchor="middle">Mon</text><text key="Tue" x="247.34235869127332" y="455.5872189993693" class="t t-value" text-anchor="middle">Tue</text><text key="Wed" x="189.99167634646116" y="527.5026999976565" class="t t-value" text-anchor="middle">Wed</text><text key="Thu" x="98.00832365353884" y="527.5026999976565" class="t t-value" text-anchor="middle">Thu</text><text key="Fri" x="40.657641308726696" y="455.5872189993693" class="t t-value" text-anchor="middle">Fri</text><text key="Sat" x="61.12586285838883" y="365.91008100297427" class="t t-value" text-anchor="middle">Sat</text><text x="324" y="338" class="t t-stat-label">COMMITS</text><text x="324" y="360" fill="#58a6ff" class="t t-stat-value">1,613</text><text x="324" y="380" class="t t-stat-label">PRS</text><text x="324" y="402" fill="#3fb950" class="t t-stat-value">25</text><text x="324" y="422" class="t t-stat-label">REVIEWS</text><text x="324" y="444" fill="#d29922" class="t t-stat-value">5</text><text x="324" y="464" class="t t-stat-label">REPOS</text><text x="324" y="486" fill="#bc8cff" class="t t-stat-value">25</text><text x="324" y="506" class="t t-stat-label">STREAK</text><text x="324" y="528" fill="#39d2c0" class="t t-stat-value">15d</text><text x="24" y="614" class="t t-h">PROJECT CONSTELLATION</text><text x="24" y="630" class="t t-sub">Projects mapped by language ecosystem and complexity</text><line key="0-2" x1="103.2" y1="670" x2="487.2" y2="733.8163591344809" stroke="#30363d" stroke-width="1" stroke-opacity="0.15" stroke-dasharray="4 4"/><line key="0-3" x1="103.2" y1="670" x2="116" y2="739.2362538816168" stroke="#30363d" stroke-width="1" stroke-opacity="0.15" stroke-dasharray="4 4"/><line key="0-4" x1="103.2" y1="670" x2="679.2" y2="743.7532987043975" stroke="#30363d" stroke-width="1" stroke-opacity="0.15" stroke-dasharray="4 4"/><line key="0-6" x1="103.2" y1="670" x2="128.8" y2="809.7368136094472" stroke="#30363d" stroke-width="1" stroke-opacity="0.15" stroke-dasharray="4 4"/><line key="0-7" x1="103.2" y1="670" x2="564" y2="815.7506818583961" stroke="#30363d" stroke-width="1" stroke-opacity="0.15" stroke-dasharray="4 4"/><line key="0-8" x1="103.2" y1="670" x2="692" y2="820.4284574504966" stroke="#30363d" stroke-width="1" stroke-opacity="0.15" stroke-dasharray="4 4"/><line key="0-9" x1="103.2" y1="670" x2="491.46666666666664" y2="828.6882764178956" stroke="#30363d" stroke-width="1" stroke-opacity="0.15" stroke-dasharray="4 4"/><line key="0-11" x1="103.2" y1="670" x2="495.73333333333335" y2="844.2044371921874" stroke="#30363d" stroke-width="1" stroke-opacity="0.15" stroke-dasharray="4 4"/><line key="0-12" x1="103.2" y1="670" x2="500" y2="865.3613135929465" stroke="#30363d" stroke-width="1" stroke-opacity="0.15" stroke-dasharray="4 4"/><line key="0-13" x1="103.2" y1="670" x2="431.73333333333335" y2="867.1753990446698" stroke="#30363d" stroke-width="1" stroke-opacity="0.15" stroke-dasharray="4 4"/><line key="0-15" x1="103.2" y1="670" x2="504.26666666666665" y2="874.2584383893022" stroke="#30363d" stroke-width="1" stroke-opacity="0.15" stroke-dasharray="4 4"/><line key="0-20" x1="103.2" y1="670" x2="508.53333333333336" y2="907.890296871788" stroke="#30363d" stroke-width="1" stroke-opacity="0.15" stroke-dasharray="4 4"/><line key="0-23" x1="103.2" y1="670" x2="628" y2="919.5071522452263" stroke="#30363d" stroke-width="1" stroke-opacity="0.15" stroke-dasharray="4 4"/><line key="1-5" x1="295.2" y1="712.3953295272465" x2="423.2" y2="759.2722546796933" stroke="#30363d" stroke-width="1" stroke-opacity="0.15" stroke-dasharray="4 4"/><line key="1-8" x1="295.2" y1="712.3953295272465" x2="692" y2="820.4284574504966" stroke="#30363d" stroke-width="1" stroke-opacity="0.15" stroke-dasharray="4 4"/><line key="1-10" x1="295.2" y1="712.3953295272465" x2="320.8" y2="833.167579315541" stroke="#30363d" stroke-width="1" stroke-opacity="0.15" stroke-dasharray="4 4"/><line key="1-13" x1="295.2" y1="712.3953295272465" x2="431.73333333333335" y2="867.1753990446698" stroke="#30363d" stroke-width="1" stroke-opacity="0.15" stroke-dasharray="4 4"/><line key="2-3" x1="487.2" y1="733.8163591344809" x2="116" y2="739.2362538816168" stroke="#30363d" stroke-width="1" stroke-opacity="0.15" stroke-dasharray="4 4"/><line key="2-6" x1="487.2" y1="733.8163591344809" x2="128.8" y2="809.7368136094472" stroke="#30363d" stroke-width="1" stroke-opacity="0.15" stroke-dasharray="4 4"/><line key="2-7" x1="487.2" y1="733.8163591344809" x2="564" y2="815.7506818583961" stroke="#30363d" stroke-width="1" stroke-opacity="0.15" stroke-dasharray="4 4"/><line key="2-8" x1="487.2" y1="733.8163591344809" x2="692" y2="820.4284574504966" stroke="#30363d" stroke-width="1" stroke-opacity="0.15" stroke-dasharray="4 4"/><line key="2-9" x1="487.2" y1="733.8163591344809" x2="491.46666666666664" y2="828.6882764178956" stroke="#30363d" stroke-width="1" stroke-opacity="0.15" stroke-dasharray="4 4"/><line key="2-11" x1="487.2" y1="733.8163591344809" x2="495.73333333333335" y2="844.2044371921874" stroke="#30363d" stroke-width="1" stroke-opacity="0.15" stroke-dasharray="4 4"/><line key="2-12" x1="487.2" y1="733.8163591344809" x2="500" y2="865.3613135929465" stroke="#30363d" stroke-width="1" stroke-opacity="0.15" stroke-dasharray="4 4"/><line key="2-15" x1="487.2" y1="733.8163591344809" x2="504.26666666666665" y2="874.2584383893022" stroke="#30363d" stroke-width="1" stroke-opacity="0.15" stroke-dasharray="4 4"/><line key="2-20" x1="487.2" y1="733.8163591344809" x2="508.53333333333336" y2="907.890296871788" stroke="#30363d" stroke-width="1" stroke-opacity="0.15" stroke-dasharray="4 4"/><line key="2-21" x1="487.2" y1="733.8163591344809" x2="512.8" y2="907.9489960928761" stroke="#30363d" stroke-width="1" stroke-opacity="0.15" stroke-dasharray="4 4"/><line key="3-6" x1="116" y1="739.2362538816168" x2="128.8" y2="809.7368136094472" stroke="#30363d" stroke-width="1" stroke-opacity="0.15" stroke-dasharray="4 4"/><line key="3-7" x1="116" y1="739.2362538816168" x2="564" y2="815.7506818583961" stroke="#30363d" stroke-width="1" stroke-opacity="0.15" stroke-dasharray="4 4"/><line key="3-8" x1="116" y1="739.2362538816168" x2="692" y2="820.4284574504966" stroke="#30363d" stroke-width="1" stroke-opacity="0.15" stroke-dasharray="4 4"/><line key="3-9" x1="116" y1="739.2362538816168" x2="491.46666666666664" y2="828.6882764178956" stroke="#30363d" stroke-width="1" stroke-opacity="0.15" stroke-dasharray="4 4"/><line key="3-11" x1="116" y1="739.2362538816168" x2="495.73333333333335" y2="844.2044371921874" stroke="#30363d" stroke-width="1" stroke-opacity="0.15" stroke-dasharray="4 4"/><line key="3-12" x1="116" y1="739.2362538816168" x2="500" y2="865.3613135929465" stroke="#30363d" stroke-width="1" stroke-opacity="0.15" stroke-dasharray="4 4"/><line key="3-15" x1="116" y1="739.2362538816168" x2="504.26666666666665" y2="874.2584383893022" stroke="#30363d" stroke-width="1" stroke-opacity="0.15" stroke-dasharray="4 4"/><line key="3-20" x1="116" y1="739.2362538816168" x2="508.53333333333336" y2="907.890296871788" stroke="#30363d" stroke-width="1" stroke-opacity="0.15" stroke-dasharray="4 4"/><line key="4-8" x1="679.2" y1="743.7532987043975" x2="692" y2="820.4284574504966" stroke="#30363d" stroke-width="1" stroke-opacity="0.15" stroke-dasharray="4 4"/><line key="4-9" x1="679.2" y1="743.7532987043975" x2="491.46666666666664" y2="828.6882764178956" stroke="#30363d" stroke-width="1" stroke-opacity="0.15" stroke-dasharray="4 4"/><line key="4-19" x1="679.2" y1="743.7532987043975" x2="244" y2="907.1970870227474" stroke="#30363d" stroke-width="1" stroke-opacity="0.15" stroke-dasharray="4 4"/><line key="5-8" x1="423.2" y1="759.2722546796933" x2="692" y2="820.4284574504966" stroke="#30363d" stroke-width="1" stroke-opacity="0.15" stroke-dasharray="4 4"/><line key="5-10" x1="423.2" y1="759.2722546796933" x2="320.8" y2="833.167579315541" stroke="#30363d" stroke-width="1" stroke-opacity="0.15" stroke-dasharray="4 4"/><line key="5-13" x1="423.2" y1="759.2722546796933" x2="431.73333333333335" y2="867.1753990446698" stroke="#30363d" stroke-width="1" stroke-opacity="0.15" stroke-dasharray="4 4"/><line key="6-7" x1="128.8" y1="809.7368136094472" x2="564" y2="815.7506818583961" stroke="#30363d" stroke-width="1" stroke-opacity="0.15" stroke-dasharray="4 4"/><line key="6-8" x1="128.8" y1="809.7368136094472" x2="692" y2="820.4284574504966" stroke="#30363d" stroke-width="1" stroke-opacity="0.15" stroke-dasharray="4 4"/><line key="6-9" x1="128.8" y1="809.7368136094472" x2="491.46666666666664" y2="828.6882764178956" stroke="#30363d" stroke-width="1" stroke-opacity="0.15" stroke-dasharray="4 4"/><line key="6-11" x1="128.8" y1="809.7368136094472" x2="495.73333333333335" y2="844.2044371921874" stroke="#30363d" stroke-width="1" stroke-opacity="0.15" stroke-dasharray="4 4"/><line key="6-12" x1="128.8" y1="809.7368136094472" x2="500" y2="865.3613135929465" stroke="#30363d" stroke-width="1" stroke-opacity="0.15" stroke-dasharray="4 4"/><line key="6-15" x1="128.8" y1="809.7368136094472" x2="504.26666666666665" y2="874.2584383893022" stroke="#30363d" stroke-width="1" stroke-opacity="0.15" stroke-dasharray="4 4"/><line key="6-20" x1="128.8" y1="809.7368136094472" x2="508.53333333333336" y2="907.890296871788" stroke="#30363d" stroke-width="1" stroke-opacity="0.15" stroke-dasharray="4 4"/><line key="7-8" x1="564" y1="815.7506818583961" x2="692" y2="820.4284574504966" stroke="#30363d" stroke-width="1" stroke-opacity="0.15" stroke-dasharray="4 4"/><line key="7-9" x1="564" y1="815.7506818583961" x2="491.46666666666664" y2="828.6882764178956" stroke="#30363d" stroke-width="1" stroke-opacity="0.15" stroke-dasharray="4 4"/><line key="7-11" x1="564" y1="815.7506818583961" x2="495.73333333333335" y2="844.2044371921874" stroke="#30363d" stroke-width="1" stroke-opacity="0.15" stroke-dasharray="4 4"/><line key="7-12" x1="564" y1="815.7506818583961" x2="500" y2="865.3613135929465" stroke="#30363d" stroke-width="1" stroke-opacity="0.15" stroke-dasharray="4 4"/><line key="7-15" x1="564" y1="815.7506818583961" x2="504.26666666666665" y2="874.2584383893022" stroke="#30363d" stroke-width="1" stroke-opacity="0.15" stroke-dasharray="4 4"/><line key="7-16" x1="564" y1="815.7506818583961" x2="192.8" y2="883.5804337382958" stroke="#30363d" stroke-width="1" stroke-opacity="0.15" stroke-dasharray="4 4"/><line key="7-20" x1="564" y1="815.7506818583961" x2="508.53333333333336" y2="907.890296871788" stroke="#30363d" stroke-width="1" stroke-opacity="0.15" stroke-dasharray="4 4"/><line key="8-9" x1="692" y1="820.4284574504966" x2="491.46666666666664" y2="828.6882764178956" stroke="#30363d" stroke-width="1" stroke-opacity="0.15" stroke-dasharray="4 4"/><line key="8-10" x1="692" y1="820.4284574504966" x2="320.8" y2="833.167579315541" stroke="#30363d" stroke-width="1" stroke-opacity="0.15" stroke-dasharray="4 4"/><line key="8-11" x1="692" y1="820.4284574504966" x2="495.73333333333335" y2="844.2044371921874" stroke="#30363d" stroke-width="1" stroke-opacity="0.15" stroke-dasharray="4 4"/><line key="8-12" x1="692" y1="820.4284574504966" x2="500" y2="865.3613135929465" stroke="#30363d" stroke-width="1" stroke-opacity="0.15" stroke-dasharray="4 4"/><line key="8-13" x1="692" y1="820.4284574504966" x2="431.73333333333335" y2="867.1753990446698" stroke="#30363d" stroke-width="1" stroke-opacity="0.15" stroke-dasharray="4 4"/><line key="8-15" x1="692" y1="820.4284574504966" x2="504.26666666666665" y2="874.2584383893022" stroke="#30363d" stroke-width="1" stroke-opacity="0.15" stroke-dasharray="4 4"/><line key="8-17" x1="692" y1="820.4284574504966" x2="440.26666666666665" y2="886.52098519471" stroke="#30363d" stroke-width="1" stroke-opacity="0.15" stroke-dasharray="4 4"/><line key="8-18" x1="692" y1="820.4284574504966" x2="704.8" y2="897.5592339602797" stroke="#30363d" stroke-width="1" stroke-opacity="0.15" stroke-dasharray="4 4"/><line key="8-19" x1="692" y1="820.4284574504966" x2="244" y2="907.1970870227474" stroke="#30363d" stroke-width="1" stroke-opacity="0.15" stroke-dasharray="4 4"/><line key="8-20" x1="692" y1="820.4284574504966" x2="508.53333333333336" y2="907.890296871788" stroke="#30363d" stroke-width="1" stroke-opacity="0.15" stroke-dasharray="4 4"/><line key="9-11" x1="491.46666666666664" y1="828.6882764178956" x2="495.73333333333335" y2="844.2044371921874" stroke="#30363d" stroke-width="1" stroke-opacity="0.15" stroke-dasharray="4 4"/><line key="9-12" x1="491.46666666666664" y1="828.6882764178956" x2="500" y2="865.3613135929465" stroke="#30363d" stroke-width="1" stroke-opacity="0.15" stroke-dasharray="4 4"/><line key="9-15" x1="491.46666666666664" y1="828.6882764178956" x2="504.26666666666665" y2="874.2584383893022" stroke="#30363d" stroke-width="1" stroke-opacity="0.15" stroke-dasharray="4 4"/><line key="9-20" x1="491.46666666666664" y1="828.6882764178956" x2="508.53333333333336" y2="907.890296871788" stroke="#30363d" stroke-width="1" stroke-opacity="0.15" stroke-dasharray="4 4"/><line key="9-21" x1="491.46666666666664" y1="828.6882764178956" x2="512.8" y2="907.9489960928761" stroke="#30363d" stroke-width="1" stroke-opacity="0.15" stroke-dasharray="4 4"/><line key="10-13" x1="320.8" y1="833.167579315541" x2="431.73333333333335" y2="867.1753990446698" stroke="#30363d" stroke-width="1" stroke-opacity="0.15" stroke-dasharray="4 4"/><line key="11-12" x1="495.73333333333335" y1="844.2044371921874" x2="500" y2="865.3613135929465" stroke="#30363d" stroke-width="1" stroke-opacity="0.15" stroke-dasharray="4 4"/><line key="11-15" x1="495.73333333333335" y1="844.2044371921874" x2="504.26666666666665" y2="874.2584383893022" stroke="#30363d" stroke-width="1" stroke-opacity="0.15" stroke-dasharray="4 4"/><line key="11-20" x1="495.73333333333335" y1="844.2044371921874" x2="508.53333333333336" y2="907.890296871788" stroke="#30363d" stroke-width="1" stroke-opacity="0.15" stroke-dasharray="4 4"/><line key="11-21" x1="495.73333333333335" y1="844.2044371921874" x2="512.8" y2="907.9489960928761" stroke="#30363d" stroke-width="1" stroke-opacity="0.15" stroke-dasharray="4 4"/><line key="12-15" x1="500" y1="865.3613135929465" x2="504.26666666666665" y2="874.2584383893022" stroke="#30363d" stroke-width="1" stroke-opacity="0.15" stroke-dasharray="4 4"/><line key="12-20" x1="500" y1="865.3613135929465" x2="508.53333333333336" y2="907.890296871788" stroke="#30363d" stroke-width="1" stroke-opacity="0.15" stroke-dasharray="4 4"/><line key="12-21" x1="500" y1="865.3613135929465" x2="512.8" y2="907.9489960928761" stroke="#30363d" stroke-width="1" stroke-opacity="0.15" stroke-dasharray="4 4"/><line key="13-23" x1="431.73333333333335" y1="867.1753990446698" x2="628" y2="919.5071522452263" stroke="#30363d" stroke-width="1" stroke-opacity="0.15" stroke-dasharray="4 4"/><line key="15-20" x1="504.26666666666665" y1="874.2584383893022" x2="508.53333333333336" y2="907.890296871788" stroke="#30363d" stroke-width="1" stroke-opacity="0.15" stroke-dasharray="4 4"/><line key="15-21" x1="504.26666666666665" y1="874.2584383893022" x2="512.8" y2="907.9489960928761" stroke="#30363d" stroke-width="1" stroke-opacity="0.15" stroke-dasharray="4 4"/><line key="20-21" x1="508.53333333333336" y1="907.890296871788" x2="512.8" y2="907.9489960928761" stroke="#30363d" stroke-width="1" stroke-opacity="0.15" stroke-dasharray="4 4"/><circle cx="103.2" cy="670" r="26" fill="#00ADD8" fill-opacity="0.08" class="fade-1"/><circle cx="103.2" cy="670" r="22" fill="#00ADD8" fill-opacity="0.7" stroke="#00ADD8" stroke-width="1.5" stroke-opacity="0.9" class="fade-1"/><text x="103.2" y="706" class="t t-value fade-1" text-anchor="middle">incipit</text><circle cx="295.2" cy="712.3953295272465" r="26" fill="#DA5B0B" fill-opacity="0.08" class="fade-2"/><circle cx="295.2" cy="712.3953295272465" r="22" fill="#DA5B0B" fill-opacity="0.7" stroke="#DA5B0B" stroke-width="1.5" stroke-opacity="0.9" class="fade-2"/><text x="295.2" y="748.3953295272465" class="t t-value fade-2" text-anchor="middle">lepus-classifier</text><circle cx="487.2" cy="733.8163591344809" r="26" fill="#dea584" fill-opacity="0.08" class="fade-3"/><circle cx="487.2" cy="733.8163591344809" r="22" fill="#dea584" fill-opacity="0.7" stroke="#dea584" stroke-width="1.5" stroke-opacity="0.9" class="fade-3"/><text x="487.2" y="769.8163591344809" class="t t-value fade-3" text-anchor="middle">linear-gp</text><circle cx="116" cy="739.2362538816168" r="26" fill="#00ADD8" fill-opacity="0.08" class="fade-4"/><circle cx="116" cy="739.2362538816168" r="22" fill="#00ADD8" fill-opacity="0.7" stroke="#00ADD8" stroke-width="1.5" stroke-opacity="0.9" class="fade-4"/><text x="116" y="775.2362538816168" class="t t-value fade-4" text-anchor="middle">zigbee-rest</text><circle cx="679.2" cy="743.7532987043975" r="26" fill="#3178c6" fill-opacity="0.08" class="fade-5"/><circle cx="679.2" cy="743.7532987043975" r="22" fill="#3178c6" fill-opacity="0.7" stroke="#3178c6" stroke-width="1.5" stroke-opacity="0.9" class="fade-5"/><text x="679.2" y="779.7532987043975" class="t t-value fade-5" text-anchor="middle">urmzd.com</text><circle cx="423.2" cy="759.2722546796933" r="26" fill="#3572A5" fill-opacity="0.08" class="fade-6"/><circle cx="423.2" cy="759.2722546796933" r="22" fill="#3572A5" fill-opacity="0.7" stroke="#3572A5" stroke-width="1.5" stroke-opacity="0.9" class="fade-6"/><text x="423.2" y="795.2722546796933" class="t t-value fade-6" text-anchor="middle">exp-agi-models</text><circle cx="128.8" cy="809.7368136094472" r="24.342505005214687" fill="#00ADD8" fill-opacity="0.08" class="fade-6"/><circle cx="128.8" cy="809.7368136094472" r="20.342505005214687" fill="#00ADD8" fill-opacity="0.7" stroke="#00ADD8" stroke-width="1.5" stroke-opacity="0.9" class="fade-6"/><text x="128.8" y="844.0793186146618" class="t t-value fade-6" text-anchor="middle">saige</text><circle cx="564" cy="815.7506818583961" r="21.662575812224762" fill="#89e051" fill-opacity="0.08" class="fade-6"/><circle cx="564" cy="815.7506818583961" r="17.662575812224762" fill="#89e051" fill-opacity="0.7" stroke="#89e051" stroke-width="1.5" stroke-opacity="0.9" class="fade-6"/><text x="564" y="847.4132576706209" class="t t-value fade-6" text-anchor="middle">dotfiles</text><circle cx="692" cy="820.4284574504966" r="15.094655434673243" fill="#3178c6" fill-opacity="0.08" class="fade-6"/><circle cx="692" cy="820.4284574504966" r="11.094655434673243" fill="#3178c6" fill-opacity="0.7" stroke="#3178c6" stroke-width="1.5" stroke-opacity="0.9" class="fade-6"/><text x="692" y="845.5231128851698" class="t t-value fade-6" text-anchor="middle">zoro</text><circle cx="491.46666666666664" cy="828.6882764178956" r="26" fill="#dea584" fill-opacity="0.08" class="fade-6"/><circle cx="491.46666666666664" cy="828.6882764178956" r="22" fill="#dea584" fill-opacity="0.7" stroke="#dea584" stroke-width="1.5" stroke-opacity="0.9" class="fade-6"/><text x="491.46666666666664" y="864.6882764178956" class="t t-value fade-6" text-anchor="middle">teasr</text><circle cx="320.8" cy="833.167579315541" r="25.36863924926572" fill="#DA5B0B" fill-opacity="0.08" class="fade-6"/><circle cx="320.8" cy="833.167579315541" r="21.36863924926572" fill="#DA5B0B" fill-opacity="0.7" stroke="#DA5B0B" stroke-width="1.5" stroke-opacity="0.9" class="fade-6"/><text x="320.8" y="868.5362185648067" class="t t-value fade-6" text-anchor="middle">md-classifier</text><circle cx="495.73333333333335" cy="844.2044371921874" r="20.724121139246638" fill="#dea584" fill-opacity="0.08" class="fade-6"/><circle cx="495.73333333333335" cy="844.2044371921874" r="16.724121139246638" fill="#dea584" fill-opacity="0.7" stroke="#dea584" stroke-width="1.5" stroke-opacity="0.9" class="fade-6"/><text x="495.73333333333335" y="874.928558331434" class="t t-value fade-6" text-anchor="middle">oag</text><circle cx="500" cy="865.3613135929465" r="16.780076967884366" fill="#dea584" fill-opacity="0.08" class="fade-6"/><circle cx="500" cy="865.3613135929465" r="12.780076967884366" fill="#dea584" fill-opacity="0.7" stroke="#dea584" stroke-width="1.5" stroke-opacity="0.9" class="fade-6"/><text x="500" y="892.1413905608309" class="t t-value fade-6" text-anchor="middle">sr</text><circle cx="431.73333333333335" cy="867.1753990446698" r="24.287843736263678" fill="#3572A5" fill-opacity="0.08" class="fade-6"/><circle cx="431.73333333333335" cy="867.1753990446698" r="20.287843736263678" fill="#3572A5" fill-opacity="0.7" stroke="#3572A5" stroke-width="1.5" stroke-opacity="0.9" class="fade-6"/><text x="431.73333333333335" y="901.4632427809335" class="t t-value fade-6" text-anchor="middle">languide</text><circle cx="167.2" cy="869.3654905924423" r="24.861890796612347" fill="#b07219" fill-opacity="0.08" class="fade-6"/><circle cx="167.2" cy="869.3654905924423" r="20.861890796612347" fill="#b07219" fill-opacity="0.7" stroke="#b07219" stroke-width="1.5" stroke-opacity="0.9" class="fade-6"/><text x="167.2" y="904.2273813890546" class="t t-value fade-6" text-anchor="middle">flappy-bird</text><circle cx="504.26666666666665" cy="874.2584383893022" r="12.23248328671123" fill="#dea584" fill-opacity="0.08" class="fade-6"/><circle cx="504.26666666666665" cy="874.2584383893022" r="8.23248328671123" fill="#dea584" fill-opacity="0.7" stroke="#dea584" stroke-width="1.5" stroke-opacity="0.9" class="fade-6"/><text x="504.26666666666665" y="896.4909216760135" class="t t-value fade-6" text-anchor="middle">embed-src</text><circle cx="192.8" cy="883.5804337382958" r="14.637905107315877" fill="#b07219" fill-opacity="0.08" class="fade-6"/><circle cx="192.8" cy="883.5804337382958" r="10.637905107315877" fill="#b07219" fill-opacity="0.7" stroke="#b07219" stroke-width="1.5" stroke-opacity="0.9" class="fade-6"/><text x="192.8" y="908.2183388456117" class="t t-value fade-6" text-anchor="middle">barter-trader</text><circle cx="440.26666666666665" cy="886.52098519471" r="14.425254648846348" fill="#3572A5" fill-opacity="0.08" class="fade-6"/><circle cx="440.26666666666665" cy="886.52098519471" r="10.425254648846348" fill="#3572A5" fill-opacity="0.7" stroke="#3572A5" stroke-width="1.5" stroke-opacity="0.9" class="fade-6"/><text x="440.26666666666665" y="910.9462398435563" class="t t-value fade-6" text-anchor="middle">chess-cli</text><circle cx="704.8" cy="897.5592339602797" r="23.753985723824407" fill="#3178c6" fill-opacity="0.08" class="fade-6"/><circle cx="704.8" cy="897.5592339602797" r="19.753985723824407" fill="#3178c6" fill-opacity="0.7" stroke="#3178c6" stroke-width="1.5" stroke-opacity="0.9" class="fade-6"/><text x="704.8" y="931.3132196841041" class="t t-value fade-6" text-anchor="middle">github-insights</text><circle cx="244" cy="907.1970870227474" r="12.127871907170075" fill="#f1e05a" fill-opacity="0.08" class="fade-6"/><circle cx="244" cy="907.1970870227474" r="8.127871907170075" fill="#f1e05a" fill-opacity="0.7" stroke="#f1e05a" stroke-width="1.5" stroke-opacity="0.9" class="fade-6"/><text x="244" y="929.3249589299174" class="t t-value fade-6" text-anchor="middle">cypress-name-too-…</text><circle cx="508.53333333333336" cy="907.890296871788" r="10" fill="#dea584" fill-opacity="0.08" class="fade-6"/><circle cx="508.53333333333336" cy="907.890296871788" r="6" fill="#dea584" fill-opacity="0.7" stroke="#dea584" stroke-width="1.5" stroke-opacity="0.9" class="fade-6"/><text x="508.53333333333336" y="927.890296871788" class="t t-value fade-6" text-anchor="middle">gitit</text><circle cx="512.8" cy="907.9489960928761" r="10" fill="#dea584" fill-opacity="0.08" class="fade-6"/><circle cx="512.8" cy="907.9489960928761" r="6" fill="#dea584" fill-opacity="0.7" stroke="#dea584" stroke-width="1.5" stroke-opacity="0.9" class="fade-6"/><text x="512.8" y="927.9489960928761" class="t t-value fade-6" text-anchor="middle">llmem</text><circle cx="448.8" cy="916.3234183014472" r="10" fill="#3572A5" fill-opacity="0.08" class="fade-6"/><circle cx="448.8" cy="916.3234183014472" r="6" fill="#3572A5" fill-opacity="0.7" stroke="#3572A5" stroke-width="1.5" stroke-opacity="0.9" class="fade-6"/><text x="448.8" y="936.3234183014472" class="t t-value fade-6" text-anchor="middle">lightning-kfold</text><circle cx="628" cy="919.5071522452263" r="17.148001758235125" fill="#3D6117" fill-opacity="0.08" class="fade-6"/><circle cx="628" cy="919.5071522452263" r="13.148001758235123" fill="#3D6117" fill-opacity="0.7" stroke="#3D6117" stroke-width="1.5" stroke-opacity="0.9" class="fade-6"/><text x="628" y="946.6551540034613" class="t t-value fade-6" text-anchor="middle">rlgp-thesis</text><circle cx="372" cy="950" r="12.709114810338736" fill="#8b949e" fill-opacity="0.08" class="fade-6"/><circle cx="372" cy="950" r="8.709114810338736" fill="#8b949e" fill-opacity="0.7" stroke="#8b949e" stroke-width="1.5" stroke-opacity="0.9" class="fade-6"/><text x="372" y="972.7091148103387" class="t t-value fade-6" text-anchor="middle">urmzd</text><text x="24" y="1076" class="t t-h">OPEN SOURCE IMPACT</text><text x="24" y="1092" class="t t-sub">External repositories contributed to</text><text x="24" y="1131" class="t t-card-title fade-1">getzep/graphiti</text><rect x="304" y="1121" width="400" height="12" rx="3" fill="#58a6ff" fill-opacity="0.7" class="fade-1"/><text x="720" y="1131" class="t t-value fade-1">★ 24,220</text><text x="24" y="1145" class="t t-value fade-1">Python</text><text x="24" y="1187" class="t t-card-title fade-2">googleapis/python-aiplatform</text><rect x="304" y="1177" width="268.4196318290709" height="12" rx="3" fill="#3fb950" fill-opacity="0.7" class="fade-2"/><text x="720" y="1187" class="t t-value fade-2">★ 874</text><text x="24" y="1201" class="t t-value fade-2">Python</text><text x="24" y="1243" class="t t-card-title fade-3">MathisWellmann/gym-rs</text><rect x="304" y="1233" width="192.255260368296" height="12" rx="3" fill="#d29922" fill-opacity="0.7" class="fade-3"/><text x="720" y="1243" class="t t-value fade-3">★ 127</text><text x="24" y="1257" class="t t-value fade-3">Rust</text></svg>