<svg xmlns="http://www.w3.org/2000/svg" width="808" height="1892" viewBox="0 0 808 1892"><defs><style>
  .t { font-family: -apple-system,BlinkMacSystemFont,Segoe UI,Helvetica,Arial,sans-serif; font-variant-numeric: tabular-lining; }
  .t-h { font-size: 14px; fill: #c9d1d9; letter-spacing: 2px; font-weight: 600; }
  .t-sub { font-size: 11px; fill: #6e7681; }
  .t-label { font-size: 12px; fill: #8b949e; }
  .t-value { font-size: 11px; fill: #6e7681; }
  .t-subhdr { font-size: 11px; fill: #8b949e; letter-spacing: 1px; font-weight: 600; }
  .t-stat-label { font-size: 10px; fill: #8b949e; font-weight: 600; }
  .t-stat-value { font-size: 22px; font-weight: 700; }
  .t-card-title { font-size: 12px; fill: #58a6ff; font-weight: 700; }
  .t-card-detail { font-size: 11px; fill: #8b949e; }
  .t-pill { font-size: 11px; font-weight: 600; }
  .t-bullet { font-size: 12px; fill: #c9d1d9; }
  .bg-fill { fill: #0d1117; }
  .card-fill { fill: #161b22; }
  .border-stroke { stroke: #30363d; }

  @media (prefers-color-scheme: light) {
    .bg-fill { fill: #ffffff; }
    .card-fill { fill: #f6f8fa; }
    .border-stroke { stroke: #d0d7de; }
    .t-h { fill: #1f2328; }
    .t-sub { fill: #656d76; }
    .t-label { fill: #656d76; }
    .t-value { fill: #656d76; }
    .t-subhdr { fill: #656d76; }
    .t-stat-label { fill: #656d76; }
    .t-card-title { fill: #0969da; }
    .t-card-detail { fill: #656d76; }
    .t-bullet { fill: #1f2328; }
  }

  @keyframes fadeIn {
    from { opacity: 0; transform: translateY(8px); }
    to { opacity: 1; transform: translateY(0); }
  }
  @keyframes scaleIn {
    from { transform: scale(0); opacity: 0; }
    to { transform: scale(1); opacity: 1; }
  }
  @keyframes drawPath {
    from { stroke-dashoffset: var(--path-length); }
    to { stroke-dashoffset: 0; }
  }
  @keyframes radarReveal {
    from { transform: scale(0); opacity: 0; }
    to { transform: scale(1); opacity: 0.6; }
  }
  .fade-1 { animation: fadeIn 0.6s ease-out 0.1s both; }
  .fade-2 { animation: fadeIn 0.6s ease-out 0.25s both; }
  .fade-3 { animation: fadeIn 0.6s ease-out 0.4s both; }
  .fade-4 { animation: fadeIn 0.6s ease-out 0.55s both; }
  .fade-5 { animation: fadeIn 0.6s ease-out 0.7s both; }
  .fade-6 { animation: fadeIn 0.6s ease-out 0.85s both; }
</style></defs><rect width="808" height="1892" rx="12" class="bg-fill" fill="#0d1117"/><text x="24" y="40" class="t t-h">LANGUAGE VELOCITY</text><text x="24" y="56" class="t t-sub">How language usage has evolved over the past year</text><path key="TeX" d="M 24,206 C 55.66666666666667,206 55.66666666666667,206 87.33333333333334,206 C 119.00000000000001,206 119.00000000000001,205.56656346749227 150.66666666666669,205.56656346749227 C 182.33333333333334,205.56656346749227 182.33333333333334,205.27760577915376 214,205.27760577915376 C 245.66666666666669,205.27760577915376 245.66666666666669,205.71104231166152 277.33333333333337,205.71104231166152 C 309,205.71104231166152 309,206 340.6666666666667,206 C 372.33333333333337,206 372.33333333333337,200.36532507739938 404,200.36532507739938 C 435.6666666666667,200.36532507739938 435.6666666666667,204.98864809081527 467.33333333333337,204.98864809081527 C 499.00000000000006,204.98864809081527 499.00000000000006,201.3766769865841 530.6666666666667,201.3766769865841 C 562.3333333333334,201.3766769865841 562.3333333333334,205.27760577915376 594,205.27760577915376 C 625.6666666666667,205.27760577915376 625.6666666666667,178.40454076367388 657.3333333333334,178.40454076367388 C 689,178.40454076367388 689,132.02683178534573 720.6666666666667,132.02683178534573 C 752.3333333333334,132.02683178534573 752.3333333333334,66 784,66 L 784,67.01135190918473 C 752.3333333333334,67.01135190918473 752.3333333333334,132.6047471620227 720.6666666666667,132.6047471620227 C 689,132.6047471620227 689,178.54901960784315 657.3333333333334,178.54901960784315 C 625.6666666666667,178.54901960784315 625.6666666666667,205.27760577915376 594,205.27760577915376 C 562.3333333333334,205.27760577915376 562.3333333333334,201.3766769865841 530.6666666666667,201.3766769865841 C 499.00000000000006,201.3766769865841 499.00000000000006,204.98864809081527 467.33333333333337,204.98864809081527 C 435.6666666666667,204.98864809081527 435.6666666666667,200.36532507739938 404,200.36532507739938 C 372.33333333333337,200.36532507739938 372.33333333333337,206 340.6666666666667,206 C 309,206 309,205.71104231166152 277.33333333333337,205.71104231166152 C 245.66666666666669,205.71104231166152 245.66666666666669,205.27760577915376 214,205.27760577915376 C 182.33333333333334,205.27760577915376 182.33333333333334,205.56656346749227 150.66666666666669,205.56656346749227 C 119.00000000000001,205.56656346749227 119.00000000000001,206 87.33333333333334,206 C 55.66666666666667,206 55.66666666666667,206 24,206 Z" fill="#3D6117" fill-opacity="0.75" class="fade-1"/><path key="Java" d="M 24,206 C 55.66666666666667,206 55.66666666666667,206 87.33333333333334,206 C 119.00000000000001,206 119.00000000000001,205.56656346749227 150.66666666666669,205.56656346749227 C 182.33333333333334,205.56656346749227 182.33333333333334,205.27760577915376 214,205.27760577915376 C 245.66666666666669,205.27760577915376 245.66666666666669,205.71104231166152 277.33333333333337,205.71104231166152 C 309,205.71104231166152 309,206 340.6666666666667,206 C 372.33333333333337,206 372.33333333333337,200.36532507739938 404,200.36532507739938 C 435.6666666666667,200.36532507739938 435.6666666666667,204.98864809081527 467.33333333333337,204.98864809081527 C 499.00000000000006,204.98864809081527 499.00000000000006,201.3766769865841 530.6666666666667,201.3766769865841 C 562.3333333333334,201.3766769865841 562.3333333333334,205.27760577915376 594,205.27760577915376 C 625.6666666666667,205.27760577915376 625.6666666666667,178.54901960784315 657.3333333333334,178.54901960784315 C 689,178.54901960784315 689,132.6047471620227 720.6666666666667,132.6047471620227 C 752.3333333333334,132.6047471620227 752.3333333333334,67.01135190918473 784,67.01135190918473 L 784,71.20123839009287 C 752.3333333333334,71.20123839009287 752.3333333333334,134.7719298245614 720.6666666666667,134.7719298245614 C 689,134.7719298245614 689,179.4158926728586 657.3333333333334,179.4158926728586 C 625.6666666666667,179.4158926728586 625.6666666666667,205.27760577915376 594,205.27760577915376 C 562.3333333333334,205.27760577915376 562.3333333333334,201.52115583075334 530.6666666666667,201.52115583075334 C 499.00000000000006,201.52115583075334 499.00000000000006,204.98864809081527 467.33333333333337,204.98864809081527 C 435.6666666666667,204.98864809081527 435.6666666666667,200.50980392156862 404,200.50980392156862 C 372.33333333333337,200.50980392156862 372.33333333333337,206 340.6666666666667,206 C 309,206 309,205.71104231166152 277.33333333333337,205.71104231166152 C 245.66666666666669,205.71104231166152 245.66666666666669,205.27760577915376 214,205.27760577915376 C 182.33333333333334,205.27760577915376 182.33333333333334,205.56656346749227 150.66666666666669,205.56656346749227 C 119.00000000000001,205.56656346749227 119.00000000000001,206 87.33333333333334,206 C 55.66666666666667,206 55.66666666666667,206 24,206 Z" fill="#b07219" fill-opacity="0.75" class="fade-2"/><path key="JavaScript" d="M 24,206 C 55.66666666666667,206 55.66666666666667,206 87.33333333333334,206 C 119.00000000000001,206 119.00000000000001,205.56656346749227 150.66666666666669,205.56656346749227 C 182.33333333333334,205.56656346749227 182.33333333333334,205.27760577915376 214,205.27760577915376 C 245.66666666666669,205.27760577915376 245.66666666666669,205.71104231166152 277.33333333333337,205.71104231166152 C 309,205.71104231166152 309,206 340.6666666666667,206 C 372.33333333333337,206 372.33333333333337,200.50980392156862 404,200.50980392156862 C 435.6666666666667,200.50980392156862 435.6666666666667,204.98864809081527 467.33333333333337,204.98864809081527 C 499.00000000000006,204.98864809081527 499.00000000000006,201.52115583075334 530.6666666666667,201.52115583075334 C 562.3333333333334,201.52115583075334 562.3333333333334,205.27760577915376 594,205.27760577915376 C 625.6666666666667,205.27760577915376 625.6666666666667,179.4158926728586 657.3333333333334,179.4158926728586 C 689,179.4158926728586 689,134.7719298245614 720.6666666666667,134.7719298245614 C 752.3333333333334,134.7719298245614 752.3333333333334,71.20123839009287 784,71.20123839009287 L 784,83.19298245614036 C 752.3333333333334,83.19298245614036 752.3333333333334,141.12899896800826 720.6666666666667,141.12899896800826 C 689,141.12899896800826 689,181.72755417956657 657.3333333333334,181.72755417956657 C 625.6666666666667,181.72755417956657 625.6666666666667,205.27760577915376 594,205.27760577915376 C 562.3333333333334,205.27760577915376 562.3333333333334,201.9545923632611 530.6666666666667,201.9545923632611 C 499.00000000000006,201.9545923632611 499.00000000000006,205.13312693498452 467.33333333333337,205.13312693498452 C 435.6666666666667,205.13312693498452 435.6666666666667,200.94324045407637 404,200.94324045407637 C 372.33333333333337,200.94324045407637 372.33333333333337,206 340.6666666666667,206 C 309,206 309,205.71104231166152 277.33333333333337,205.71104231166152 C 245.66666666666669,205.71104231166152 245.66666666666669,205.27760577915376 214,205.27760577915376 C 182.33333333333334,205.27760577915376 182.33333333333334,205.56656346749227 150.66666666666669,205.56656346749227 C 119.00000000000001,205.56656346749227 119.00000000000001,206 87.33333333333334,206 C 55.66666666666667,206 55.66666666666667,206 24,206 Z" fill="#f1e05a" fill-opacity="0.75" class="fade-3"/><path key="Python" d="M 24,206 C 55.66666666666667,206 55.66666666666667,206 87.33333333333334,206 C 119.00000000000001,206 119.00000000000001,205.56656346749227 150.66666666666669,205.56656346749227 C 182.33333333333334,205.56656346749227 182.33333333333334,205.27760577915376 214,205.27760577915376 C 245.66666666666669,205.27760577915376 245.66666666666669,205.71104231166152 277.33333333333337,205.71104231166152 C 309,205.71104231166152 309,206 340.6666666666667,206 C 372.33333333333337,206 372.33333333333337,200.94324045407637 404,200.94324045407637 C 435.6666666666667,200.94324045407637 435.6666666666667,205.13312693498452 467.33333333333337,205.13312693498452 C 499.00000000000006,205.13312693498452 499.00000000000006,201.9545923632611 530.6666666666667,201.9545923632611 C 562.3333333333334,201.9545923632611 562.3333333333334,205.27760577915376 594,205.27760577915376 C 625.6666666666667,205.27760577915376 625.6666666666667,181.72755417956657 657.3333333333334,181.72755417956657 C 689,181.72755417956657 689,141.12899896800826 720.6666666666667,141.12899896800826 C 752.3333333333334,141.12899896800826 752.3333333333334,83.19298245614036 784,83.19298245614036 L 784,95.47368421052632 C 752.3333333333334,95.47368421052632 752.3333333333334,147.63054695562437 720.6666666666667,147.63054695562437 C 689,147.63054695562437 689,184.18369453044374 657.3333333333334,184.18369453044374 C 625.6666666666667,184.18369453044374 625.6666666666667,205.27760577915376 594,205.27760577915376 C 562.3333333333334,205.27760577915376 562.3333333333334,202.38802889576883 530.6666666666667,202.38802889576883 C 499.00000000000006,202.38802889576883 499.00000000000006,205.27760577915376 467.33333333333337,205.27760577915376 C 435.6666666666667,205.27760577915376 435.6666666666667,201.3766769865841 404,201.3766769865841 C 372.33333333333337,201.3766769865841 372.33333333333337,206 340.6666666666667,206 C 309,206 309,205.71104231166152 277.33333333333337,205.71104231166152 C 245.66666666666669,205.71104231166152 245.66666666666669,205.27760577915376 214,205.27760577915376 C 182.33333333333334,205.27760577915376 182.33333333333334,205.56656346749227 150.66666666666669,205.56656346749227 C 119.00000000000001,205.56656346749227 119.00000000000001,206 87.33333333333334,206 C 55.66666666666667,206 55.66666666666667,206 24,206 Z" fill="#3572A5" fill-opacity="0.75" class="fade-4"/><path key="Shell" d="M 24,206 C 55.66666666666667,206 55.66666666666667,206 87.33333333333334,206 C 119.00000000000001,206 119.00000000000001,205.56656346749227 150.66666666666669,205.56656346749227 C 182.33333333333334,205.56656346749227 182.33333333333334,205.27760577915376 214,205.27760577915376 C 245.66666666666669,205.27760577915376 245.66666666666669,205.71104231166152 277.33333333333337,205.71104231166152 C 309,205.71104231166152 309,206 340.6666666666667,206 C 372.33333333333337,206 372.33333333333337,201.3766769865841 404,201.3766769865841 C 435.6666666666667,201.3766769865841 435.6666666666667,205.27760577915376 467.33333333333337,205.27760577915376 C 499.00000000000006,205.27760577915376 499.00000000000006,202.38802889576883 530.6666666666667,202.38802889576883 C 562.3333333333334,202.38802889576883 562.3333333333334,205.27760577915376 594,205.27760577915376 C 625.6666666666667,205.27760577915376 625.6666666666667,184.18369453044374 657.3333333333334,184.18369453044374 C 689,184.18369453044374 689,147.63054695562437 720.6666666666667,147.63054695562437 C 752.3333333333334,147.63054695562437 752.3333333333334,95.47368421052632 784,95.47368421052632 L 784,113.24458204334366 C 752.3333333333334,113.24458204334366 752.3333333333334,157.02167182662538 720.6666666666667,157.02167182662538 C 689,157.02167182662538 689,187.65118679050568 657.3333333333334,187.65118679050568 C 625.6666666666667,187.65118679050568 625.6666666666667,205.422084623323 594,205.422084623323 C 562.3333333333334,205.422084623323 562.3333333333334,202.96594427244582 530.6666666666667,202.96594427244582 C 499.00000000000006,202.96594427244582 499.00000000000006,205.422084623323 467.33333333333337,205.422084623323 C 435.6666666666667,205.422084623323 435.6666666666667,202.09907120743034 404,202.09907120743034 C 372.33333333333337,202.09907120743034 372.33333333333337,206 340.6666666666667,206 C 309,206 309,205.71104231166152 277.33333333333337,205.71104231166152 C 245.66666666666669,205.71104231166152 245.66666666666669,205.422084623323 214,205.422084623323 C 182.33333333333334,205.422084623323 182.33333333333334,205.56656346749227 150.66666666666669,205.56656346749227 C 119.00000000000001,205.56656346749227 119.00000000000001,206 87.33333333333334,206 C 55.66666666666667,206 55.66666666666667,206 24,206 Z" fill="#89e051" fill-opacity="0.75" class="fade-5"/><path key="Go" d="M 24,206 C 55.66666666666667,206 55.66666666666667,206 87.33333333333334,206 C 119.00000000000001,206 119.00000000000001,205.56656346749227 150.66666666666669,205.56656346749227 C 182.33333333333334,205.56656346749227 182.33333333333334,205.422084623323 214,205.422084623323 C 245.66666666666669,205.422084623323 245.66666666666669,205.71104231166152 277.33333333333337,205.71104231166152 C 309,205.71104231166152 309,206 340.6666666666667,206 C 372.33333333333337,206 372.33333333333337,202.09907120743034 404,202.09907120743034 C 435.6666666666667,202.09907120743034 435.6666666666667,205.422084623323 467.33333333333337,205.422084623323 C 499.00000000000006,205.422084623323 499.00000000000006,202.96594427244582 530.6666666666667,202.96594427244582 C 562.3333333333334,202.96594427244582 562.3333333333334,205.422084623323 594,205.422084623323 C 625.6666666666667,205.422084623323 625.6666666666667,187.65118679050568 657.3333333333334,187.65118679050568 C 689,187.65118679050568 689,157.02167182662538 720.6666666666667,157.02167182662538 C 752.3333333333334,157.02167182662538 752.3333333333334,113.24458204334366 784,113.24458204334366 L 784,134.04953560371516 C 752.3333333333334,134.04953560371516 752.3333333333334,168.00206398348814 720.6666666666667,168.00206398348814 C 689,168.00206398348814 689,191.69659442724458 657.3333333333334,191.69659442724458 C 625.6666666666667,191.69659442724458 625.6666666666667,205.56656346749227 594,205.56656346749227 C 562.3333333333334,205.56656346749227 562.3333333333334,203.68833849329206 530.6666666666667,203.68833849329206 C 499.00000000000006,203.68833849329206 499.00000000000006,205.56656346749227 467.33333333333337,205.56656346749227 C 435.6666666666667,205.56656346749227 435.6666666666667,202.96594427244582 404,202.96594427244582 C 372.33333333333337,202.96594427244582 372.33333333333337,206 340.6666666666667,206 C 309,206 309,205.71104231166152 277.33333333333337,205.71104231166152 C 245.66666666666669,205.71104231166152 245.66666666666669,205.56656346749227 214,205.56656346749227 C 182.33333333333334,205.56656346749227 182.33333333333334,205.71104231166152 150.66666666666669,205.71104231166152 C 119.00000000000001,205.71104231166152 119.00000000000001,206 87.33333333333334,206 C 55.66666666666667,206 55.66666666666667,206 24,206 Z" fill="#00ADD8" fill-opacity="0.75" class="fade-6"/><path key="TypeScript" d="M 24,206 C 55.66666666666667,206 55.66666666666667,206 87.33333333333334,206 C 119.00000000000001,206 119.00000000000001,205.71104231166152 150.66666666666669,205.71104231166152 C 182.33333333333334,205.71104231166152 182.33333333333334,205.56656346749227 214,205.56656346749227 C 245.66666666666669,205.56656346749227 245.66666666666669,205.71104231166152 277.33333333333337,205.71104231166152 C 309,205.71104231166152 309,206 340.6666666666667,206 C 372.33333333333337,206 372.33333333333337,202.96594427244582 404,202.96594427244582 C 435.6666666666667,202.96594427244582 435.6666666666667,205.56656346749227 467.33333333333337,205.56656346749227 C 499.00000000000006,205.56656346749227 499.00000000000006,203.68833849329206 530.6666666666667,203.68833849329206 C 562.3333333333334,203.68833849329206 562.3333333333334,205.56656346749227 594,205.56656346749227 C 625.6666666666667,205.56656346749227 625.6666666666667,191.69659442724458 657.3333333333334,191.69659442724458 C 689,191.69659442724458 689,168.00206398348814 720.6666666666667,168.00206398348814 C 752.3333333333334,168.00206398348814 752.3333333333334,134.04953560371516 784,134.04953560371516 L 784,160.7781217750258 C 752.3333333333334,160.7781217750258 752.3333333333334,182.1609907120743 720.6666666666667,182.1609907120743 C 689,182.1609907120743 689,197.04231166150672 657.3333333333334,197.04231166150672 C 625.6666666666667,197.04231166150672 625.6666666666667,205.71104231166152 594,205.71104231166152 C 562.3333333333334,205.71104231166152 562.3333333333334,204.55521155830752 530.6666666666667,204.55521155830752 C 499.00000000000006,204.55521155830752 499.00000000000006,205.71104231166152 467.33333333333337,205.71104231166152 C 435.6666666666667,205.71104231166152 435.6666666666667,204.1217750257998 404,204.1217750257998 C 372.33333333333337,204.1217750257998 372.33333333333337,206 340.6666666666667,206 C 309,206 309,205.85552115583076 277.33333333333337,205.85552115583076 C 245.66666666666669,205.85552115583076 245.66666666666669,205.71104231166152 214,205.71104231166152 C 182.33333333333334,205.71104231166152 182.33333333333334,205.85552115583076 150.66666666666669,205.85552115583076 C 119.00000000000001,205.85552115583076 119.00000000000001,206 87.33333333333334,206 C 55.66666666666667,206 55.66666666666667,206 24,206 Z" fill="#3178c6" fill-opacity="0.75" class="fade-6"/><path key="Rust" d="M 24,206 C 55.66666666666667,206 55.66666666666667,206 87.33333333333334,206 C 119.00000000000001,206 119.00000000000001,205.85552115583076 150.66666666666669,205.85552115583076 C 182.33333333333334,205.85552115583076 182.33333333333334,205.71104231166152 214,205.71104231166152 C 245.66666666666669,205.71104231166152 245.66666666666669,205.85552115583076 277.33333333333337,205.85552115583076 C 309,205.85552115583076 309,206 340.6666666666667,206 C 372.33333333333337,206 372.33333333333337,204.1217750257998 404,204.1217750257998 C 435.6666666666667,204.1217750257998 435.6666666666667,205.71104231166152 467.33333333333337,205.71104231166152 C 499.00000000000006,205.71104231166152 499.00000000000006,204.55521155830752 530.6666666666667,204.55521155830752 C 562.3333333333334,204.55521155830752 562.3333333333334,205.71104231166152 594,205.71104231166152 C 625.6666666666667,205.71104231166152 625.6666666666667,197.04231166150672 657.3333333333334,197.04231166150672 C 689,197.04231166150672 689,182.1609907120743 720.6666666666667,182.1609907120743 C 752.3333333333334,182.1609907120743 752.3333333333334,160.7781217750258 784,160.7781217750258 L 784,206 C 752.3333333333334,206 752.3333333333334,206 720.6666666666667,206 C 689,206 689,206 657.3333333333334,206 C 625.6666666666667,206 625.6666666666667,206 594,206 C 562.3333333333334,206 562.3333333333334,206 530.6666666666667,206 C 499.00000000000006,206 499.00000000000006,206 467.33333333333337,206 C 435.6666666666667,206 435.6666666666667,206 404,206 C 372.33333333333337,206 372.33333333333337,206 340.6666666666667,206 C 309,206 309,206 277.33333333333337,206 C 245.66666666666669,206 245.66666666666669,206 214,206 C 182.33333333333334,206 182.33333333333334,206 150.66666666666669,206 C 119.00000000000001,206 119.00000000000001,206 87.33333333333334,206 C 55.66666666666667,206 55.66666666666667,206 24,206 Z" fill="#dea584" fill-opacity="0.75" class="fade-6"/><rect x="24" y="212" width="8" height="8" rx="2" fill="#dea584" opacity="0.85"/><text x="36" y="220" class="t t-value">Rust</text><rect x="80" y="212" width="8" height="8" rx="2" fill="#3178c6" opacity="0.85"/><text x="92" y="220" class="t t-value">TypeScript</text><rect x="178" y="212" width="8" height="8" rx="2" fill="#00ADD8" opacity="0.85"/><text x="190" y="220" class="t t-value">Go</text><rect x="220" y="212" width="8" height="8" rx="2" fill="#89e051" opacity="0.85"/><text x="232" y="220" class="t t-value">Shell</text><rect x="283" y="212" width="8" height="8" rx="2" fill="#3572A5" opacity="0.85"/><text x="295" y="220" class="t t-value">Python</text><rect x="353" y="212" width="8" height="8" rx="2" fill="#f1e05a" opacity="0.85"/><text x="365" y="220" class="t t-value">JavaScript</text><rect x="451" y="212" width="8" height="8" rx="2" fill="#b07219" opacity="0.85"/><text x="463" y="220" class="t t-value">Java</text><rect x="507" y="212" width="8" height="8" rx="2" fill="#3D6117" opacity="0.85"/><text x="519" y="220" class="t t-value">TeX</text><text key="Feb" x="24" y="220" class="t t-value" text-anchor="start" opacity="0">Feb</text><text key="Apr" x="150.66666666666669" y="220" class="t t-value" text-anchor="start" opacity="0">Apr</text><text key="Jun" x="277.33333333333337" y="220" class="t t-value" text-anchor="start" opacity="0">Jun</text><text key="Aug" x="404" y="220" class="t t-value" text-anchor="start" opacity="0">Aug</text><text key="Oct" x="530.6666666666667" y="220" class="t t-value" text-anchor="start" opacity="0">Oct</text><text key="Dec" x="657.3333333333334" y="220" class="t t-value" text-anchor="start" opacity="0">Dec</text><text key="Feb" x="784" y="220" class="t t-value" text-anchor="start" opacity="0">Feb</text><text x="24" y="282" class="t t-h">CONTRIBUTION RHYTHM</text><text x="24" y="298" class="t t-sub">Activity patterns and statistics over the past year</text><circle key="0.25" cx="144" cy="428" r="22.5" fill="none" stroke="#30363d" stroke-width="1" stroke-opacity="0.4"/><circle key="0.5" cx="144" cy="428" r="45" fill="none" stroke="#30363d" stroke-width="1" stroke-opacity="0.4"/><circle key="0.75" cx="144" cy="428" r="67.5" fill="none" stroke="#30363d" stroke-width="1" stroke-opacity="0.4"/><circle key="1" cx="144" cy="428" r="90" fill="none" stroke="#30363d" stroke-width="1" stroke-opacity="0.4"/><line key="Sun" x1="144" y1="428" x2="144" y2="338" stroke="#30363d" stroke-width="1" stroke-opacity="0.3"/><line key="Mon" x1="144" y1="428" x2="214.36483342212267" y2="371.885917832714" stroke="#30363d" stroke-width="1" stroke-opacity="0.3"/><line key="Tue" x1="144" y1="428" x2="231.74351209636413" y2="448.0268840560683" stroke="#30363d" stroke-width="1" stroke-opacity="0.3"/><line key="Wed" x1="144" y1="428" x2="183.04953652058023" y2="509.08719811121773" stroke="#30363d" stroke-width="1" stroke-opacity="0.3"/><line key="Thu" x1="144" y1="428" x2="104.95046347941977" y2="509.08719811121773" stroke="#30363d" stroke-width="1" stroke-opacity="0.3"/><line key="Fri" x1="144" y1="428" x2="56.25648790363587" y2="448.0268840560683" stroke="#30363d" stroke-width="1" stroke-opacity="0.3"/><line key="Sat" x1="144" y1="428" x2="73.63516657787731" y2="371.885917832714" stroke="#30363d" stroke-width="1" stroke-opacity="0.3"/><polygon points="144,385.5796178343949 176.11982841986492,402.38529157968895 205.29005409703566,441.98905489266764 158.8404820322375,458.8165784753885 131.72965731412765,453.4796291304888 56.25648790363587,448.0268840560683 84.98915243792258,380.94041941384717" fill="#58a6ff" fill-opacity="0.2" stroke="#58a6ff" stroke-width="2" stroke-opacity="0.8" class="fade-2" style="transform-origin: 144px 428px"/><circle key="Sun" cx="144" cy="385.5796178343949" r="3" fill="#58a6ff" class="fade-1"/><circle key="Mon" cx="176.11982841986492" cy="402.38529157968895" r="3" fill="#58a6ff" class="fade-2"/><circle key="Tue" cx="205.29005409703566" cy="441.98905489266764" r="3" fill="#58a6ff" class="fade-3"/><circle key="Wed" cx="158.8404820322375" cy="458.8165784753885" r="3" fill="#58a6ff" class="fade-4"/><circle key="Thu" cx="131.72965731412765" cy="453.4796291304888" r="3" fill="#58a6ff" class="fade-5"/><circle key="Fri" cx="56.25648790363587" cy="448.0268840560683" r="3" fill="#58a6ff" class="fade-6"/><circle key="Sat" cx="84.98915243792258" cy="380.94041941384717" r="3" fill="#58a6ff" class="fade-6"/><text key="Sun" x="144" y="326" class="t t-value" text-anchor="middle">Sun</text><text key="Mon" x="226.87413714161116" y="365.91008100297427" class="t t-value" text-anchor="middle">Mon</text><text key="Tue" x="247.34235869127332" y="455.5872189993693" class="t t-value" text-anchor="middle">Tue</text><text key="Wed" x="189.99167634646116" y="527.5026999976565" class="t t-value" text-anchor="middle">Wed</text><text key="Thu" x="98.00832365353884" y="527.5026999976565" class="t t-value" text-anchor="middle">Thu</text><text key="Fri" x="40.657641308726696" y="455.5872189993693" class="t t-value" text-anchor="middle">Fri</text><text key="Sat" x="61.12586285838883" y="365.91008100297427" class="t t-value" text-anchor="middle">Sat</text><text x="324" y="338" class="t t-stat-label">COMMITS</text><text x="324" y="360" fill="#58a6ff" class="t t-stat-value">1,813</text><text x="324" y="380" class="t t-stat-label">PRS</text><text x="324" y="402" fill="#3fb950" class="t t-stat-value">35</text><text x="324" y="422" class="t t-stat-label">REVIEWS</text><text x="324" y="444" fill="#d29922" class="t t-stat-value">5</text><text x="324" y="464" class="t t-stat-label">REPOS</text><text x="324" y="486" fill="#bc8cff" class="t t-stat-value">26</text><text x="324" y="506" class="t t-stat-label">STREAK</text><text x="324" y="528" fill="#39d2c0" class="t t-stat-value">20d</text><text x="24" y="614" class="t t-h">PROJECT CONSTELLATION</text><text x="24" y="630" class="t t-sub">Top projects ranked by complexity, grouped by primary language</text><circle cx="29" cy="656" r="5" fill="#00ADD8" fill-opacity="0.8" class="fade-1"/><text x="40" y="660" class="t t-subhdr fade-1">Go</text><line x1="204" y1="656" x2="644" y2="656" stroke="#30363d" stroke-opacity="0.3" stroke-width="1"/><text x="32" y="688" class="t t-card-title fade-1">incipit</text><rect x="204" y="680" width="380" height="14" rx="4" fill="#00ADD8" fill-opacity="0.7" class="fade-1"/><text x="604" y="688" class="t t-value fade-1">★ 10</text><circle cx="36" cy="712" r="3" fill="#6e7681" fill-opacity="0.6" class="fade-1"/><text x="42" y="715" class="t fade-1" font-size="9" fill="#6e7681">TeX</text><circle cx="74" cy="712" r="3" fill="#6e7681" fill-opacity="0.6" class="fade-1"/><text x="80" y="715" class="t fade-1" font-size="9" fill="#6e7681">HTML</text><circle cx="118" cy="712" r="3" fill="#6e7681" fill-opacity="0.6" class="fade-1"/><text x="124" y="715" class="t fade-1" font-size="9" fill="#6e7681">Shell</text><circle cx="168" cy="712" r="3" fill="#6e7681" fill-opacity="0.6" class="fade-1"/><text x="174" y="715" class="t fade-1" font-size="9" fill="#6e7681">Just</text><text x="32" y="748" class="t t-card-title fade-2">zigbee-skill</text><rect x="204" y="740" width="286.38602876791873" height="14" rx="4" fill="#00ADD8" fill-opacity="0.7" class="fade-2"/><text x="604" y="748" class="t t-value fade-2">★ 0</text><circle cx="36" cy="772" r="3" fill="#6e7681" fill-opacity="0.6" class="fade-2"/><text x="42" y="775" class="t fade-2" font-size="9" fill="#6e7681">Just</text><circle cx="80" cy="772" r="3" fill="#6e7681" fill-opacity="0.6" class="fade-2"/><text x="86" y="775" class="t fade-2" font-size="9" fill="#6e7681">Shell</text><text x="32" y="808" class="t t-card-title fade-3">saige</text><rect x="204" y="800" width="191.07015506744744" height="14" rx="4" fill="#00ADD8" fill-opacity="0.7" class="fade-3"/><text x="604" y="808" class="t t-value fade-3">★ 0</text><circle cx="36" cy="832" r="3" fill="#6e7681" fill-opacity="0.6" class="fade-3"/><text x="42" y="835" class="t fade-3" font-size="9" fill="#6e7681">Go Templa…</text><circle cx="116" cy="832" r="3" fill="#6e7681" fill-opacity="0.6" class="fade-3"/><text x="122" y="835" class="t fade-3" font-size="9" fill="#6e7681">Shell</text><circle cx="166" cy="832" r="3" fill="#6e7681" fill-opacity="0.6" class="fade-3"/><text x="172" y="835" class="t fade-3" font-size="9" fill="#6e7681">Just</text><circle cx="210" cy="832" r="3" fill="#6e7681" fill-opacity="0.6" class="fade-3"/><text x="216" y="835" class="t fade-3" font-size="9" fill="#6e7681">Dockerfile</text><circle cx="29" cy="884" r="5" fill="#DA5B0B" fill-opacity="0.8" class="fade-4"/><text x="40" y="888" class="t t-subhdr fade-4">Jupyter Notebook</text><line x1="204" y1="884" x2="644" y2="884" stroke="#30363d" stroke-opacity="0.3" stroke-width="1"/><text x="32" y="916" class="t t-card-title fade-4">lepus-classifier</text><rect x="204" y="908" width="322.6775000634164" height="14" rx="4" fill="#DA5B0B" fill-opacity="0.7" class="fade-4"/><text x="604" y="916" class="t t-value fade-4">★ 2</text><circle cx="36" cy="940" r="3" fill="#3572A5" fill-opacity="0.6" class="fade-4"/><text x="42" y="943" class="t fade-4" font-size="9" fill="#6e7681">Python</text><circle cx="92" cy="940" r="3" fill="#6e7681" fill-opacity="0.6" class="fade-4"/><text x="98" y="943" class="t fade-4" font-size="9" fill="#6e7681">Shell</text><text x="32" y="976" class="t t-card-title fade-5">md-classifier</text><rect x="204" y="968" width="159.3819824196313" height="14" rx="4" fill="#DA5B0B" fill-opacity="0.7" class="fade-5"/><text x="604" y="976" class="t t-value fade-5">★ 2</text><circle cx="36" cy="1000" r="3" fill="#3572A5" fill-opacity="0.6" class="fade-5"/><text x="42" y="1003" class="t fade-5" font-size="9" fill="#6e7681">Python</text><circle cx="92" cy="1000" r="3" fill="#6e7681" fill-opacity="0.6" class="fade-5"/><text x="98" y="1003" class="t fade-5" font-size="9" fill="#6e7681">Shell</text><circle cx="29" cy="1052" r="5" fill="#dea584" fill-opacity="0.8" class="fade-6"/><text x="40" y="1056" class="t t-subhdr fade-6">Rust</text><line x1="204" y1="1052" x2="644" y2="1052" stroke="#30363d" stroke-opacity="0.3" stroke-width="1"/><text x="32" y="1084" class="t t-card-title fade-6">linear-gp</text><rect x="204" y="1076" width="293.72179842900573" height="14" rx="4" fill="#dea584" fill-opacity="0.7" class="fade-6"/><text x="604" y="1084" class="t t-value fade-6">★ 3</text><circle cx="36" cy="1108" r="3" fill="#6e7681" fill-opacity="0.6" class="fade-6"/><text x="42" y="1111" class="t fade-6" font-size="9" fill="#6e7681">Just</text><circle cx="80" cy="1108" r="3" fill="#6e7681" fill-opacity="0.6" class="fade-6"/><text x="86" y="1111" class="t fade-6" font-size="9" fill="#6e7681">Shell</text><text x="32" y="1144" class="t t-card-title fade-6">teasr</text><rect x="204" y="1136" width="165.46110034126215" height="14" rx="4" fill="#dea584" fill-opacity="0.7" class="fade-6"/><text x="604" y="1144" class="t t-value fade-6">★ 0</text><circle cx="36" cy="1168" r="3" fill="#6e7681" fill-opacity="0.6" class="fade-6"/><text x="42" y="1171" class="t fade-6" font-size="9" fill="#6e7681">HTML</text><circle cx="80" cy="1168" r="3" fill="#6e7681" fill-opacity="0.6" class="fade-6"/><text x="86" y="1171" class="t fade-6" font-size="9" fill="#6e7681">Shell</text><circle cx="130" cy="1168" r="3" fill="#6e7681" fill-opacity="0.6" class="fade-6"/><text x="136" y="1171" class="t fade-6" font-size="9" fill="#6e7681">Just</text><text x="32" y="1204" class="t t-card-title fade-6">oag</text><rect x="204" y="1196" width="144.4628848662495" height="14" rx="4" fill="#dea584" fill-opacity="0.7" class="fade-6"/><text x="604" y="1204" class="t t-value fade-6">★ 0</text><circle cx="36" cy="1228" r="3" fill="#6e7681" fill-opacity="0.6" class="fade-6"/><text x="42" y="1231" class="t fade-6" font-size="9" fill="#6e7681">Jinja</text><circle cx="86" cy="1228" r="3" fill="#6e7681" fill-opacity="0.6" class="fade-6"/><text x="92" y="1231" class="t fade-6" font-size="9" fill="#6e7681">Shell</text><circle cx="136" cy="1228" r="3" fill="#6e7681" fill-opacity="0.6" class="fade-6"/><text x="142" y="1231" class="t fade-6" font-size="9" fill="#6e7681">Just</text><circle cx="29" cy="1280" r="5" fill="#3178c6" fill-opacity="0.8" class="fade-6"/><text x="40" y="1284" class="t t-subhdr fade-6">TypeScript</text><line x1="204" y1="1280" x2="644" y2="1280" stroke="#30363d" stroke-opacity="0.3" stroke-width="1"/><text x="32" y="1312" class="t t-card-title fade-6">urmzd.com</text><rect x="204" y="1304" width="262.18290207569754" height="14" rx="4" fill="#3178c6" fill-opacity="0.7" class="fade-6"/><text x="604" y="1312" class="t t-value fade-6">★ 1</text><circle cx="36" cy="1336" r="3" fill="#6e7681" fill-opacity="0.6" class="fade-6"/><text x="42" y="1339" class="t fade-6" font-size="9" fill="#6e7681">MDX</text><circle cx="74" cy="1336" r="3" fill="#6e7681" fill-opacity="0.6" class="fade-6"/><text x="80" y="1339" class="t fade-6" font-size="9" fill="#6e7681">CSS</text><circle cx="112" cy="1336" r="3" fill="#6e7681" fill-opacity="0.6" class="fade-6"/><text x="118" y="1339" class="t fade-6" font-size="9" fill="#6e7681">Astro</text><circle cx="162" cy="1336" r="3" fill="#6e7681" fill-opacity="0.6" class="fade-6"/><text x="168" y="1339" class="t fade-6" font-size="9" fill="#6e7681">HTML</text><circle cx="206" cy="1336" r="3" fill="#6e7681" fill-opacity="0.6" class="fade-6"/><text x="212" y="1339" class="t fade-6" font-size="9" fill="#6e7681">JavaScript</text><text x="32" y="1372" class="t t-card-title fade-6">zoro</text><rect x="204" y="1364" width="176.73498024802288" height="14" rx="4" fill="#3178c6" fill-opacity="0.7" class="fade-6"/><text x="604" y="1372" class="t t-value fade-6">★ 0</text><circle cx="36" cy="1396" r="3" fill="#00ADD8" fill-opacity="0.6" class="fade-6"/><text x="42" y="1399" class="t fade-6" font-size="9" fill="#6e7681">Go</text><circle cx="68" cy="1396" r="3" fill="#6e7681" fill-opacity="0.6" class="fade-6"/><text x="74" y="1399" class="t fade-6" font-size="9" fill="#6e7681">CSS</text><circle cx="106" cy="1396" r="3" fill="#3572A5" fill-opacity="0.6" class="fade-6"/><text x="112" y="1399" class="t fade-6" font-size="9" fill="#6e7681">Python</text><circle cx="162" cy="1396" r="3" fill="#6e7681" fill-opacity="0.6" class="fade-6"/><text x="168" y="1399" class="t fade-6" font-size="9" fill="#6e7681">Just</text><circle cx="206" cy="1396" r="3" fill="#6e7681" fill-opacity="0.6" class="fade-6"/><text x="212" y="1399" class="t fade-6" font-size="9" fill="#6e7681">Shell</text><circle cx="29" cy="1448" r="5" fill="#3572A5" fill-opacity="0.8" class="fade-6"/><text x="40" y="1452" class="t t-subhdr fade-6">Python</text><line x1="204" y1="1448" x2="644" y2="1448" stroke="#30363d" stroke-opacity="0.3" stroke-width="1"/><text x="32" y="1480" class="t t-card-title fade-6">exp-agi-models</text><rect x="204" y="1472" width="259.2954584790615" height="14" rx="4" fill="#3572A5" fill-opacity="0.7" class="fade-6"/><text x="604" y="1480" class="t t-value fade-6">★ 0</text><circle cx="36" cy="1504" r="3" fill="#6e7681" fill-opacity="0.6" class="fade-6"/><text x="42" y="1507" class="t fade-6" font-size="9" fill="#6e7681">Shell</text><text x="32" y="1540" class="t t-card-title fade-6">languide</text><rect x="204" y="1532" width="113.40018994380016" height="14" rx="4" fill="#3572A5" fill-opacity="0.7" class="fade-6"/><text x="604" y="1540" class="t t-value fade-6">★ 0</text><circle cx="36" cy="1564" r="3" fill="#6e7681" fill-opacity="0.6" class="fade-6"/><text x="42" y="1567" class="t fade-6" font-size="9" fill="#6e7681">TeX</text><circle cx="74" cy="1564" r="3" fill="#6e7681" fill-opacity="0.6" class="fade-6"/><text x="80" y="1567" class="t fade-6" font-size="9" fill="#6e7681">Shell</text><text x="24" y="1640" class="t t-h">OPEN SOURCE IMPACT</text><text x="24" y="1656" class="t t-sub">External repositories contributed to</text><text x="24" y="1695" class="t t-card-title fade-1">getzep/graphiti</text><rect x="304" y="1685" width="400" height="12" rx="3" fill="#58a6ff" fill-opacity="0.7" class="fade-1"/><text x="720" y="1695" class="t t-value fade-1">★ 24,274</text><text x="24" y="1709" class="t t-value fade-1">Python</text><text x="24" y="1751" class="t t-card-title fade-2">googleapis/python-aiplatform</text><rect x="304" y="1741" width="268.45087562375613" height="12" rx="3" fill="#3fb950" fill-opacity="0.7" class="fade-2"/><text x="720" y="1751" class="t t-value fade-2">★ 876</text><text x="24" y="1765" class="t t-value fade-2">Python</text><text x="24" y="1807" class="t t-card-title fade-3">MathisWellmann/gym-rs</text><rect x="304" y="1797" width="192.21285750436772" height="12" rx="3" fill="#d29922" fill-opacity="0.7" class="fade-3"/><text x="720" y="1807" class="t t-value fade-3">★ 127</text><text x="24" y="1821" class="t t-value fade-3">Rust</text></svg>