<svg xmlns="http://www.w3.org/2000/svg" width="808" height="1328" viewBox="0 0 808 1328"><defs><style>
  .t { font-family: -apple-system,BlinkMacSystemFont,Segoe UI,Helvetica,Arial,sans-serif; font-variant-numeric: tabular-lining; }
  .t-h { font-size: 14px; fill: #c9d1d9; letter-spacing: 2px; font-weight: 600; }
  .t-sub { font-size: 11px; fill: #6e7681; }
  .t-label { font-size: 12px; fill: #8b949e; }
  .t-value { font-size: 11px; fill: #6e7681; }
  .t-subhdr { font-size: 11px; fill: #8b949e; letter-spacing: 1px; font-weight: 600; }
  .t-stat-label { font-size: 10px; fill: #8b949e; font-weight: 600; }
  .t-stat-value { font-size: 22px; font-weight: 700; }
  .t-card-title { font-size: 12px; fill: #58a6ff; font-weight: 700; }
  .t-card-detail { font-size: 11px; fill: #8b949e; }
  .t-pill { font-size: 11px; font-weight: 600; }
  .t-bullet { font-size: 12px; fill: #c9d1d9; }
  .bg-fill { fill: #0d1117; }
  .card-fill { fill: #161b22; }
  .border-stroke { stroke: #30363d; }

  @media (prefers-color-scheme: light) {
    .bg-fill { fill: #ffffff; }
    .card-fill { fill: #f6f8fa; }
    .border-stroke { stroke: #d0d7de; }
    .t-h { fill: #1f2328; }
    .t-sub { fill: #656d76; }
    .t-label { fill: #656d76; }
    .t-value { fill: #656d76; }
    .t-subhdr { fill: #656d76; }
    .t-stat-label { fill: #656d76; }
    .t-card-title { fill: #0969da; }
    .t-card-detail { fill: #656d76; }
    .t-bullet { fill: #1f2328; }
  }

  @keyframes fadeIn {
    from { opacity: 0; transform: translateY(8px); }
    to { opacity: 1; transform: translateY(0); }
  }
  @keyframes scaleIn {
    from { transform: scale(0); opacity: 0; }
    to { transform: scale(1); opacity: 1; }
  }
  @keyframes drawPath {
    from { stroke-dashoffset: var(--path-length); }
    to { stroke-dashoffset: 0; }
  }
  @keyframes radarReveal {
    from { transform: scale(0); opacity: 0; }
    to { transform: scale(1); opacity: 0.6; }
  }
  .fade-1 { animation: fadeIn 0.6s ease-out 0.1s both; }
  .fade-2 { animation: fadeIn 0.6s ease-out 0.25s both; }
  .fade-3 { animation: fadeIn 0.6s ease-out 0.4s both; }
  .fade-4 { animation: fadeIn 0.6s ease-out 0.55s both; }
  .fade-5 { animation: fadeIn 0.6s ease-out 0.7s both; }
  .fade-6 { animation: fadeIn 0.6s ease-out 0.85s both; }
</style></defs><rect width="808" height="1328" rx="12" class="bg-fill" fill="#0d1117"/><text x="24" y="40" class="t t-h">LANGUAGE VELOCITY</text><text x="24" y="56" class="t t-sub">How language usage has evolved over the past year</text><path key="Jupyter Notebook" d="M 24,206 C 55.66666666666667,206 55.66666666666667,206 87.33333333333334,206 C 119.00000000000001,206 119.00000000000001,205.55032119914347 150.66666666666669,205.55032119914347 C 182.33333333333334,205.55032119914347 182.33333333333334,205.10064239828694 214,205.10064239828694 C 245.66666666666669,205.10064239828694 245.66666666666669,205.7002141327623 277.33333333333337,205.7002141327623 C 309,205.7002141327623 309,206 340.6666666666667,206 C 372.33333333333337,206 372.33333333333337,200.1541755888651 404,200.1541755888651 C 435.6666666666667,200.1541755888651 435.6666666666667,204.9507494646681 467.33333333333337,204.9507494646681 C 499.00000000000006,204.9507494646681 499.00000000000006,201.203426124197 530.6666666666667,201.203426124197 C 562.3333333333334,201.203426124197 562.3333333333334,205.10064239828694 594,205.10064239828694 C 625.6666666666667,205.10064239828694 625.6666666666667,177.07066381156318 657.3333333333334,177.07066381156318 C 689,177.07066381156318 689,129.25481798715202 720.6666666666667,129.25481798715202 C 752.3333333333334,129.25481798715202 752.3333333333334,66 784,66 L 784,66.89935760171306 C 752.3333333333334,66.89935760171306 752.3333333333334,129.70449678800856 720.6666666666667,129.70449678800856 C 689,129.70449678800856 689,177.22055674518202 657.3333333333334,177.22055674518202 C 625.6666666666667,177.22055674518202 625.6666666666667,205.10064239828694 594,205.10064239828694 C 562.3333333333334,205.10064239828694 562.3333333333334,201.203426124197 530.6666666666667,201.203426124197 C 499.00000000000006,201.203426124197 499.00000000000006,204.9507494646681 467.33333333333337,204.9507494646681 C 435.6666666666667,204.9507494646681 435.6666666666667,200.1541755888651 404,200.1541755888651 C 372.33333333333337,200.1541755888651 372.33333333333337,206 340.6666666666667,206 C 309,206 309,205.7002141327623 277.33333333333337,205.7002141327623 C 245.66666666666669,205.7002141327623 245.66666666666669,205.10064239828694 214,205.10064239828694 C 182.33333333333334,205.10064239828694 182.33333333333334,205.55032119914347 150.66666666666669,205.55032119914347 C 119.00000000000001,205.55032119914347 119.00000000000001,206 87.33333333333334,206 C 55.66666666666667,206 55.66666666666667,206 24,206 Z" fill="#DA5B0B" fill-opacity="0.75" class="fade-1"/><path key="TeX" d="M 24,206 C 55.66666666666667,206 55.66666666666667,206 87.33333333333334,206 C 119.00000000000001,206 119.00000000000001,205.55032119914347 150.66666666666669,205.55032119914347 C 182.33333333333334,205.55032119914347 182.33333333333334,205.10064239828694 214,205.10064239828694 C 245.66666666666669,205.10064239828694 245.66666666666669,205.7002141327623 277.33333333333337,205.7002141327623 C 309,205.7002141327623 309,206 340.6666666666667,206 C 372.33333333333337,206 372.33333333333337,200.1541755888651 404,200.1541755888651 C 435.6666666666667,200.1541755888651 435.6666666666667,204.9507494646681 467.33333333333337,204.9507494646681 C 499.00000000000006,204.9507494646681 499.00000000000006,201.203426124197 530.6666666666667,201.203426124197 C 562.3333333333334,201.203426124197 562.3333333333334,205.10064239828694 594,205.10064239828694 C 625.6666666666667,205.10064239828694 625.6666666666667,177.22055674518202 657.3333333333334,177.22055674518202 C 689,177.22055674518202 689,129.70449678800856 720.6666666666667,129.70449678800856 C 752.3333333333334,129.70449678800856 752.3333333333334,66.89935760171306 784,66.89935760171306 L 784,67.94860813704497 C 752.3333333333334,67.94860813704497 752.3333333333334,130.30406852248393 720.6666666666667,130.30406852248393 C 689,130.30406852248393 689,177.37044967880087 657.3333333333334,177.37044967880087 C 625.6666666666667,177.37044967880087 625.6666666666667,205.10064239828694 594,205.10064239828694 C 562.3333333333334,205.10064239828694 562.3333333333334,201.203426124197 530.6666666666667,201.203426124197 C 499.00000000000006,201.203426124197 499.00000000000006,204.9507494646681 467.33333333333337,204.9507494646681 C 435.6666666666667,204.9507494646681 435.6666666666667,200.1541755888651 404,200.1541755888651 C 372.33333333333337,200.1541755888651 372.33333333333337,206 340.6666666666667,206 C 309,206 309,205.7002141327623 277.33333333333337,205.7002141327623 C 245.66666666666669,205.7002141327623 245.66666666666669,205.10064239828694 214,205.10064239828694 C 182.33333333333334,205.10064239828694 182.33333333333334,205.55032119914347 150.66666666666669,205.55032119914347 C 119.00000000000001,205.55032119914347 119.00000000000001,206 87.33333333333334,206 C 55.66666666666667,206 55.66666666666667,206 24,206 Z" fill="#3D6117" fill-opacity="0.75" class="fade-2"/><path key="Java" d="M 24,206 C 55.66666666666667,206 55.66666666666667,206 87.33333333333334,206 C 119.00000000000001,206 119.00000000000001,205.55032119914347 150.66666666666669,205.55032119914347 C 182.33333333333334,205.55032119914347 182.33333333333334,205.10064239828694 214,205.10064239828694 C 245.66666666666669,205.10064239828694 245.66666666666669,205.7002141327623 277.33333333333337,205.7002141327623 C 309,205.7002141327623 309,206 340.6666666666667,206 C 372.33333333333337,206 372.33333333333337,200.1541755888651 404,200.1541755888651 C 435.6666666666667,200.1541755888651 435.6666666666667,204.9507494646681 467.33333333333337,204.9507494646681 C 499.00000000000006,204.9507494646681 499.00000000000006,201.203426124197 530.6666666666667,201.203426124197 C 562.3333333333334,201.203426124197 562.3333333333334,205.10064239828694 594,205.10064239828694 C 625.6666666666667,205.10064239828694 625.6666666666667,177.37044967880087 657.3333333333334,177.37044967880087 C 689,177.37044967880087 689,130.30406852248393 720.6666666666667,130.30406852248393 C 752.3333333333334,130.30406852248393 752.3333333333334,67.94860813704497 784,67.94860813704497 L 784,72.29550321199144 C 752.3333333333334,72.29550321199144 752.3333333333334,132.70235546038543 720.6666666666667,132.70235546038543 C 689,132.70235546038543 689,178.26980728051393 657.3333333333334,178.26980728051393 C 625.6666666666667,178.26980728051393 625.6666666666667,205.10064239828694 594,205.10064239828694 C 562.3333333333334,205.10064239828694 562.3333333333334,201.35331905781584 530.6666666666667,201.35331905781584 C 499.00000000000006,201.35331905781584 499.00000000000006,204.9507494646681 467.33333333333337,204.9507494646681 C 435.6666666666667,204.9507494646681 435.6666666666667,200.30406852248393 404,200.30406852248393 C 372.33333333333337,200.30406852248393 372.33333333333337,206 340.6666666666667,206 C 309,206 309,205.7002141327623 277.33333333333337,205.7002141327623 C 245.66666666666669,205.7002141327623 245.66666666666669,205.10064239828694 214,205.10064239828694 C 182.33333333333334,205.10064239828694 182.33333333333334,205.55032119914347 150.66666666666669,205.55032119914347 C 119.00000000000001,205.55032119914347 119.00000000000001,206 87.33333333333334,206 C 55.66666666666667,206 55.66666666666667,206 24,206 Z" fill="#b07219" fill-opacity="0.75" class="fade-3"/><path key="Python" d="M 24,206 C 55.66666666666667,206 55.66666666666667,206 87.33333333333334,206 C 119.00000000000001,206 119.00000000000001,205.55032119914347 150.66666666666669,205.55032119914347 C 182.33333333333334,205.55032119914347 182.33333333333334,205.10064239828694 214,205.10064239828694 C 245.66666666666669,205.10064239828694 245.66666666666669,205.7002141327623 277.33333333333337,205.7002141327623 C 309,205.7002141327623 309,206 340.6666666666667,206 C 372.33333333333337,206 372.33333333333337,200.30406852248393 404,200.30406852248393 C 435.6666666666667,200.30406852248393 435.6666666666667,204.9507494646681 467.33333333333337,204.9507494646681 C 499.00000000000006,204.9507494646681 499.00000000000006,201.35331905781584 530.6666666666667,201.35331905781584 C 562.3333333333334,201.35331905781584 562.3333333333334,205.10064239828694 594,205.10064239828694 C 625.6666666666667,205.10064239828694 625.6666666666667,178.26980728051393 657.3333333333334,178.26980728051393 C 689,178.26980728051393 689,132.70235546038543 720.6666666666667,132.70235546038543 C 752.3333333333334,132.70235546038543 752.3333333333334,72.29550321199144 784,72.29550321199144 L 784,83.8372591006424 C 752.3333333333334,83.8372591006424 752.3333333333334,138.99785867237688 720.6666666666667,138.99785867237688 C 689,138.99785867237688 689,180.6680942184154 657.3333333333334,180.6680942184154 C 625.6666666666667,180.6680942184154 625.6666666666667,205.10064239828694 594,205.10064239828694 C 562.3333333333334,205.10064239828694 562.3333333333334,201.80299785867237 530.6666666666667,201.80299785867237 C 499.00000000000006,201.80299785867237 499.00000000000006,205.10064239828694 467.33333333333337,205.10064239828694 C 435.6666666666667,205.10064239828694 435.6666666666667,200.75374732334046 404,200.75374732334046 C 372.33333333333337,200.75374732334046 372.33333333333337,206 340.6666666666667,206 C 309,206 309,205.7002141327623 277.33333333333337,205.7002141327623 C 245.66666666666669,205.7002141327623 245.66666666666669,205.10064239828694 214,205.10064239828694 C 182.33333333333334,205.10064239828694 182.33333333333334,205.55032119914347 150.66666666666669,205.55032119914347 C 119.00000000000001,205.55032119914347 119.00000000000001,206 87.33333333333334,206 C 55.66666666666667,206 55.66666666666667,206 24,206 Z" fill="#3572A5" fill-opacity="0.75" class="fade-4"/><path key="Shell" d="M 24,206 C 55.66666666666667,206 55.66666666666667,206 87.33333333333334,206 C 119.00000000000001,206 119.00000000000001,205.55032119914347 150.66666666666669,205.55032119914347 C 182.33333333333334,205.55032119914347 182.33333333333334,205.10064239828694 214,205.10064239828694 C 245.66666666666669,205.10064239828694 245.66666666666669,205.7002141327623 277.33333333333337,205.7002141327623 C 309,205.7002141327623 309,206 340.6666666666667,206 C 372.33333333333337,206 372.33333333333337,200.75374732334046 404,200.75374732334046 C 435.6666666666667,200.75374732334046 435.6666666666667,205.10064239828694 467.33333333333337,205.10064239828694 C 499.00000000000006,205.10064239828694 499.00000000000006,201.80299785867237 530.6666666666667,201.80299785867237 C 562.3333333333334,201.80299785867237 562.3333333333334,205.10064239828694 594,205.10064239828694 C 625.6666666666667,205.10064239828694 625.6666666666667,180.6680942184154 657.3333333333334,180.6680942184154 C 689,180.6680942184154 689,138.99785867237688 720.6666666666667,138.99785867237688 C 752.3333333333334,138.99785867237688 752.3333333333334,83.8372591006424 784,83.8372591006424 L 784,100.92505353319058 C 752.3333333333334,100.92505353319058 752.3333333333334,148.44111349036402 720.6666666666667,148.44111349036402 C 689,148.44111349036402 689,184.26552462526766 657.3333333333334,184.26552462526766 C 625.6666666666667,184.26552462526766 625.6666666666667,205.25053533190578 594,205.25053533190578 C 562.3333333333334,205.25053533190578 562.3333333333334,202.40256959314775 530.6666666666667,202.40256959314775 C 499.00000000000006,202.40256959314775 499.00000000000006,205.25053533190578 467.33333333333337,205.25053533190578 C 435.6666666666667,205.25053533190578 435.6666666666667,201.50321199143468 404,201.50321199143468 C 372.33333333333337,201.50321199143468 372.33333333333337,206 340.6666666666667,206 C 309,206 309,205.7002141327623 277.33333333333337,205.7002141327623 C 245.66666666666669,205.7002141327623 245.66666666666669,205.25053533190578 214,205.25053533190578 C 182.33333333333334,205.25053533190578 182.33333333333334,205.55032119914347 150.66666666666669,205.55032119914347 C 119.00000000000001,205.55032119914347 119.00000000000001,206 87.33333333333334,206 C 55.66666666666667,206 55.66666666666667,206 24,206 Z" fill="#89e051" fill-opacity="0.75" class="fade-5"/><path key="Go" d="M 24,206 C 55.66666666666667,206 55.66666666666667,206 87.33333333333334,206 C 119.00000000000001,206 119.00000000000001,205.55032119914347 150.66666666666669,205.55032119914347 C 182.33333333333334,205.55032119914347 182.33333333333334,205.25053533190578 214,205.25053533190578 C 245.66666666666669,205.25053533190578 245.66666666666669,205.7002141327623 277.33333333333337,205.7002141327623 C 309,205.7002141327623 309,206 340.6666666666667,206 C 372.33333333333337,206 372.33333333333337,201.50321199143468 404,201.50321199143468 C 435.6666666666667,201.50321199143468 435.6666666666667,205.25053533190578 467.33333333333337,205.25053533190578 C 499.00000000000006,205.25053533190578 499.00000000000006,202.40256959314775 530.6666666666667,202.40256959314775 C 562.3333333333334,202.40256959314775 562.3333333333334,205.25053533190578 594,205.25053533190578 C 625.6666666666667,205.25053533190578 625.6666666666667,184.26552462526766 657.3333333333334,184.26552462526766 C 689,184.26552462526766 689,148.44111349036402 720.6666666666667,148.44111349036402 C 752.3333333333334,148.44111349036402 752.3333333333334,100.92505353319058 784,100.92505353319058 L 784,122.05995717344754 C 752.3333333333334,122.05995717344754 752.3333333333334,159.982869379015 720.6666666666667,159.982869379015 C 689,159.982869379015 689,188.61241970021413 657.3333333333334,188.61241970021413 C 625.6666666666667,188.61241970021413 625.6666666666667,205.40042826552462 594,205.40042826552462 C 562.3333333333334,205.40042826552462 562.3333333333334,203.15203426124197 530.6666666666667,203.15203426124197 C 499.00000000000006,203.15203426124197 499.00000000000006,205.40042826552462 467.33333333333337,205.40042826552462 C 435.6666666666667,205.40042826552462 435.6666666666667,202.40256959314775 404,202.40256959314775 C 372.33333333333337,202.40256959314775 372.33333333333337,206 340.6666666666667,206 C 309,206 309,205.7002141327623 277.33333333333337,205.7002141327623 C 245.66666666666669,205.7002141327623 245.66666666666669,205.40042826552462 214,205.40042826552462 C 182.33333333333334,205.40042826552462 182.33333333333334,205.7002141327623 150.66666666666669,205.7002141327623 C 119.00000000000001,205.7002141327623 119.00000000000001,206 87.33333333333334,206 C 55.66666666666667,206 55.66666666666667,206 24,206 Z" fill="#00ADD8" fill-opacity="0.75" class="fade-6"/><path key="TypeScript" d="M 24,206 C 55.66666666666667,206 55.66666666666667,206 87.33333333333334,206 C 119.00000000000001,206 119.00000000000001,205.7002141327623 150.66666666666669,205.7002141327623 C 182.33333333333334,205.7002141327623 182.33333333333334,205.40042826552462 214,205.40042826552462 C 245.66666666666669,205.40042826552462 245.66666666666669,205.7002141327623 277.33333333333337,205.7002141327623 C 309,205.7002141327623 309,206 340.6666666666667,206 C 372.33333333333337,206 372.33333333333337,202.40256959314775 404,202.40256959314775 C 435.6666666666667,202.40256959314775 435.6666666666667,205.40042826552462 467.33333333333337,205.40042826552462 C 499.00000000000006,205.40042826552462 499.00000000000006,203.15203426124197 530.6666666666667,203.15203426124197 C 562.3333333333334,203.15203426124197 562.3333333333334,205.40042826552462 594,205.40042826552462 C 625.6666666666667,205.40042826552462 625.6666666666667,188.61241970021413 657.3333333333334,188.61241970021413 C 689,188.61241970021413 689,159.982869379015 720.6666666666667,159.982869379015 C 752.3333333333334,159.982869379015 752.3333333333334,122.05995717344754 784,122.05995717344754 L 784,161.0321199143469 C 752.3333333333334,161.0321199143469 752.3333333333334,181.41755888650965 720.6666666666667,181.41755888650965 C 689,181.41755888650965 689,196.70663811563168 657.3333333333334,196.70663811563168 C 625.6666666666667,196.70663811563168 625.6666666666667,205.7002141327623 594,205.7002141327623 C 562.3333333333334,205.7002141327623 562.3333333333334,204.50107066381156 530.6666666666667,204.50107066381156 C 499.00000000000006,204.50107066381156 499.00000000000006,205.7002141327623 467.33333333333337,205.7002141327623 C 435.6666666666667,205.7002141327623 435.6666666666667,204.05139186295503 404,204.05139186295503 C 372.33333333333337,204.05139186295503 372.33333333333337,206 340.6666666666667,206 C 309,206 309,205.85010706638116 277.33333333333337,205.85010706638116 C 245.66666666666669,205.85010706638116 245.66666666666669,205.7002141327623 214,205.7002141327623 C 182.33333333333334,205.7002141327623 182.33333333333334,205.85010706638116 150.66666666666669,205.85010706638116 C 119.00000000000001,205.85010706638116 119.00000000000001,206 87.33333333333334,206 C 55.66666666666667,206 55.66666666666667,206 24,206 Z" fill="#3178c6" fill-opacity="0.75" class="fade-6"/><path key="Rust" d="M 24,206 C 55.66666666666667,206 55.66666666666667,206 87.33333333333334,206 C 119.00000000000001,206 119.00000000000001,205.85010706638116 150.66666666666669,205.85010706638116 C 182.33333333333334,205.85010706638116 182.33333333333334,205.7002141327623 214,205.7002141327623 C 245.66666666666669,205.7002141327623 245.66666666666669,205.85010706638116 277.33333333333337,205.85010706638116 C 309,205.85010706638116 309,206 340.6666666666667,206 C 372.33333333333337,206 372.33333333333337,204.05139186295503 404,204.05139186295503 C 435.6666666666667,204.05139186295503 435.6666666666667,205.7002141327623 467.33333333333337,205.7002141327623 C 499.00000000000006,205.7002141327623 499.00000000000006,204.50107066381156 530.6666666666667,204.50107066381156 C 562.3333333333334,204.50107066381156 562.3333333333334,205.7002141327623 594,205.7002141327623 C 625.6666666666667,205.7002141327623 625.6666666666667,196.70663811563168 657.3333333333334,196.70663811563168 C 689,196.70663811563168 689,181.41755888650965 720.6666666666667,181.41755888650965 C 752.3333333333334,181.41755888650965 752.3333333333334,161.0321199143469 784,161.0321199143469 L 784,206 C 752.3333333333334,206 752.3333333333334,206 720.6666666666667,206 C 689,206 689,206 657.3333333333334,206 C 625.6666666666667,206 625.6666666666667,206 594,206 C 562.3333333333334,206 562.3333333333334,206 530.6666666666667,206 C 499.00000000000006,206 499.00000000000006,206 467.33333333333337,206 C 435.6666666666667,206 435.6666666666667,206 404,206 C 372.33333333333337,206 372.33333333333337,206 340.6666666666667,206 C 309,206 309,206 277.33333333333337,206 C 245.66666666666669,206 245.66666666666669,206 214,206 C 182.33333333333334,206 182.33333333333334,206 150.66666666666669,206 C 119.00000000000001,206 119.00000000000001,206 87.33333333333334,206 C 55.66666666666667,206 55.66666666666667,206 24,206 Z" fill="#dea584" fill-opacity="0.75" class="fade-6"/><rect x="24" y="212" width="8" height="8" rx="2" fill="#dea584" opacity="0.85"/><text x="36" y="220" class="t t-value">Rust</text><rect x="80" y="212" width="8" height="8" rx="2" fill="#3178c6" opacity="0.85"/><text x="92" y="220" class="t t-value">TypeScript</text><rect x="178" y="212" width="8" height="8" rx="2" fill="#00ADD8" opacity="0.85"/><text x="190" y="220" class="t t-value">Go</text><rect x="220" y="212" width="8" height="8" rx="2" fill="#89e051" opacity="0.85"/><text x="232" y="220" class="t t-value">Shell</text><rect x="283" y="212" width="8" height="8" rx="2" fill="#3572A5" opacity="0.85"/><text x="295" y="220" class="t t-value">Python</text><rect x="353" y="212" width="8" height="8" rx="2" fill="#b07219" opacity="0.85"/><text x="365" y="220" class="t t-value">Java</text><rect x="409" y="212" width="8" height="8" rx="2" fill="#3D6117" opacity="0.85"/><text x="421" y="220" class="t t-value">TeX</text><rect x="458" y="212" width="8" height="8" rx="2" fill="#DA5B0B" opacity="0.85"/><text x="470" y="220" class="t t-value">Jupyter Notebook</text><text key="Feb" x="24" y="220" class="t t-value" text-anchor="start" opacity="0">Feb</text><text key="Apr" x="150.66666666666669" y="220" class="t t-value" text-anchor="start" opacity="0">Apr</text><text key="Jun" x="277.33333333333337" y="220" class="t t-value" text-anchor="start" opacity="0">Jun</text><text key="Aug" x="404" y="220" class="t t-value" text-anchor="start" opacity="0">Aug</text><text key="Oct" x="530.6666666666667" y="220" class="t t-value" text-anchor="start" opacity="0">Oct</text><text key="Dec" x="657.3333333333334" y="220" class="t t-value" text-anchor="start" opacity="0">Dec</text><text key="Feb" x="784" y="220" class="t t-value" text-anchor="start" opacity="0">Feb</text><text x="24" y="282" class="t t-h">CONTRIBUTION RHYTHM</text><text x="24" y="298" class="t t-sub">Activity patterns and statistics over the past year</text><circle key="0.25" cx="144" cy="428" r="22.5" fill="none" stroke="#30363d" stroke-width="1" stroke-opacity="0.4"/><circle key="0.5" cx="144" cy="428" r="45" fill="none" stroke="#30363d" stroke-width="1" stroke-opacity="0.4"/><circle key="0.75" cx="144" cy="428" r="67.5" fill="none" stroke="#30363d" stroke-width="1" stroke-opacity="0.4"/><circle key="1" cx="144" cy="428" r="90" fill="none" stroke="#30363d" stroke-width="1" stroke-opacity="0.4"/><line key="Sun" x1="144" y1="428" x2="144" y2="338" stroke="#30363d" stroke-width="1" stroke-opacity="0.3"/><line key="Mon" x1="144" y1="428" x2="214.36483342212267" y2="371.885917832714" stroke="#30363d" stroke-width="1" stroke-opacity="0.3"/><line key="Tue" x1="144" y1="428" x2="231.74351209636413" y2="448.0268840560683" stroke="#30363d" stroke-width="1" stroke-opacity="0.3"/><line key="Wed" x1="144" y1="428" x2="183.04953652058023" y2="509.08719811121773" stroke="#30363d" stroke-width="1" stroke-opacity="0.3"/><line key="Thu" x1="144" y1="428" x2="104.95046347941977" y2="509.08719811121773" stroke="#30363d" stroke-width="1" stroke-opacity="0.3"/><line key="Fri" x1="144" y1="428" x2="56.25648790363587" y2="448.0268840560683" stroke="#30363d" stroke-width="1" stroke-opacity="0.3"/><line key="Sat" x1="144" y1="428" x2="73.63516657787731" y2="371.885917832714" stroke="#30363d" stroke-width="1" stroke-opacity="0.3"/><polygon points="144,385.5796178343949 176.11982841986492,402.38529157968895 205.29005409703566,441.98905489266764 157.09941989437723,455.2012256933597 133.13908856858598,450.5529149736083 56.25648790363587,448.0268840560683 84.98915243792258,380.94041941384717" fill="#58a6ff" fill-opacity="0.2" stroke="#58a6ff" stroke-width="2" stroke-opacity="0.8" class="fade-2" style="transform-origin: 144px 428px"/><circle key="Sun" cx="144" cy="385.5796178343949" r="3" fill="#58a6ff" class="fade-1"/><circle key="Mon" cx="176.11982841986492" cy="402.38529157968895" r="3" fill="#58a6ff" class="fade-2"/><circle key="Tue" cx="205.29005409703566" cy="441.98905489266764" r="3" fill="#58a6ff" class="fade-3"/><circle key="Wed" cx="157.09941989437723" cy="455.2012256933597" r="3" fill="#58a6ff" class="fade-4"/><circle key="Thu" cx="133.13908856858598" cy="450.5529149736083" r="3" fill="#58a6ff" class="fade-5"/><circle key="Fri" cx="56.25648790363587" cy="448.0268840560683" r="3" fill="#58a6ff" class="fade-6"/><circle key="Sat" cx="84.98915243792258" cy="380.94041941384717" r="3" fill="#58a6ff" class="fade-6"/><text key="Sun" x="144" y="326" class="t t-value" text-anchor="middle">Sun</text><text key="Mon" x="226.87413714161116" y="365.91008100297427" class="t t-value" text-anchor="middle">Mon</text><text key="Tue" x="247.34235869127332" y="455.5872189993693" class="t t-value" text-anchor="middle">Tue</text><text key="Wed" x="189.99167634646116" y="527.5026999976565" class="t t-value" text-anchor="middle">Wed</text><text key="Thu" x="98.00832365353884" y="527.5026999976565" class="t t-value" text-anchor="middle">Thu</text><text key="Fri" x="40.657641308726696" y="455.5872189993693" class="t t-value" text-anchor="middle">Fri</text><text key="Sat" x="61.12586285838883" y="365.91008100297427" class="t t-value" text-anchor="middle">Sat</text><text x="324" y="338" class="t t-stat-label">COMMITS</text><text x="324" y="360" fill="#58a6ff" class="t t-stat-value">1,766</text><text x="324" y="380" class="t t-stat-label">PRS</text><text x="324" y="402" fill="#3fb950" class="t t-stat-value">33</text><text x="324" y="422" class="t t-stat-label">REVIEWS</text><text x="324" y="444" fill="#d29922" class="t t-stat-value">5</text><text x="324" y="464" class="t t-stat-label">REPOS</text><text x="324" y="486" fill="#bc8cff" class="t t-stat-value">25</text><text x="324" y="506" class="t t-stat-label">STREAK</text><text x="324" y="528" fill="#39d2c0" class="t t-stat-value">20d</text><text x="24" y="614" class="t t-h">PROJECT CONSTELLATION</text><text x="24" y="630" class="t t-sub">Projects mapped by language ecosystem and complexity</text><line key="0-2" x1="103.2" y1="670" x2="487.2" y2="733.8107687324725" stroke="#30363d" stroke-width="1" stroke-opacity="0.15" stroke-dasharray="4 4"/><line key="0-3" x1="103.2" y1="670" x2="116" y2="739.2362538816168" stroke="#30363d" stroke-width="1" stroke-opacity="0.15" stroke-dasharray="4 4"/><line key="0-6" x1="103.2" y1="670" x2="128.8" y2="809.7312232074387" stroke="#30363d" stroke-width="1" stroke-opacity="0.15" stroke-dasharray="4 4"/><line key="0-7" x1="103.2" y1="670" x2="564" y2="815.7506818583961" stroke="#30363d" stroke-width="1" stroke-opacity="0.15" stroke-dasharray="4 4"/><line key="0-8" x1="103.2" y1="670" x2="692" y2="819.950478078779" stroke="#30363d" stroke-width="1" stroke-opacity="0.15" stroke-dasharray="4 4"/><line key="0-9" x1="103.2" y1="670" x2="491.46666666666664" y2="828.6715052118705" stroke="#30363d" stroke-width="1" stroke-opacity="0.15" stroke-dasharray="4 4"/><line key="0-11" x1="103.2" y1="670" x2="495.73333333333335" y2="844.2016419911832" stroke="#30363d" stroke-width="1" stroke-opacity="0.15" stroke-dasharray="4 4"/><line key="0-12" x1="103.2" y1="670" x2="500" y2="865.3473375879255" stroke="#30363d" stroke-width="1" stroke-opacity="0.15" stroke-dasharray="4 4"/><line key="0-13" x1="103.2" y1="670" x2="431.73333333333335" y2="867.1753990446698" stroke="#30363d" stroke-width="1" stroke-opacity="0.15" stroke-dasharray="4 4"/><line key="0-15" x1="103.2" y1="670" x2="504.26666666666665" y2="874.2472575852855" stroke="#30363d" stroke-width="1" stroke-opacity="0.15" stroke-dasharray="4 4"/><line key="0-19" x1="103.2" y1="670" x2="508.53333333333336" y2="893.5173733082124" stroke="#30363d" stroke-width="1" stroke-opacity="0.15" stroke-dasharray="4 4"/><line key="0-21" x1="103.2" y1="670" x2="512.8" y2="907.890296871788" stroke="#30363d" stroke-width="1" stroke-opacity="0.15" stroke-dasharray="4 4"/><line key="0-23" x1="103.2" y1="670" x2="628" y2="919.4959714412096" stroke="#30363d" stroke-width="1" stroke-opacity="0.15" stroke-dasharray="4 4"/><line key="1-5" x1="295.2" y1="712.3953295272465" x2="423.2" y2="759.2722546796933" stroke="#30363d" stroke-width="1" stroke-opacity="0.15" stroke-dasharray="4 4"/><line key="1-8" x1="295.2" y1="712.3953295272465" x2="692" y2="819.950478078779" stroke="#30363d" stroke-width="1" stroke-opacity="0.15" stroke-dasharray="4 4"/><line key="1-10" x1="295.2" y1="712.3953295272465" x2="320.8" y2="833.167579315541" stroke="#30363d" stroke-width="1" stroke-opacity="0.15" stroke-dasharray="4 4"/><line key="1-13" x1="295.2" y1="712.3953295272465" x2="431.73333333333335" y2="867.1753990446698" stroke="#30363d" stroke-width="1" stroke-opacity="0.15" stroke-dasharray="4 4"/><line key="2-3" x1="487.2" y1="733.8107687324725" x2="116" y2="739.2362538816168" stroke="#30363d" stroke-width="1" stroke-opacity="0.15" stroke-dasharray="4 4"/><line key="2-6" x1="487.2" y1="733.8107687324725" x2="128.8" y2="809.7312232074387" stroke="#30363d" stroke-width="1" stroke-opacity="0.15" stroke-dasharray="4 4"/><line key="2-7" x1="487.2" y1="733.8107687324725" x2="564" y2="815.7506818583961" stroke="#30363d" stroke-width="1" stroke-opacity="0.15" stroke-dasharray="4 4"/><line key="2-8" x1="487.2" y1="733.8107687324725" x2="692" y2="819.950478078779" stroke="#30363d" stroke-width="1" stroke-opacity="0.15" stroke-dasharray="4 4"/><line key="2-9" x1="487.2" y1="733.8107687324725" x2="491.46666666666664" y2="828.6715052118705" stroke="#30363d" stroke-width="1" stroke-opacity="0.15" stroke-dasharray="4 4"/><line key="2-11" x1="487.2" y1="733.8107687324725" x2="495.73333333333335" y2="844.2016419911832" stroke="#30363d" stroke-width="1" stroke-opacity="0.15" stroke-dasharray="4 4"/><line key="2-12" x1="487.2" y1="733.8107687324725" x2="500" y2="865.3473375879255" stroke="#30363d" stroke-width="1" stroke-opacity="0.15" stroke-dasharray="4 4"/><line key="2-15" x1="487.2" y1="733.8107687324725" x2="504.26666666666665" y2="874.2472575852855" stroke="#30363d" stroke-width="1" stroke-opacity="0.15" stroke-dasharray="4 4"/><line key="2-19" x1="487.2" y1="733.8107687324725" x2="508.53333333333336" y2="893.5173733082124" stroke="#30363d" stroke-width="1" stroke-opacity="0.15" stroke-dasharray="4 4"/><line key="2-21" x1="487.2" y1="733.8107687324725" x2="512.8" y2="907.890296871788" stroke="#30363d" stroke-width="1" stroke-opacity="0.15" stroke-dasharray="4 4"/><line key="3-6" x1="116" y1="739.2362538816168" x2="128.8" y2="809.7312232074387" stroke="#30363d" stroke-width="1" stroke-opacity="0.15" stroke-dasharray="4 4"/><line key="3-7" x1="116" y1="739.2362538816168" x2="564" y2="815.7506818583961" stroke="#30363d" stroke-width="1" stroke-opacity="0.15" stroke-dasharray="4 4"/><line key="3-8" x1="116" y1="739.2362538816168" x2="692" y2="819.950478078779" stroke="#30363d" stroke-width="1" stroke-opacity="0.15" stroke-dasharray="4 4"/><line key="3-9" x1="116" y1="739.2362538816168" x2="491.46666666666664" y2="828.6715052118705" stroke="#30363d" stroke-width="1" stroke-opacity="0.15" stroke-dasharray="4 4"/><line key="3-11" x1="116" y1="739.2362538816168" x2="495.73333333333335" y2="844.2016419911832" stroke="#30363d" stroke-width="1" stroke-opacity="0.15" stroke-dasharray="4 4"/><line key="3-12" x1="116" y1="739.2362538816168" x2="500" y2="865.3473375879255" stroke="#30363d" stroke-width="1" stroke-opacity="0.15" stroke-dasharray="4 4"/><line key="3-15" x1="116" y1="739.2362538816168" x2="504.26666666666665" y2="874.2472575852855" stroke="#30363d" stroke-width="1" stroke-opacity="0.15" stroke-dasharray="4 4"/><line key="3-19" x1="116" y1="739.2362538816168" x2="508.53333333333336" y2="893.5173733082124" stroke="#30363d" stroke-width="1" stroke-opacity="0.15" stroke-dasharray="4 4"/><line key="3-21" x1="116" y1="739.2362538816168" x2="512.8" y2="907.890296871788" stroke="#30363d" stroke-width="1" stroke-opacity="0.15" stroke-dasharray="4 4"/><line key="4-8" x1="679.2" y1="757.1367211124876" x2="692" y2="819.950478078779" stroke="#30363d" stroke-width="1" stroke-opacity="0.15" stroke-dasharray="4 4"/><line key="4-20" x1="679.2" y1="757.1367211124876" x2="244" y2="907.1970870227474" stroke="#30363d" stroke-width="1" stroke-opacity="0.15" stroke-dasharray="4 4"/><line key="5-8" x1="423.2" y1="759.2722546796933" x2="692" y2="819.950478078779" stroke="#30363d" stroke-width="1" stroke-opacity="0.15" stroke-dasharray="4 4"/><line key="5-10" x1="423.2" y1="759.2722546796933" x2="320.8" y2="833.167579315541" stroke="#30363d" stroke-width="1" stroke-opacity="0.15" stroke-dasharray="4 4"/><line key="5-13" x1="423.2" y1="759.2722546796933" x2="431.73333333333335" y2="867.1753990446698" stroke="#30363d" stroke-width="1" stroke-opacity="0.15" stroke-dasharray="4 4"/><line key="6-7" x1="128.8" y1="809.7312232074387" x2="564" y2="815.7506818583961" stroke="#30363d" stroke-width="1" stroke-opacity="0.15" stroke-dasharray="4 4"/><line key="6-8" x1="128.8" y1="809.7312232074387" x2="692" y2="819.950478078779" stroke="#30363d" stroke-width="1" stroke-opacity="0.15" stroke-dasharray="4 4"/><line key="6-9" x1="128.8" y1="809.7312232074387" x2="491.46666666666664" y2="828.6715052118705" stroke="#30363d" stroke-width="1" stroke-opacity="0.15" stroke-dasharray="4 4"/><line key="6-11" x1="128.8" y1="809.7312232074387" x2="495.73333333333335" y2="844.2016419911832" stroke="#30363d" stroke-width="1" stroke-opacity="0.15" stroke-dasharray="4 4"/><line key="6-12" x1="128.8" y1="809.7312232074387" x2="500" y2="865.3473375879255" stroke="#30363d" stroke-width="1" stroke-opacity="0.15" stroke-dasharray="4 4"/><line key="6-15" x1="128.8" y1="809.7312232074387" x2="504.26666666666665" y2="874.2472575852855" stroke="#30363d" stroke-width="1" stroke-opacity="0.15" stroke-dasharray="4 4"/><line key="6-19" x1="128.8" y1="809.7312232074387" x2="508.53333333333336" y2="893.5173733082124" stroke="#30363d" stroke-width="1" stroke-opacity="0.15" stroke-dasharray="4 4"/><line key="6-21" x1="128.8" y1="809.7312232074387" x2="512.8" y2="907.890296871788" stroke="#30363d" stroke-width="1" stroke-opacity="0.15" stroke-dasharray="4 4"/><line key="7-8" x1="564" y1="815.7506818583961" x2="692" y2="819.950478078779" stroke="#30363d" stroke-width="1" stroke-opacity="0.15" stroke-dasharray="4 4"/><line key="7-9" x1="564" y1="815.7506818583961" x2="491.46666666666664" y2="828.6715052118705" stroke="#30363d" stroke-width="1" stroke-opacity="0.15" stroke-dasharray="4 4"/><line key="7-11" x1="564" y1="815.7506818583961" x2="495.73333333333335" y2="844.2016419911832" stroke="#30363d" stroke-width="1" stroke-opacity="0.15" stroke-dasharray="4 4"/><line key="7-12" x1="564" y1="815.7506818583961" x2="500" y2="865.3473375879255" stroke="#30363d" stroke-width="1" stroke-opacity="0.15" stroke-dasharray="4 4"/><line key="7-15" x1="564" y1="815.7506818583961" x2="504.26666666666665" y2="874.2472575852855" stroke="#30363d" stroke-width="1" stroke-opacity="0.15" stroke-dasharray="4 4"/><line key="7-16" x1="564" y1="815.7506818583961" x2="192.8" y2="883.5804337382958" stroke="#30363d" stroke-width="1" stroke-opacity="0.15" stroke-dasharray="4 4"/><line key="7-19" x1="564" y1="815.7506818583961" x2="508.53333333333336" y2="893.5173733082124" stroke="#30363d" stroke-width="1" stroke-opacity="0.15" stroke-dasharray="4 4"/><line key="7-21" x1="564" y1="815.7506818583961" x2="512.8" y2="907.890296871788" stroke="#30363d" stroke-width="1" stroke-opacity="0.15" stroke-dasharray="4 4"/><line key="8-9" x1="692" y1="819.950478078779" x2="491.46666666666664" y2="828.6715052118705" stroke="#30363d" stroke-width="1" stroke-opacity="0.15" stroke-dasharray="4 4"/><line key="8-10" x1="692" y1="819.950478078779" x2="320.8" y2="833.167579315541" stroke="#30363d" stroke-width="1" stroke-opacity="0.15" stroke-dasharray="4 4"/><line key="8-11" x1="692" y1="819.950478078779" x2="495.73333333333335" y2="844.2016419911832" stroke="#30363d" stroke-width="1" stroke-opacity="0.15" stroke-dasharray="4 4"/><line key="8-12" x1="692" y1="819.950478078779" x2="500" y2="865.3473375879255" stroke="#30363d" stroke-width="1" stroke-opacity="0.15" stroke-dasharray="4 4"/><line key="8-13" x1="692" y1="819.950478078779" x2="431.73333333333335" y2="867.1753990446698" stroke="#30363d" stroke-width="1" stroke-opacity="0.15" stroke-dasharray="4 4"/><line key="8-15" x1="692" y1="819.950478078779" x2="504.26666666666665" y2="874.2472575852855" stroke="#30363d" stroke-width="1" stroke-opacity="0.15" stroke-dasharray="4 4"/><line key="8-17" x1="692" y1="819.950478078779" x2="440.26666666666665" y2="886.52098519471" stroke="#30363d" stroke-width="1" stroke-opacity="0.15" stroke-dasharray="4 4"/><line key="8-18" x1="692" y1="819.950478078779" x2="704.8" y2="888.9360388623352" stroke="#30363d" stroke-width="1" stroke-opacity="0.15" stroke-dasharray="4 4"/><line key="8-19" x1="692" y1="819.950478078779" x2="508.53333333333336" y2="893.5173733082124" stroke="#30363d" stroke-width="1" stroke-opacity="0.15" stroke-dasharray="4 4"/><line key="8-20" x1="692" y1="819.950478078779" x2="244" y2="907.1970870227474" stroke="#30363d" stroke-width="1" stroke-opacity="0.15" stroke-dasharray="4 4"/><line key="8-21" x1="692" y1="819.950478078779" x2="512.8" y2="907.890296871788" stroke="#30363d" stroke-width="1" stroke-opacity="0.15" stroke-dasharray="4 4"/><line key="9-11" x1="491.46666666666664" y1="828.6715052118705" x2="495.73333333333335" y2="844.2016419911832" stroke="#30363d" stroke-width="1" stroke-opacity="0.15" stroke-dasharray="4 4"/><line key="9-12" x1="491.46666666666664" y1="828.6715052118705" x2="500" y2="865.3473375879255" stroke="#30363d" stroke-width="1" stroke-opacity="0.15" stroke-dasharray="4 4"/><line key="9-15" x1="491.46666666666664" y1="828.6715052118705" x2="504.26666666666665" y2="874.2472575852855" stroke="#30363d" stroke-width="1" stroke-opacity="0.15" stroke-dasharray="4 4"/><line key="9-19" x1="491.46666666666664" y1="828.6715052118705" x2="508.53333333333336" y2="893.5173733082124" stroke="#30363d" stroke-width="1" stroke-opacity="0.15" stroke-dasharray="4 4"/><line key="9-21" x1="491.46666666666664" y1="828.6715052118705" x2="512.8" y2="907.890296871788" stroke="#30363d" stroke-width="1" stroke-opacity="0.15" stroke-dasharray="4 4"/><line key="10-13" x1="320.8" y1="833.167579315541" x2="431.73333333333335" y2="867.1753990446698" stroke="#30363d" stroke-width="1" stroke-opacity="0.15" stroke-dasharray="4 4"/><line key="11-12" x1="495.73333333333335" y1="844.2016419911832" x2="500" y2="865.3473375879255" stroke="#30363d" stroke-width="1" stroke-opacity="0.15" stroke-dasharray="4 4"/><line key="11-15" x1="495.73333333333335" y1="844.2016419911832" x2="504.26666666666665" y2="874.2472575852855" stroke="#30363d" stroke-width="1" stroke-opacity="0.15" stroke-dasharray="4 4"/><line key="11-19" x1="495.73333333333335" y1="844.2016419911832" x2="508.53333333333336" y2="893.5173733082124" stroke="#30363d" stroke-width="1" stroke-opacity="0.15" stroke-dasharray="4 4"/><line key="11-21" x1="495.73333333333335" y1="844.2016419911832" x2="512.8" y2="907.890296871788" stroke="#30363d" stroke-width="1" stroke-opacity="0.15" stroke-dasharray="4 4"/><line key="12-15" x1="500" y1="865.3473375879255" x2="504.26666666666665" y2="874.2472575852855" stroke="#30363d" stroke-width="1" stroke-opacity="0.15" stroke-dasharray="4 4"/><line key="12-19" x1="500" y1="865.3473375879255" x2="508.53333333333336" y2="893.5173733082124" stroke="#30363d" stroke-width="1" stroke-opacity="0.15" stroke-dasharray="4 4"/><line key="12-21" x1="500" y1="865.3473375879255" x2="512.8" y2="907.890296871788" stroke="#30363d" stroke-width="1" stroke-opacity="0.15" stroke-dasharray="4 4"/><line key="13-23" x1="431.73333333333335" y1="867.1753990446698" x2="628" y2="919.4959714412096" stroke="#30363d" stroke-width="1" stroke-opacity="0.15" stroke-dasharray="4 4"/><line key="15-19" x1="504.26666666666665" y1="874.2472575852855" x2="508.53333333333336" y2="893.5173733082124" stroke="#30363d" stroke-width="1" stroke-opacity="0.15" stroke-dasharray="4 4"/><line key="15-21" x1="504.26666666666665" y1="874.2472575852855" x2="512.8" y2="907.890296871788" stroke="#30363d" stroke-width="1" stroke-opacity="0.15" stroke-dasharray="4 4"/><line key="19-21" x1="508.53333333333336" y1="893.5173733082124" x2="512.8" y2="907.890296871788" stroke="#30363d" stroke-width="1" stroke-opacity="0.15" stroke-dasharray="4 4"/><circle cx="103.2" cy="670" r="26" fill="#00ADD8" fill-opacity="0.08" class="fade-1"/><circle cx="103.2" cy="670" r="22" fill="#00ADD8" fill-opacity="0.7" stroke="#00ADD8" stroke-width="1.5" stroke-opacity="0.9" class="fade-1"/><text x="103.2" y="706" class="t t-value fade-1" text-anchor="middle">incipit</text><circle cx="295.2" cy="712.3953295272465" r="26" fill="#DA5B0B" fill-opacity="0.08" class="fade-2"/><circle cx="295.2" cy="712.3953295272465" r="22" fill="#DA5B0B" fill-opacity="0.7" stroke="#DA5B0B" stroke-width="1.5" stroke-opacity="0.9" class="fade-2"/><text x="295.2" y="748.3953295272465" class="t t-value fade-2" text-anchor="middle">lepus-classifier</text><circle cx="487.2" cy="733.8107687324725" r="26" fill="#dea584" fill-opacity="0.08" class="fade-3"/><circle cx="487.2" cy="733.8107687324725" r="22" fill="#dea584" fill-opacity="0.7" stroke="#dea584" stroke-width="1.5" stroke-opacity="0.9" class="fade-3"/><text x="487.2" y="769.8107687324725" class="t t-value fade-3" text-anchor="middle">linear-gp</text><circle cx="116" cy="739.2362538816168" r="26" fill="#00ADD8" fill-opacity="0.08" class="fade-4"/><circle cx="116" cy="739.2362538816168" r="22" fill="#00ADD8" fill-opacity="0.7" stroke="#00ADD8" stroke-width="1.5" stroke-opacity="0.9" class="fade-4"/><text x="116" y="775.2362538816168" class="t t-value fade-4" text-anchor="middle">zigbee-rest</text><circle cx="679.2" cy="757.1367211124876" r="26" fill="#3178c6" fill-opacity="0.08" class="fade-5"/><circle cx="679.2" cy="757.1367211124876" r="22" fill="#3178c6" fill-opacity="0.7" stroke="#3178c6" stroke-width="1.5" stroke-opacity="0.9" class="fade-5"/><text x="679.2" y="793.1367211124876" class="t t-value fade-5" text-anchor="middle">urmzd.com</text><circle cx="423.2" cy="759.2722546796933" r="26" fill="#3572A5" fill-opacity="0.08" class="fade-6"/><circle cx="423.2" cy="759.2722546796933" r="22" fill="#3572A5" fill-opacity="0.7" stroke="#3572A5" stroke-width="1.5" stroke-opacity="0.9" class="fade-6"/><text x="423.2" y="795.2722546796933" class="t t-value fade-6" text-anchor="middle">exp-agi-models</text><circle cx="128.8" cy="809.7312232074387" r="24.34407914057398" fill="#00ADD8" fill-opacity="0.08" class="fade-6"/><circle cx="128.8" cy="809.7312232074387" r="20.34407914057398" fill="#00ADD8" fill-opacity="0.7" stroke="#00ADD8" stroke-width="1.5" stroke-opacity="0.9" class="fade-6"/><text x="128.8" y="844.0753023480127" class="t t-value fade-6" text-anchor="middle">saige</text><circle cx="564" cy="815.7506818583961" r="21.662575812224762" fill="#89e051" fill-opacity="0.08" class="fade-6"/><circle cx="564" cy="815.7506818583961" r="17.662575812224762" fill="#89e051" fill-opacity="0.7" stroke="#89e051" stroke-width="1.5" stroke-opacity="0.9" class="fade-6"/><text x="564" y="847.4132576706209" class="t t-value fade-6" text-anchor="middle">dotfiles</text><circle cx="692" cy="819.950478078779" r="16.106871729192164" fill="#3178c6" fill-opacity="0.08" class="fade-6"/><circle cx="692" cy="819.950478078779" r="12.106871729192164" fill="#3178c6" fill-opacity="0.7" stroke="#3178c6" stroke-width="1.5" stroke-opacity="0.9" class="fade-6"/><text x="692" y="846.0573498079711" class="t t-value fade-6" text-anchor="middle">zoro</text><circle cx="491.46666666666664" cy="828.6715052118705" r="26" fill="#dea584" fill-opacity="0.08" class="fade-6"/><circle cx="491.46666666666664" cy="828.6715052118705" r="22" fill="#dea584" fill-opacity="0.7" stroke="#dea584" stroke-width="1.5" stroke-opacity="0.9" class="fade-6"/><text x="491.46666666666664" y="864.6715052118705" class="t t-value fade-6" text-anchor="middle">teasr</text><circle cx="320.8" cy="833.167579315541" r="25.36863924926572" fill="#DA5B0B" fill-opacity="0.08" class="fade-6"/><circle cx="320.8" cy="833.167579315541" r="21.36863924926572" fill="#DA5B0B" fill-opacity="0.7" stroke="#DA5B0B" stroke-width="1.5" stroke-opacity="0.9" class="fade-6"/><text x="320.8" y="868.5362185648067" class="t t-value fade-6" text-anchor="middle">md-classifier</text><circle cx="495.73333333333335" cy="844.2016419911832" r="20.72593699206231" fill="#dea584" fill-opacity="0.08" class="fade-6"/><circle cx="495.73333333333335" cy="844.2016419911832" r="16.72593699206231" fill="#dea584" fill-opacity="0.7" stroke="#dea584" stroke-width="1.5" stroke-opacity="0.9" class="fade-6"/><text x="495.73333333333335" y="874.9275789832456" class="t t-value fade-6" text-anchor="middle">oag</text><circle cx="500" cy="865.3473375879255" r="16.802607394206206" fill="#dea584" fill-opacity="0.08" class="fade-6"/><circle cx="500" cy="865.3473375879255" r="12.802607394206204" fill="#dea584" fill-opacity="0.7" stroke="#dea584" stroke-width="1.5" stroke-opacity="0.9" class="fade-6"/><text x="500" y="892.1499449821317" class="t t-value fade-6" text-anchor="middle">sr</text><circle cx="431.73333333333335" cy="867.1753990446698" r="24.287843736263678" fill="#3572A5" fill-opacity="0.08" class="fade-6"/><circle cx="431.73333333333335" cy="867.1753990446698" r="20.287843736263678" fill="#3572A5" fill-opacity="0.7" stroke="#3572A5" stroke-width="1.5" stroke-opacity="0.9" class="fade-6"/><text x="431.73333333333335" y="901.4632427809335" class="t t-value fade-6" text-anchor="middle">languide</text><circle cx="167.2" cy="869.3654905924423" r="24.861890796612347" fill="#b07219" fill-opacity="0.08" class="fade-6"/><circle cx="167.2" cy="869.3654905924423" r="20.861890796612347" fill="#b07219" fill-opacity="0.7" stroke="#b07219" stroke-width="1.5" stroke-opacity="0.9" class="fade-6"/><text x="167.2" y="904.2273813890546" class="t t-value fade-6" text-anchor="middle">flappy-bird</text><circle cx="504.26666666666665" cy="874.2472575852855" r="12.283855820084858" fill="#dea584" fill-opacity="0.08" class="fade-6"/><circle cx="504.26666666666665" cy="874.2472575852855" r="8.283855820084858" fill="#dea584" fill-opacity="0.7" stroke="#dea584" stroke-width="1.5" stroke-opacity="0.9" class="fade-6"/><text x="504.26666666666665" y="896.5311134053704" class="t t-value fade-6" text-anchor="middle">embed-src</text><circle cx="192.8" cy="883.5804337382958" r="14.637905107315877" fill="#b07219" fill-opacity="0.08" class="fade-6"/><circle cx="192.8" cy="883.5804337382958" r="10.637905107315877" fill="#b07219" fill-opacity="0.7" stroke="#b07219" stroke-width="1.5" stroke-opacity="0.9" class="fade-6"/><text x="192.8" y="908.2183388456117" class="t t-value fade-6" text-anchor="middle">barter-trader</text><circle cx="440.26666666666665" cy="886.52098519471" r="14.425254648846348" fill="#3572A5" fill-opacity="0.08" class="fade-6"/><circle cx="440.26666666666665" cy="886.52098519471" r="10.425254648846348" fill="#3572A5" fill-opacity="0.7" stroke="#3572A5" stroke-width="1.5" stroke-opacity="0.9" class="fade-6"/><text x="440.26666666666665" y="910.9462398435563" class="t t-value fade-6" text-anchor="middle">chess-cli</text><circle cx="704.8" cy="888.9360388623352" r="25.902567613806283" fill="#3178c6" fill-opacity="0.08" class="fade-6"/><circle cx="704.8" cy="888.9360388623352" r="21.902567613806283" fill="#3178c6" fill-opacity="0.7" stroke="#3178c6" stroke-width="1.5" stroke-opacity="0.9" class="fade-6"/><text x="704.8" y="924.8386064761414" class="t t-value fade-6" text-anchor="middle">github-insights</text><circle cx="508.53333333333336" cy="893.5173733082124" r="10" fill="#dea584" fill-opacity="0.08" class="fade-6"/><circle cx="508.53333333333336" cy="893.5173733082124" r="6" fill="#dea584" fill-opacity="0.7" stroke="#dea584" stroke-width="1.5" stroke-opacity="0.9" class="fade-6"/><text x="508.53333333333336" y="913.5173733082124" class="t t-value fade-6" text-anchor="middle">llmem</text><circle cx="244" cy="907.1970870227474" r="12.127871907170075" fill="#f1e05a" fill-opacity="0.08" class="fade-6"/><circle cx="244" cy="907.1970870227474" r="8.127871907170075" fill="#f1e05a" fill-opacity="0.7" stroke="#f1e05a" stroke-width="1.5" stroke-opacity="0.9" class="fade-6"/><text x="244" y="929.3249589299174" class="t t-value fade-6" text-anchor="middle">cypress-name-too-…</text><circle cx="512.8" cy="907.890296871788" r="10" fill="#dea584" fill-opacity="0.08" class="fade-6"/><circle cx="512.8" cy="907.890296871788" r="6" fill="#dea584" fill-opacity="0.7" stroke="#dea584" stroke-width="1.5" stroke-opacity="0.9" class="fade-6"/><text x="512.8" y="927.890296871788" class="t t-value fade-6" text-anchor="middle">gitit</text><circle cx="448.8" cy="916.3234183014472" r="10" fill="#3572A5" fill-opacity="0.08" class="fade-6"/><circle cx="448.8" cy="916.3234183014472" r="6" fill="#3572A5" fill-opacity="0.7" stroke="#3572A5" stroke-width="1.5" stroke-opacity="0.9" class="fade-6"/><text x="448.8" y="936.3234183014472" class="t t-value fade-6" text-anchor="middle">lightning-kfold</text><circle cx="628" cy="919.4959714412096" r="17.16456861146825" fill="#3D6117" fill-opacity="0.08" class="fade-6"/><circle cx="628" cy="919.4959714412096" r="13.164568611468251" fill="#3D6117" fill-opacity="0.7" stroke="#3D6117" stroke-width="1.5" stroke-opacity="0.9" class="fade-6"/><text x="628" y="946.6605400526778" class="t t-value fade-6" text-anchor="middle">rlgp-thesis</text><circle cx="372" cy="950" r="12.709114810338736" fill="#8b949e" fill-opacity="0.08" class="fade-6"/><circle cx="372" cy="950" r="8.709114810338736" fill="#8b949e" fill-opacity="0.7" stroke="#8b949e" stroke-width="1.5" stroke-opacity="0.9" class="fade-6"/><text x="372" y="972.7091148103387" class="t t-value fade-6" text-anchor="middle">urmzd</text><text x="24" y="1076" class="t t-h">OPEN SOURCE IMPACT</text><text x="24" y="1092" class="t t-sub">External repositories contributed to</text><text x="24" y="1131" class="t t-card-title fade-1">getzep/graphiti</text><rect x="304" y="1121" width="400" height="12" rx="3" fill="#58a6ff" fill-opacity="0.7" class="fade-1"/><text x="720" y="1131" class="t t-value fade-1">★ 24,242</text><text x="24" y="1145" class="t t-value fade-1">Python</text><text x="24" y="1187" class="t t-card-title fade-2">googleapis/python-aiplatform</text><rect x="304" y="1177" width="268.4407479816314" height="12" rx="3" fill="#3fb950" fill-opacity="0.7" class="fade-2"/><text x="720" y="1187" class="t t-value fade-2">★ 875</text><text x="24" y="1201" class="t t-value fade-2">Python</text><text x="24" y="1243" class="t t-card-title fade-3">MathisWellmann/gym-rs</text><rect x="304" y="1233" width="192.23797146820806" height="12" rx="3" fill="#d29922" fill-opacity="0.7" class="fade-3"/><text x="720" y="1243" class="t t-value fade-3">★ 127</text><text x="24" y="1257" class="t t-value fade-3">Rust</text></svg>