<svg xmlns="http://www.w3.org/2000/svg" width="808" height="1844" viewBox="0 0 808 1844"><defs><style>
  .t { font-family: -apple-system,BlinkMacSystemFont,Segoe UI,Helvetica,Arial,sans-serif; font-variant-numeric: tabular-lining; }
  .t-h { font-size: 14px; fill: #c9d1d9; letter-spacing: 2px; font-weight: 600; }
  .t-sub { font-size: 11px; fill: #6e7681; }
  .t-label { font-size: 12px; fill: #8b949e; }
  .t-value { font-size: 11px; fill: #6e7681; }
  .t-subhdr { font-size: 11px; fill: #8b949e; letter-spacing: 1px; font-weight: 600; }
  .t-stat-label { font-size: 10px; fill: #8b949e; font-weight: 600; }
  .t-stat-value { font-size: 22px; font-weight: 700; }
  .t-card-title { font-size: 12px; fill: #58a6ff; font-weight: 700; }
  .t-card-detail { font-size: 11px; fill: #8b949e; }
  .t-pill { font-size: 11px; font-weight: 600; }
  .t-bullet { font-size: 12px; fill: #c9d1d9; }
  .bg-fill { fill: #0d1117; }
  .card-fill { fill: #161b22; }
  .border-stroke { stroke: #30363d; }
  .muted-fill { fill: #6e7681; }
  .secondary-fill { fill: #8b949e; }

  @keyframes fadeIn {
    from { opacity: 0; transform: translateY(8px); }
    to { opacity: 1; transform: translateY(0); }
  }
  @keyframes scaleIn {
    from { transform: scale(0); opacity: 0; }
    to { transform: scale(1); opacity: 1; }
  }
  @keyframes drawPath {
    from { stroke-dashoffset: var(--path-length); }
    to { stroke-dashoffset: 0; }
  }
  @keyframes radarReveal {
    from { transform: scale(0); opacity: 0; }
    to { transform: scale(1); opacity: 0.6; }
  }
  .fade-1 { animation: fadeIn 0.6s ease-out 0.1s both; }
  .fade-2 { animation: fadeIn 0.6s ease-out 0.25s both; }
  .fade-3 { animation: fadeIn 0.6s ease-out 0.4s both; }
  .fade-4 { animation: fadeIn 0.6s ease-out 0.55s both; }
  .fade-5 { animation: fadeIn 0.6s ease-out 0.7s both; }
  .fade-6 { animation: fadeIn 0.6s ease-out 0.85s both; }
</style></defs><rect width="808" height="1844" rx="12" class="bg-fill"/><text x="24" y="40" class="t t-h">LANGUAGE VELOCITY</text><text x="24" y="56" class="t t-sub">How language usage has evolved over the past year</text><path key="Lua" d="M 24,206 C 55.66666666666667,206 55.66666666666667,205.7608881298036 87.33333333333334,205.7608881298036 C 119.00000000000001,205.7608881298036 119.00000000000001,205.88044406490178 150.66666666666669,205.88044406490178 C 182.33333333333334,205.88044406490178 182.33333333333334,205.88044406490178 214,205.88044406490178 C 245.66666666666669,205.88044406490178 245.66666666666669,206 277.33333333333337,206 C 309,206 309,206 340.6666666666667,206 C 372.33333333333337,206 372.33333333333337,205.40222032450896 404,205.40222032450896 C 435.6666666666667,205.40222032450896 435.6666666666667,203.60888129803587 467.33333333333337,203.60888129803587 C 499.00000000000006,203.60888129803587 499.00000000000006,206 530.6666666666667,206 C 562.3333333333334,206 562.3333333333334,189.8599487617421 594,189.8599487617421 C 625.6666666666667,189.8599487617421 625.6666666666667,159.0145175064048 657.3333333333334,159.0145175064048 C 689,159.0145175064048 689,66 720.6666666666667,66 C 752.3333333333334,66 752.3333333333334,156.86251067463706 784,156.86251067463706 L 784,157.34073441502989 C 752.3333333333334,157.34073441502989 752.3333333333334,67.43467122117849 720.6666666666667,67.43467122117849 C 689,67.43467122117849 689,159.4927412467976 657.3333333333334,159.4927412467976 C 625.6666666666667,159.4927412467976 625.6666666666667,189.9795046968403 594,189.9795046968403 C 562.3333333333334,189.9795046968403 562.3333333333334,206 530.6666666666667,206 C 499.00000000000006,206 499.00000000000006,203.60888129803587 467.33333333333337,203.60888129803587 C 435.6666666666667,203.60888129803587 435.6666666666667,205.40222032450896 404,205.40222032450896 C 372.33333333333337,205.40222032450896 372.33333333333337,206 340.6666666666667,206 C 309,206 309,206 277.33333333333337,206 C 245.66666666666669,206 245.66666666666669,205.88044406490178 214,205.88044406490178 C 182.33333333333334,205.88044406490178 182.33333333333334,205.88044406490178 150.66666666666669,205.88044406490178 C 119.00000000000001,205.88044406490178 119.00000000000001,205.7608881298036 87.33333333333334,205.7608881298036 C 55.66666666666667,205.7608881298036 55.66666666666667,206 24,206 Z" fill="#000080" fill-opacity="0.75" class="fade-1"/><path key="Java" d="M 24,206 C 55.66666666666667,206 55.66666666666667,205.7608881298036 87.33333333333334,205.7608881298036 C 119.00000000000001,205.7608881298036 119.00000000000001,205.88044406490178 150.66666666666669,205.88044406490178 C 182.33333333333334,205.88044406490178 182.33333333333334,205.88044406490178 214,205.88044406490178 C 245.66666666666669,205.88044406490178 245.66666666666669,206 277.33333333333337,206 C 309,206 309,206 340.6666666666667,206 C 372.33333333333337,206 372.33333333333337,205.40222032450896 404,205.40222032450896 C 435.6666666666667,205.40222032450896 435.6666666666667,203.60888129803587 467.33333333333337,203.60888129803587 C 499.00000000000006,203.60888129803587 499.00000000000006,206 530.6666666666667,206 C 562.3333333333334,206 562.3333333333334,189.9795046968403 594,189.9795046968403 C 625.6666666666667,189.9795046968403 625.6666666666667,159.4927412467976 657.3333333333334,159.4927412467976 C 689,159.4927412467976 689,67.43467122117849 720.6666666666667,67.43467122117849 C 752.3333333333334,67.43467122117849 752.3333333333334,157.34073441502989 784,157.34073441502989 L 784,158.29718189581553 C 752.3333333333334,158.29718189581553 752.3333333333334,70.18445772843722 720.6666666666667,70.18445772843722 C 689,70.18445772843722 689,160.44918872758325 657.3333333333334,160.44918872758325 C 625.6666666666667,160.44918872758325 625.6666666666667,190.33817250213494 594,190.33817250213494 C 562.3333333333334,190.33817250213494 562.3333333333334,206 530.6666666666667,206 C 499.00000000000006,206 499.00000000000006,203.60888129803587 467.33333333333337,203.60888129803587 C 435.6666666666667,203.60888129803587 435.6666666666667,205.40222032450896 404,205.40222032450896 C 372.33333333333337,205.40222032450896 372.33333333333337,206 340.6666666666667,206 C 309,206 309,206 277.33333333333337,206 C 245.66666666666669,206 245.66666666666669,205.88044406490178 214,205.88044406490178 C 182.33333333333334,205.88044406490178 182.33333333333334,205.88044406490178 150.66666666666669,205.88044406490178 C 119.00000000000001,205.88044406490178 119.00000000000001,205.7608881298036 87.33333333333334,205.7608881298036 C 55.66666666666667,205.7608881298036 55.66666666666667,206 24,206 Z" fill="#b07219" fill-opacity="0.75" class="fade-2"/><path key="Python" d="M 24,206 C 55.66666666666667,206 55.66666666666667,205.7608881298036 87.33333333333334,205.7608881298036 C 119.00000000000001,205.7608881298036 119.00000000000001,205.88044406490178 150.66666666666669,205.88044406490178 C 182.33333333333334,205.88044406490178 182.33333333333334,205.88044406490178 214,205.88044406490178 C 245.66666666666669,205.88044406490178 245.66666666666669,206 277.33333333333337,206 C 309,206 309,206 340.6666666666667,206 C 372.33333333333337,206 372.33333333333337,205.40222032450896 404,205.40222032450896 C 435.6666666666667,205.40222032450896 435.6666666666667,203.60888129803587 467.33333333333337,203.60888129803587 C 499.00000000000006,203.60888129803587 499.00000000000006,206 530.6666666666667,206 C 562.3333333333334,206 562.3333333333334,190.33817250213494 594,190.33817250213494 C 625.6666666666667,190.33817250213494 625.6666666666667,160.44918872758325 657.3333333333334,160.44918872758325 C 689,160.44918872758325 689,70.18445772843722 720.6666666666667,70.18445772843722 C 752.3333333333334,70.18445772843722 752.3333333333334,158.29718189581553 784,158.29718189581553 L 784,166.4269854824936 C 752.3333333333334,166.4269854824936 752.3333333333334,93.37830913748932 720.6666666666667,93.37830913748932 C 689,93.37830913748932 689,168.22032450896668 657.3333333333334,168.22032450896668 C 625.6666666666667,168.22032450896668 625.6666666666667,192.96840307429548 594,192.96840307429548 C 562.3333333333334,192.96840307429548 562.3333333333334,206 530.6666666666667,206 C 499.00000000000006,206 499.00000000000006,203.9675491033305 467.33333333333337,203.9675491033305 C 435.6666666666667,203.9675491033305 435.6666666666667,205.52177625960718 404,205.52177625960718 C 372.33333333333337,205.52177625960718 372.33333333333337,206 340.6666666666667,206 C 309,206 309,206 277.33333333333337,206 C 245.66666666666669,206 245.66666666666669,205.88044406490178 214,205.88044406490178 C 182.33333333333334,205.88044406490178 182.33333333333334,205.88044406490178 150.66666666666669,205.88044406490178 C 119.00000000000001,205.88044406490178 119.00000000000001,205.7608881298036 87.33333333333334,205.7608881298036 C 55.66666666666667,205.7608881298036 55.66666666666667,206 24,206 Z" fill="#3572A5" fill-opacity="0.75" class="fade-3"/><path key="TypeScript" d="M 24,206 C 55.66666666666667,206 55.66666666666667,205.7608881298036 87.33333333333334,205.7608881298036 C 119.00000000000001,205.7608881298036 119.00000000000001,205.88044406490178 150.66666666666669,205.88044406490178 C 182.33333333333334,205.88044406490178 182.33333333333334,205.88044406490178 214,205.88044406490178 C 245.66666666666669,205.88044406490178 245.66666666666669,206 277.33333333333337,206 C 309,206 309,206 340.6666666666667,206 C 372.33333333333337,206 372.33333333333337,205.52177625960718 404,205.52177625960718 C 435.6666666666667,205.52177625960718 435.6666666666667,203.9675491033305 467.33333333333337,203.9675491033305 C 499.00000000000006,203.9675491033305 499.00000000000006,206 530.6666666666667,206 C 562.3333333333334,206 562.3333333333334,192.96840307429548 594,192.96840307429548 C 625.6666666666667,192.96840307429548 625.6666666666667,168.22032450896668 657.3333333333334,168.22032450896668 C 689,168.22032450896668 689,93.37830913748932 720.6666666666667,93.37830913748932 C 752.3333333333334,93.37830913748932 752.3333333333334,166.4269854824936 784,166.4269854824936 L 784,176.23057216054656 C 752.3333333333334,176.23057216054656 752.3333333333334,121.11528608027326 720.6666666666667,121.11528608027326 C 689,121.11528608027326 689,177.5456874466268 657.3333333333334,177.5456874466268 C 625.6666666666667,177.5456874466268 625.6666666666667,196.19641332194706 594,196.19641332194706 C 562.3333333333334,196.19641332194706 562.3333333333334,206 530.6666666666667,206 C 499.00000000000006,206 499.00000000000006,204.44577284372332 467.33333333333337,204.44577284372332 C 435.6666666666667,204.44577284372332 435.6666666666667,205.64133219470537 404,205.64133219470537 C 372.33333333333337,205.64133219470537 372.33333333333337,206 340.6666666666667,206 C 309,206 309,206 277.33333333333337,206 C 245.66666666666669,206 245.66666666666669,205.88044406490178 214,205.88044406490178 C 182.33333333333334,205.88044406490178 182.33333333333334,205.88044406490178 150.66666666666669,205.88044406490178 C 119.00000000000001,205.88044406490178 119.00000000000001,205.7608881298036 87.33333333333334,205.7608881298036 C 55.66666666666667,205.7608881298036 55.66666666666667,206 24,206 Z" fill="#3178c6" fill-opacity="0.75" class="fade-4"/><path key="Go" d="M 24,206 C 55.66666666666667,206 55.66666666666667,205.7608881298036 87.33333333333334,205.7608881298036 C 119.00000000000001,205.7608881298036 119.00000000000001,205.88044406490178 150.66666666666669,205.88044406490178 C 182.33333333333334,205.88044406490178 182.33333333333334,205.88044406490178 214,205.88044406490178 C 245.66666666666669,205.88044406490178 245.66666666666669,206 277.33333333333337,206 C 309,206 309,206 340.6666666666667,206 C 372.33333333333337,206 372.33333333333337,205.64133219470537 404,205.64133219470537 C 435.6666666666667,205.64133219470537 435.6666666666667,204.44577284372332 467.33333333333337,204.44577284372332 C 499.00000000000006,204.44577284372332 499.00000000000006,206 530.6666666666667,206 C 562.3333333333334,206 562.3333333333334,196.19641332194706 594,196.19641332194706 C 625.6666666666667,196.19641332194706 625.6666666666667,177.5456874466268 657.3333333333334,177.5456874466268 C 689,177.5456874466268 689,121.11528608027326 720.6666666666667,121.11528608027326 C 752.3333333333334,121.11528608027326 752.3333333333334,176.23057216054656 784,176.23057216054656 L 784,187.22971818958155 C 752.3333333333334,187.22971818958155 752.3333333333334,152.4389410760034 720.6666666666667,152.4389410760034 C 689,152.4389410760034 689,188.066609735269 657.3333333333334,188.066609735269 C 625.6666666666667,188.066609735269 625.6666666666667,199.78309137489325 594,199.78309137489325 C 562.3333333333334,199.78309137489325 562.3333333333334,206 530.6666666666667,206 C 499.00000000000006,206 499.00000000000006,205.04355251921436 467.33333333333337,205.04355251921436 C 435.6666666666667,205.04355251921436 435.6666666666667,205.7608881298036 404,205.7608881298036 C 372.33333333333337,205.7608881298036 372.33333333333337,206 340.6666666666667,206 C 309,206 309,206 277.33333333333337,206 C 245.66666666666669,206 245.66666666666669,205.88044406490178 214,205.88044406490178 C 182.33333333333334,205.88044406490178 182.33333333333334,205.88044406490178 150.66666666666669,205.88044406490178 C 119.00000000000001,205.88044406490178 119.00000000000001,205.88044406490178 87.33333333333334,205.88044406490178 C 55.66666666666667,205.88044406490178 55.66666666666667,206 24,206 Z" fill="#00ADD8" fill-opacity="0.75" class="fade-5"/><path key="Rust" d="M 24,206 C 55.66666666666667,206 55.66666666666667,205.88044406490178 87.33333333333334,205.88044406490178 C 119.00000000000001,205.88044406490178 119.00000000000001,205.88044406490178 150.66666666666669,205.88044406490178 C 182.33333333333334,205.88044406490178 182.33333333333334,205.88044406490178 214,205.88044406490178 C 245.66666666666669,205.88044406490178 245.66666666666669,206 277.33333333333337,206 C 309,206 309,206 340.6666666666667,206 C 372.33333333333337,206 372.33333333333337,205.7608881298036 404,205.7608881298036 C 435.6666666666667,205.7608881298036 435.6666666666667,205.04355251921436 467.33333333333337,205.04355251921436 C 499.00000000000006,205.04355251921436 499.00000000000006,206 530.6666666666667,206 C 562.3333333333334,206 562.3333333333334,199.78309137489325 594,199.78309137489325 C 625.6666666666667,199.78309137489325 625.6666666666667,188.066609735269 657.3333333333334,188.066609735269 C 689,188.066609735269 689,152.4389410760034 720.6666666666667,152.4389410760034 C 752.3333333333334,152.4389410760034 752.3333333333334,187.22971818958155 784,187.22971818958155 L 784,206 C 752.3333333333334,206 752.3333333333334,206 720.6666666666667,206 C 689,206 689,206 657.3333333333334,206 C 625.6666666666667,206 625.6666666666667,206 594,206 C 562.3333333333334,206 562.3333333333334,206 530.6666666666667,206 C 499.00000000000006,206 499.00000000000006,206 467.33333333333337,206 C 435.6666666666667,206 435.6666666666667,206 404,206 C 372.33333333333337,206 372.33333333333337,206 340.6666666666667,206 C 309,206 309,206 277.33333333333337,206 C 245.66666666666669,206 245.66666666666669,206 214,206 C 182.33333333333334,206 182.33333333333334,206 150.66666666666669,206 C 119.00000000000001,206 119.00000000000001,206 87.33333333333334,206 C 55.66666666666667,206 55.66666666666667,206 24,206 Z" fill="#dea584" fill-opacity="0.75" class="fade-6"/><rect x="24" y="212" width="8" height="8" rx="2" fill="#dea584" opacity="0.85"/><text x="36" y="220" class="t t-value">Rust</text><rect x="80" y="212" width="8" height="8" rx="2" fill="#00ADD8" opacity="0.85"/><text x="92" y="220" class="t t-value">Go</text><rect x="122" y="212" width="8" height="8" rx="2" fill="#3178c6" opacity="0.85"/><text x="134" y="220" class="t t-value">TypeScript</text><rect x="220" y="212" width="8" height="8" rx="2" fill="#3572A5" opacity="0.85"/><text x="232" y="220" class="t t-value">Python</text><rect x="290" y="212" width="8" height="8" rx="2" fill="#b07219" opacity="0.85"/><text x="302" y="220" class="t t-value">Java</text><rect x="346" y="212" width="8" height="8" rx="2" fill="#000080" opacity="0.85"/><text x="358" y="220" class="t t-value">Lua</text><text key="Mar" x="24" y="220" class="t t-value" text-anchor="start" opacity="0">Mar</text><text key="May" x="150.66666666666669" y="220" class="t t-value" text-anchor="start" opacity="0">May</text><text key="Jul" x="277.33333333333337" y="220" class="t t-value" text-anchor="start" opacity="0">Jul</text><text key="Sep" x="404" y="220" class="t t-value" text-anchor="start" opacity="0">Sep</text><text key="Nov" x="530.6666666666667" y="220" class="t t-value" text-anchor="start" opacity="0">Nov</text><text key="Jan" x="657.3333333333334" y="220" class="t t-value" text-anchor="start" opacity="0">Jan</text><text key="Mar" x="784" y="220" class="t t-value" text-anchor="start" opacity="0">Mar</text><text x="24" y="282" class="t t-h">CONTRIBUTION RHYTHM</text><text x="24" y="298" class="t t-sub">Activity patterns and statistics over the past year</text><circle key="0.25" cx="144" cy="428" r="22.5" fill="none" class="border-stroke" stroke-width="1" stroke-opacity="0.4"/><circle key="0.5" cx="144" cy="428" r="45" fill="none" class="border-stroke" stroke-width="1" stroke-opacity="0.4"/><circle key="0.75" cx="144" cy="428" r="67.5" fill="none" class="border-stroke" stroke-width="1" stroke-opacity="0.4"/><circle key="1" cx="144" cy="428" r="90" fill="none" class="border-stroke" stroke-width="1" stroke-opacity="0.4"/><line key="Sun" x1="144" y1="428" x2="144" y2="338" class="border-stroke" stroke-width="1" stroke-opacity="0.3"/><line key="Mon" x1="144" y1="428" x2="214.36483342212267" y2="371.885917832714" class="border-stroke" stroke-width="1" stroke-opacity="0.3"/><line key="Tue" x1="144" y1="428" x2="231.74351209636413" y2="448.0268840560683" class="border-stroke" stroke-width="1" stroke-opacity="0.3"/><line key="Wed" x1="144" y1="428" x2="183.04953652058023" y2="509.08719811121773" class="border-stroke" stroke-width="1" stroke-opacity="0.3"/><line key="Thu" x1="144" y1="428" x2="104.95046347941977" y2="509.08719811121773" class="border-stroke" stroke-width="1" stroke-opacity="0.3"/><line key="Fri" x1="144" y1="428" x2="56.25648790363587" y2="448.0268840560683" class="border-stroke" stroke-width="1" stroke-opacity="0.3"/><line key="Sat" x1="144" y1="428" x2="73.63516657787731" y2="371.885917832714" class="border-stroke" stroke-width="1" stroke-opacity="0.3"/><polygon points="144,397.4385026737968 164.60146860888352,411.5708770125192 180.9508105753405,436.433781387248 159.087320928406,459.32914472478865 127.50313697793669,462.25608904163744 84.76139891889855,441.5208241287627 73.63516657787731,371.885917832714" fill="#58a6ff" fill-opacity="0.2" stroke="#58a6ff" stroke-width="2" stroke-opacity="0.8" class="fade-2" style="transform-origin: 144px 428px"/><circle key="Sun" cx="144" cy="397.4385026737968" r="3" fill="#58a6ff" class="fade-1"/><circle key="Mon" cx="164.60146860888352" cy="411.5708770125192" r="3" fill="#58a6ff" class="fade-2"/><circle key="Tue" cx="180.9508105753405" cy="436.433781387248" r="3" fill="#58a6ff" class="fade-3"/><circle key="Wed" cx="159.087320928406" cy="459.32914472478865" r="3" fill="#58a6ff" class="fade-4"/><circle key="Thu" cx="127.50313697793669" cy="462.25608904163744" r="3" fill="#58a6ff" class="fade-5"/><circle key="Fri" cx="84.76139891889855" cy="441.5208241287627" r="3" fill="#58a6ff" class="fade-6"/><circle key="Sat" cx="73.63516657787731" cy="371.885917832714" r="3" fill="#58a6ff" class="fade-6"/><text key="Sun" x="144" y="326" class="t t-value" text-anchor="middle">Sun</text><text key="Mon" x="226.87413714161116" y="365.91008100297427" class="t t-value" text-anchor="middle">Mon</text><text key="Tue" x="247.34235869127332" y="455.5872189993693" class="t t-value" text-anchor="middle">Tue</text><text key="Wed" x="189.99167634646116" y="527.5026999976565" class="t t-value" text-anchor="middle">Wed</text><text key="Thu" x="98.00832365353884" y="527.5026999976565" class="t t-value" text-anchor="middle">Thu</text><text key="Fri" x="40.657641308726696" y="455.5872189993693" class="t t-value" text-anchor="middle">Fri</text><text key="Sat" x="61.12586285838883" y="365.91008100297427" class="t t-value" text-anchor="middle">Sat</text><text x="324" y="338" class="t t-stat-label">COMMITS</text><text x="324" y="360" fill="#58a6ff" class="t t-stat-value">2,342</text><text x="324" y="380" class="t t-stat-label">PRS</text><text x="324" y="402" fill="#3fb950" class="t t-stat-value">143</text><text x="324" y="422" class="t t-stat-label">REVIEWS</text><text x="324" y="444" fill="#d29922" class="t t-stat-value">5</text><text x="324" y="464" class="t t-stat-label">REPOS</text><text x="324" y="486" fill="#bc8cff" class="t t-stat-value">29</text><text x="324" y="506" class="t t-stat-label">STREAK</text><text x="324" y="528" fill="#39d2c0" class="t t-stat-value">25d</text><text x="24" y="614" class="t t-h">PROJECT CONSTELLATION</text><text x="24" y="630" class="t t-sub">Top projects ranked by complexity, grouped by primary language</text><circle cx="29" cy="656" r="5" fill="#00ADD8" class=" fade-1" fill-opacity="0.8"/><text x="40" y="660" class="t t-subhdr fade-1">Go</text><line x1="204" y1="656" x2="644" y2="656" class="border-stroke" stroke-opacity="0.3" stroke-width="1"/><text x="32" y="688" class="t t-card-title fade-1">incipit</text><rect x="204" y="680" width="380" height="14" rx="4" fill="#00ADD8" fill-opacity="0.7" class="fade-1"/><text x="604" y="688" class="t t-value fade-1">★ 11</text><circle cx="36" cy="712" r="3" fill="#000080" class=" fade-1" fill-opacity="0.6"/><text x="42" y="715" class="t muted-fill fade-1" font-size="9">Shell</text><text x="32" y="748" class="t t-card-title fade-2">zigbee-skill</text><rect x="204" y="740" width="317.4214115243076" height="14" rx="4" fill="#00ADD8" fill-opacity="0.7" class="fade-2"/><text x="604" y="748" class="t t-value fade-2">★ 0</text><circle cx="36" cy="772" r="3" class="muted-fill fade-2" fill-opacity="0.6"/><text x="42" y="775" class="t muted-fill fade-2" font-size="9">Just</text><circle cx="80" cy="772" r="3" fill="#000080" class=" fade-2" fill-opacity="0.6"/><text x="86" y="775" class="t muted-fill fade-2" font-size="9">Shell</text><text x="32" y="808" class="t t-card-title fade-3">saige</text><rect x="204" y="800" width="164.69573988870135" height="14" rx="4" fill="#00ADD8" fill-opacity="0.7" class="fade-3"/><text x="604" y="808" class="t t-value fade-3">★ 0</text><circle cx="36" cy="832" r="3" class="muted-fill fade-3" fill-opacity="0.6"/><text x="42" y="835" class="t muted-fill fade-3" font-size="9">Go Templa…</text><circle cx="116" cy="832" r="3" fill="#000080" class=" fade-3" fill-opacity="0.6"/><text x="122" y="835" class="t muted-fill fade-3" font-size="9">Shell</text><circle cx="29" cy="884" r="5" fill="#3572A5" class=" fade-4" fill-opacity="0.8"/><text x="40" y="888" class="t t-subhdr fade-4">Python</text><line x1="204" y1="884" x2="644" y2="884" class="border-stroke" stroke-opacity="0.3" stroke-width="1"/><text x="32" y="916" class="t t-card-title fade-4">lepus-classifier</text><rect x="204" y="908" width="335.2354419645207" height="14" rx="4" fill="#3572A5" fill-opacity="0.7" class="fade-4"/><text x="604" y="916" class="t t-value fade-4">★ 2</text><circle cx="36" cy="940" r="3" fill="#000080" class=" fade-4" fill-opacity="0.6"/><text x="42" y="943" class="t muted-fill fade-4" font-size="9">Shell</text><text x="32" y="976" class="t t-card-title fade-5">experimental-transforme…</text><rect x="204" y="968" width="252.30932710906504" height="14" rx="4" fill="#3572A5" fill-opacity="0.7" class="fade-5"/><text x="604" y="976" class="t t-value fade-5">★ 0</text><text x="32" y="1018" class="t t-card-title fade-6">generative-artifact-pro…</text><rect x="204" y="1010" width="180.16701336456438" height="14" rx="4" fill="#3572A5" fill-opacity="0.7" class="fade-6"/><text x="604" y="1018" class="t t-value fade-6">★ 0</text><circle cx="36" cy="1042" r="3" fill="#dea584" class=" fade-6" fill-opacity="0.6"/><text x="42" y="1045" class="t muted-fill fade-6" font-size="9">Rust</text><circle cx="80" cy="1042" r="3" fill="#00ADD8" class=" fade-6" fill-opacity="0.6"/><text x="86" y="1045" class="t muted-fill fade-6" font-size="9">Go</text><circle cx="112" cy="1042" r="3" fill="#000080" class=" fade-6" fill-opacity="0.6"/><text x="118" y="1045" class="t muted-fill fade-6" font-size="9">Shell</text><circle cx="29" cy="1094" r="5" fill="#dea584" class=" fade-6" fill-opacity="0.8"/><text x="40" y="1098" class="t t-subhdr fade-6">Rust</text><line x1="204" y1="1094" x2="644" y2="1094" class="border-stroke" stroke-opacity="0.3" stroke-width="1"/><text x="32" y="1126" class="t t-card-title fade-6">linear-gp</text><rect x="204" y="1118" width="283.78043285151534" height="14" rx="4" fill="#dea584" fill-opacity="0.7" class="fade-6"/><text x="604" y="1126" class="t t-value fade-6">★ 3</text><circle cx="36" cy="1150" r="3" fill="#000080" class=" fade-6" fill-opacity="0.6"/><text x="42" y="1153" class="t muted-fill fade-6" font-size="9">Shell</text><text x="32" y="1186" class="t t-card-title fade-6">teasr</text><rect x="204" y="1178" width="154.92733757591657" height="14" rx="4" fill="#dea584" fill-opacity="0.7" class="fade-6"/><text x="604" y="1186" class="t t-value fade-6">★ 0</text><circle cx="36" cy="1210" r="3" fill="#000080" class=" fade-6" fill-opacity="0.6"/><text x="42" y="1213" class="t muted-fill fade-6" font-size="9">Shell</text><text x="32" y="1246" class="t t-card-title fade-6">oag</text><rect x="204" y="1238" width="131.35282068436265" height="14" rx="4" fill="#dea584" fill-opacity="0.7" class="fade-6"/><text x="604" y="1246" class="t t-value fade-6">★ 0</text><circle cx="36" cy="1270" r="3" fill="#000080" class=" fade-6" fill-opacity="0.6"/><text x="42" y="1273" class="t muted-fill fade-6" font-size="9">Shell</text><circle cx="29" cy="1322" r="5" fill="#3178c6" class=" fade-6" fill-opacity="0.8"/><text x="40" y="1326" class="t t-subhdr fade-6">TypeScript</text><line x1="204" y1="1322" x2="644" y2="1322" class="border-stroke" stroke-opacity="0.3" stroke-width="1"/><text x="32" y="1354" class="t t-card-title fade-6">urmzd.com</text><rect x="204" y="1346" width="264.1164561860722" height="14" rx="4" fill="#3178c6" fill-opacity="0.7" class="fade-6"/><text x="604" y="1354" class="t t-value fade-6">★ 1</text><circle cx="36" cy="1378" r="3" class="muted-fill fade-6" fill-opacity="0.6"/><text x="42" y="1381" class="t muted-fill fade-6" font-size="9">MDX</text><circle cx="74" cy="1378" r="3" class="muted-fill fade-6" fill-opacity="0.6"/><text x="80" y="1381" class="t muted-fill fade-6" font-size="9">Astro</text><circle cx="124" cy="1378" r="3" class="muted-fill fade-6" fill-opacity="0.6"/><text x="130" y="1381" class="t muted-fill fade-6" font-size="9">JavaScript</text><circle cx="204" cy="1378" r="3" fill="#000080" class=" fade-6" fill-opacity="0.6"/><text x="210" y="1381" class="t muted-fill fade-6" font-size="9">Shell</text><text x="32" y="1414" class="t t-card-title fade-6">github-insights</text><rect x="204" y="1406" width="123.07074158759964" height="14" rx="4" fill="#3178c6" fill-opacity="0.7" class="fade-6"/><text x="604" y="1414" class="t t-value fade-6">★ 0</text><circle cx="36" cy="1438" r="3" fill="#000080" class=" fade-6" fill-opacity="0.6"/><text x="42" y="1441" class="t muted-fill fade-6" font-size="9">Shell</text><circle cx="29" cy="1490" r="5" fill="#000080" class=" fade-6" fill-opacity="0.8"/><text x="40" y="1494" class="t t-subhdr fade-6">Lua</text><line x1="204" y1="1490" x2="644" y2="1490" class="border-stroke" stroke-opacity="0.3" stroke-width="1"/><text x="32" y="1522" class="t t-card-title fade-6">dotfiles</text><rect x="204" y="1514" width="176.61216697978" height="14" rx="4" fill="#000080" fill-opacity="0.7" class="fade-6"/><text x="604" y="1522" class="t t-value fade-6">★ 2</text><circle cx="36" cy="1546" r="3" class="muted-fill fade-6" fill-opacity="0.6"/><text x="42" y="1549" class="t muted-fill fade-6" font-size="9">Lua</text><circle cx="74" cy="1546" r="3" class="muted-fill fade-6" fill-opacity="0.6"/><text x="80" y="1549" class="t muted-fill fade-6" font-size="9">Go Templa…</text><circle cx="154" cy="1546" r="3" class="muted-fill fade-6" fill-opacity="0.6"/><text x="160" y="1549" class="t muted-fill fade-6" font-size="9">Nix</text><circle cx="192" cy="1546" r="3" class="muted-fill fade-6" fill-opacity="0.6"/><text x="198" y="1549" class="t muted-fill fade-6" font-size="9">Ruby</text><text x="24" y="1622" class="t t-h">OPEN SOURCE IMPACT</text><text x="24" y="1638" class="t t-sub">External repositories contributed to</text><text x="24" y="1672" class="t t-card-title fade-1">getzep/graphiti</text><rect x="280" y="1662" width="340" height="12" rx="3" fill="#58a6ff" fill-opacity="0.7" class="fade-1"/><text x="636" y="1672" class="t t-value fade-1">★ 24,524</text><text x="728" y="1672" class="t t-value fade-1">Python</text><text x="24" y="1718" class="t t-card-title fade-2">googleapis/python-aiplatform</text><rect x="280" y="1708" width="227.91355504298497" height="12" rx="3" fill="#3fb950" fill-opacity="0.7" class="fade-2"/><text x="636" y="1718" class="t t-value fade-2">★ 875</text><text x="728" y="1718" class="t t-value fade-2">Python</text><text x="24" y="1764" class="t t-card-title fade-3">MathisWellmann/gym-rs</text><rect x="280" y="1754" width="163.21530848427398" height="12" rx="3" fill="#d29922" fill-opacity="0.7" class="fade-3"/><text x="636" y="1764" class="t t-value fade-3">★ 127</text><text x="728" y="1764" class="t t-value fade-3">Rust</text></svg>